<?xml version="1.0" encoding="UTF-8"?>
<!DOCTYPE svg PUBLIC "-//W3C//DTD SVG 1.1//EN" "http://www.w3.org/Graphics/SVG/1.1/DTD/svg11.dtd">
<!-- Creator: CorelDRAW 2019 (64-Bit) -->
<svg xmlns="http://www.w3.org/2000/svg" xml:space="preserve" width="1464px" height="240px" version="1.1" style="shape-rendering:geometricPrecision; text-rendering:geometricPrecision; image-rendering:optimizeQuality; fill-rule:evenodd; clip-rule:evenodd"
viewBox="0 0 1464 239.95"
 xmlns:xlink="http://www.w3.org/1999/xlink"
 xmlns:xodm="http://www.corel.com/coreldraw/odm/2003">
 <defs>
  <style type="text/css">
   <![CDATA[
    .fil0 {fill:#332C2B;fill-rule:nonzero}
    .fil1 {fill:#E62129;fill-rule:nonzero}
   ]]>
  </style>
 </defs>
 <g id="Layer_x0020_1">
  <metadata id="CorelCorpID_0Corel-Layer"/>
  <path class="fil0" d="M34.92 40.32l90.48 0c14.25,0 25.23,3.27 32.85,9.87 7.65,6.54 11.44,14.94 11.44,25.27 0,10.92 -3.89,20.12 -11.68,27.51 -7.83,7.44 -20.75,12.38 -38.79,14.82 14.18,1.26 25.01,5.36 32.41,12.31 7.37,6.88 11.06,15.76 11.06,26.5 0,9.64 -2.84,18.18 -8.51,25.64 -4.15,5.52 -11.26,10.42 -21.32,14.75 -10.09,4.34 -20.94,6.5 -32.49,6.5l-100.37 0 2.41 -9.86 10.62 0c6.18,0 10.05,-3.31 11.65,-9.91l31.26 -122.75c0.35,-1.44 0.53,-2.92 0.53,-4.27 0,-2.01 -0.77,-3.61 -2.31,-4.74 -1.55,-1.19 -4.37,-1.77 -8.42,-1.77l-13.14 0 2.32 -9.87zm37.96 83.85l-14.97 58.3c-0.47,1.61 -0.64,3.16 -0.64,4.59 0,2.07 0.81,3.61 2.43,4.62 1.62,1.05 4.83,1.5 9.71,1.5l17.79 0c8.39,0 15.38,-1.57 21.06,-4.83 5.68,-3.24 10.37,-8.34 14.05,-15.45 3.63,-7.08 5.48,-14.57 5.48,-22.42 0,-8.14 -2.65,-14.56 -7.86,-19.29 -5.29,-4.7 -12.92,-7.02 -23.02,-7.02l-24.03 0zm3.03 -10.27l21.06 0c6.31,0 11.97,-1.17 16.93,-3.43 6.6,-3.06 11.91,-7.86 15.8,-14.31 3.92,-6.51 5.87,-13.88 5.87,-22.1 0,-9.05 -2.71,-15.51 -8.19,-19.41 -3.84,-2.69 -10.88,-4.06 -21.11,-4.06 -5.98,0 -9.99,0.66 -12.06,1.87 -2.07,1.24 -3.57,3.62 -4.51,7.08l-13.79 54.36z"/>
  <path class="fil0" d="M279.81 40.32l14.7 0 18.45 140.69c0.54,4.35 1.9,7.42 4.02,9.08 2.95,2.37 6.86,3.54 11.74,3.54l4.87 0 -2.59 9.86 -71.61 0 2.42 -9.86 5.26 0c5.5,0 9.28,-0.71 11.26,-2.24 2.01,-1.47 3.02,-3.71 3.02,-6.74 0,-1.08 -0.12,-2.27 -0.34,-3.64l-3.86 -29.3 -52.6 0 -10.43 16.96c-2.88,4.83 -4.31,9.29 -4.31,13.3 0,3.67 1.12,6.49 3.42,8.56 2.26,2.09 5.79,3.1 10.49,3.1l4.3 0 -2.44 9.86 -55.81 0 2.44 -9.86c4.79,-0.35 8.64,-1.52 11.46,-3.59 5.39,-4.02 9.44,-8.28 12.19,-12.81l83.95 -136.91zm-11.93 40.72l-35.78 58.34 43.45 0 -7.67 -58.34z"/>
  <path class="fil0" d="M384.11 40.32l46.92 0 52.57 113.71 18.52 -80.13c0.82,-3.35 1.25,-6.14 1.25,-8.19 0,-4.74 -1.51,-8.5 -4.49,-11.3 -2.95,-2.81 -6.96,-4.22 -11.95,-4.22l-4.5 0 2.63 -9.87 53.71 0 -2.76 9.87c-5.59,0.3 -9.89,1.92 -12.84,4.89 -4.15,4.2 -7.06,9.87 -8.79,17.03l-30.32 131.38 -12.01 0 -60.51 -129.55 -24.01 89.98c-1.05,4.31 -1.6,7.76 -1.6,10.46 0,5.69 1.87,10.34 5.52,13.78 3.67,3.51 9.04,5.31 16.03,5.47l-2.32 9.86 -59.97 0 2.44 -9.86c6.95,-0.35 12.53,-2.44 16.9,-6.35 4.37,-3.97 7.43,-9.41 9.18,-16.35l28.04 -105.19c0.71,-2.62 1.07,-4.59 1.07,-5.8 0,-3.02 -1.18,-5.41 -3.52,-7.17 -2.33,-1.75 -6.5,-2.58 -12.46,-2.58l-5.35 0 2.62 -9.87z"/>
  <path class="fil0" d="M565.75 40.32l72.65 0 -2.84 9.87 -8.27 0c-3.67,0 -6.44,0.83 -8.32,2.56 -1.92,1.76 -3.45,4.83 -4.54,9.29l-16.47 64.86 62.53 -57.15c4.57,-4.35 6.87,-8.14 6.87,-11.35 0,-2.42 -0.97,-4.37 -2.88,-5.91 -1.85,-1.54 -4.8,-2.3 -8.7,-2.3l-4.1 0 2.52 -9.87 60.08 0 -2.6 9.87c-6.39,0.5 -11.85,1.92 -16.37,4.09 -4.54,2.22 -10.03,6.43 -16.58,12.6l-41.01 37.51 35.82 79.01c1.14,2.62 2.45,4.57 3.94,5.9 1.51,1.37 3.73,2.49 6.68,3.43 1.89,0.55 5.4,0.9 10.54,0.9l-2.56 9.86 -72.88 0 2.67 -9.86 9.43 0c3.6,0 6.16,-0.62 7.7,-1.82 1.54,-1.25 2.31,-2.84 2.31,-4.8 0,-1.55 -0.3,-2.98 -0.97,-4.35l-25.88 -57.07 -21.18 19.29 -10.08 39.72c-0.22,0.81 -0.3,1.66 -0.3,2.52 0,2.03 0.79,3.65 2.39,4.75 1.61,1.17 4.41,1.76 8.45,1.76l11.1 0 -2.62 9.86 -74.22 0 2.56 -9.86 6.27 0c4.22,0 7.37,-0.83 9.46,-2.43 2.03,-1.6 3.53,-4.19 4.44,-7.8l31.23 -122.78c0.36,-1.18 0.53,-2.38 0.53,-3.6 0,-2.17 -0.79,-3.82 -2.42,-5.04 -1.63,-1.18 -4.35,-1.79 -8.31,-1.79l-8.51 0 2.44 -9.87z"/>
  <path class="fil0" d="M1020.56 39.66l74.63 0c21.33,0 37.63,5.81 48.94,17.54 11.25,11.65 16.91,27.97 16.91,48.8 0,13.61 -2.45,26.9 -7.38,40.03 -4.92,13.15 -11.23,23.78 -18.83,31.9 -7.66,8.16 -17.4,14.7 -29.39,19.59 -11.96,4.95 -25.43,7.42 -40.29,7.42l-78.74 0 2.65 -9.99 8.74 0c6,0 9.83,-3.64 11.61,-10.93l31.72 -124.63c0.3,-0.99 0.41,-1.95 0.41,-3.01 0,-2.13 -0.82,-3.78 -2.43,-4.93 -1.63,-1.17 -4.78,-1.79 -9.37,-1.79l-12.25 0 3.07 -10zm42.9 154.83c8.01,0 15.65,-2.05 22.87,-6.22 7.23,-4.19 13.53,-10.18 18.96,-18.06 5.42,-7.85 10.17,-19.11 14.24,-33.85 4.06,-14.69 6.11,-28.75 6.11,-42.18 0,-14.45 -3.24,-25.69 -9.77,-33.73 -5.68,-6.9 -14.45,-10.39 -26.33,-10.39 -5.36,0 -8.97,0.62 -10.88,1.83 -1.86,1.24 -3.26,3.42 -4.09,6.51l-32.07 125.96c-0.28,1.14 -0.42,2.16 -0.42,3.12 0,2.23 0.62,3.9 1.8,4.91 1.63,1.45 3.99,2.1 7.15,2.1l12.43 0z"/>
  <path class="fil0" d="M1211.45 39.66l73.62 0 -2.89 10 -8.37 0c-3.74,0 -6.53,0.84 -8.44,2.59 -1.96,1.78 -3.45,4.9 -4.58,9.41l-16.69 65.7 63.36 -57.89c4.6,-4.41 6.94,-8.25 6.94,-11.49 0,-2.46 -0.96,-4.43 -2.9,-5.99 -1.91,-1.56 -4.86,-2.33 -8.84,-2.33l-4.12 0 2.49 -10 60.89 0 -2.61 10c-6.48,0.51 -12.05,1.94 -16.62,4.14 -4.58,2.25 -10.16,6.51 -16.75,12.76l-41.62 38 36.34 80.02c1.14,2.66 2.48,4.63 4.01,5.98 1.5,1.4 3.77,2.52 6.74,3.48 1.94,0.56 5.48,0.91 10.66,0.91l-2.56 9.99 -73.8 0 2.67 -9.99 9.57 0c3.62,0 6.23,-0.63 7.8,-1.84 1.56,-1.27 2.32,-2.89 2.32,-4.87 0,-1.57 -0.3,-3.02 -0.94,-4.4l-26.22 -57.81 -21.48 19.54 -10.22 40.24c-0.22,0.81 -0.31,1.68 -0.31,2.55 0,2.05 0.83,3.69 2.44,4.81 1.64,1.18 4.45,1.78 8.53,1.78l11.27 0 -2.65 9.99 -75.17 0 2.53 -9.99 6.41 0c4.25,0 7.48,-0.84 9.53,-2.46 2.09,-1.62 3.59,-4.25 4.57,-7.91l31.6 -124.36c0.35,-1.19 0.52,-2.41 0.52,-3.64 0,-2.21 -0.82,-3.87 -2.42,-5.11 -1.66,-1.19 -4.46,-1.81 -8.43,-1.81l-8.64 0 2.46 -10z"/>
  <path class="fil0" d="M1386.42 39.66l77.58 0 -2.55 10 -9.04 0c-4.21,0 -7.22,0.63 -9,1.94 -1.85,1.29 -3.13,3.48 -3.91,6.52l-32.09 126.23c-0.31,1.35 -0.46,2.5 -0.46,3.42 0,2.34 0.68,3.97 2.03,4.93 2.09,1.53 5.12,2.25 9.17,2.25l11.5 0 -2.56 9.99 -75.73 0 2.66 -9.99 8.52 0c6.09,0 9.82,-2.88 11.17,-8.71l32 -125.66c0.33,-1.47 0.52,-2.88 0.52,-4.24 0,-2.09 -0.74,-3.74 -2.17,-4.89 -1.49,-1.21 -4.02,-1.79 -7.61,-1.79l-12.39 0 2.36 -10z"/>
  <path class="fil1" d="M854.65 232c0,0 -13.63,-29.29 -26.46,-56.88l-0.01 -0.04c-11.21,-24.11 -21.85,-46.89 -22.23,-47.79 -0.79,-1.65 -1.84,-4.57 -0.93,-7.93 0.69,-2.52 3.56,-6.86 5.64,-9.53 3.94,-5.03 5.13,-7.67 5.66,-11.33l57.95 124.34 -0.04 0.02 6.87 14.73c7.27,-1.45 14.27,-3.64 20.97,-6.34 -7.88,-16.92 -15.93,-34.29 -20.94,-45.03l-0.06 0.03c0,0 -47.84,-102.8 -48.74,-104.7 -0.78,-1.65 -1.82,-4.58 -0.91,-7.93 0.7,-2.52 3.56,-6.87 5.65,-9.51 3.94,-5.03 5.11,-7.7 5.65,-11.36l43.85 94.06 34.74 74.54c6.31,-3.96 12.14,-8.5 17.56,-13.53 -10.44,-22.44 -24.41,-52.45 -31.32,-67.33l-0.09 0.02c0,0 -47.83,-102.79 -48.74,-104.69 -0.75,-1.65 -1.81,-4.57 -0.88,-7.93 0.68,-2.51 3.55,-6.87 5.63,-9.52 3.96,-5.04 5.13,-7.69 5.63,-11.35l44.55 95.49 40.85 87.64c14.3,-19.74 22.81,-43.92 22.81,-70.17 0,-66.26 -53.71,-119.98 -119.98,-119.98 -66.26,0 -119.98,53.72 -119.98,119.98 0,47.47 27.68,88.38 67.65,107.83 -12.32,-26.49 -25.03,-53.81 -25.47,-54.79 -0.76,-1.65 -1.84,-4.57 -0.93,-7.93 0.71,-2.51 3.57,-6.86 5.66,-9.51 3.93,-5.04 5.11,-7.69 5.63,-11.35l43.54 93.34c7.71,1.54 15.71,2.38 23.9,2.38 0.36,0 0.66,-0.04 1,-0.05 -1.23,-2.59 -2.47,-5.24 -3.68,-7.9z"/>
 </g>
</svg>
