<?xml version="1.0" encoding="UTF-8"?>
<!DOCTYPE svg PUBLIC "-//W3C//DTD SVG 1.1//EN" "http://www.w3.org/Graphics/SVG/1.1/DTD/svg11.dtd">
<!-- Creator: CorelDRAW X5 -->
<svg xmlns="http://www.w3.org/2000/svg" xml:space="preserve" width="210mm" height="67.628mm" style="shape-rendering:geometricPrecision; text-rendering:geometricPrecision; image-rendering:optimizeQuality; fill-rule:evenodd; clip-rule:evenodd"
viewBox="0 0 21000 6763"
 xmlns:xlink="http://www.w3.org/1999/xlink"
 xmlns:svg="http://www.w3.org/2000/svg">
 <defs>
  <style type="text/css">
   <![CDATA[
    .fil1 {fill:black;fill-rule:nonzero}
    .fil0 {fill:#FDAF27;fill-rule:nonzero}
   ]]>
  </style>
 </defs>
 <g id="Layer_x0020_1">
  <metadata id="CorelCorpID_0Corel-Layer"/>
  <path class="fil0" d="M3597 14c-291,-60 -593,80 -746,345 -36,63 -62,130 -79,200 -68,-270 -280,-489 -550,-545 -291,-60 -593,80 -747,345 -36,63 -62,130 -79,200 -68,-270 -280,-489 -550,-545 -291,-60 -593,80 -747,345 -154,266 -129,615 60,855 189,239 509,332 789,227 223,-84 389,-282 447,-517 25,104 71,204 139,289 189,239 509,332 789,227 223,-84 389,-282 447,-517 25,104 71,204 138,289 189,239 509,332 789,227 279,-105 470,-389 470,-699 0,-350 -244,-660 -573,-728z"/>
  <path class="fil0" d="M1328 3619c72,323 256,624 579,717 306,87 647,-54 805,-344 95,-174 83,-370 82,-563 -1,-130 -1,-259 -1,-389 0,-143 0,-285 1,-428 1,-183 -4,-360 83,-526 120,-229 360,-371 610,-360 253,11 483,176 583,419 67,161 55,336 56,507 1,141 1,283 1,424 0,305 18,624 -38,925 -132,696 -593,1302 -1219,1581 -626,279 -1367,204 -1931,-193 -278,-196 -507,-467 -658,-780 -149,-310 -239,-697 -182,-1043 43,-258 238,-469 484,-522 255,-55 523,69 656,303 48,85 69,177 91,272z"/>
  <path class="fil1" d="M21000 3571c0,946 -742,1701 -1678,1701 -930,0 -1659,-749 -1659,-1701 0,-952 729,-1695 1665,-1695 931,0 1672,749 1672,1695zm-2476 6c0,512 339,880 804,880 459,0 804,-374 804,-880 0,-512 -346,-893 -804,-893 -465,0 -804,374 -804,893z"/>
  <path class="fil1" d="M7574 4210c158,95 310,192 499,180 181,-11 347,-110 450,-266 96,-145 94,-310 94,-477 0,-283 0,-2219 0,-2360 0,-97 -5,-194 31,-287 107,-276 452,-365 669,-172 116,103 149,245 149,397 0,305 9,2414 -2,2623 -19,377 -183,743 -441,1006 -267,273 -634,424 -1007,423 -358,0 -736,-144 -971,-436 -94,-117 -149,-256 -112,-410 36,-148 150,-267 293,-302 130,-31 239,14 349,80z"/>
  <path class="fil1" d="M13454 4483l1 0c-130,-82 -211,-229 -213,-388l0 -1774c0,-245 -190,-443 -424,-443 -215,0 -391,167 -420,383 -214,-241 -538,-383 -928,-383 -874,0 -1509,716 -1509,1701 0,985 635,1701 1509,1701 4,0 8,0 12,0 4,0 8,0 12,0 419,0 783,-165 1048,-445 136,220 354,382 616,431 26,5 51,7 76,7 2,0 3,0 5,-1 2,0 4,0 6,0 225,0 407,-190 407,-425 0,-154 -79,-289 -196,-364zm-1827 -12c-471,0 -804,-374 -804,-893 0,-519 339,-900 804,-900 465,0 786,368 786,900 0,532 -314,893 -786,893z"/>
  <path class="fil1" d="M17200 2323c0,-256 -176,-447 -415,-447 -220,0 -396,171 -415,407 -214,-256 -547,-407 -949,-407 -874,0 -1509,716 -1509,1701 0,985 635,1701 1509,1701 392,0 717,-142 930,-394l0 106c-3,530 -318,886 -786,886 -200,0 -381,-67 -521,-192 -52,-47 -99,-102 -138,-163 -130,-204 -393,-259 -588,-124 -195,136 -248,411 -118,615 82,129 180,245 292,345 296,266 668,407 1074,407 936,0 1618,-732 1633,-1746l1 -192c0,0 0,0 0,0l0 -2502 0 0zm-1621 2148c-472,0 -804,-374 -804,-893 0,-519 339,-900 804,-900 465,0 786,368 786,900 0,532 -314,893 -786,893z"/>
 </g>
</svg>
