<?xml version="1.0" encoding="UTF-8"?>
<!DOCTYPE svg PUBLIC "-//W3C//DTD SVG 1.1//EN" "http://www.w3.org/Graphics/SVG/1.1/DTD/svg11.dtd">
<!-- Creator: CorelDRAW 2019 (64-Bit) -->
<svg xmlns="http://www.w3.org/2000/svg" xml:space="preserve" width="1056px" height="240px" version="1.1" style="shape-rendering:geometricPrecision; text-rendering:geometricPrecision; image-rendering:optimizeQuality; fill-rule:evenodd; clip-rule:evenodd"
viewBox="0 0 1056 239.93"
 xmlns:xlink="http://www.w3.org/1999/xlink"
 xmlns:xodm="http://www.corel.com/coreldraw/odm/2003">
 <defs>
  <style type="text/css">
   <![CDATA[
    .fil0 {fill:#00A4E4;fill-rule:nonzero}
   ]]>
  </style>
 </defs>
 <g id="Layer_x0020_1">
  <metadata id="CorelCorpID_0Corel-Layer"/>
  <path class="fil0" d="M178.34 213.22c28.83,-16.65 46.86,-45.14 46.86,-76.11 0,-69.05 -69.72,-93.74 -69.72,-93.74 -12.82,-7.3 -28.64,-11.21 -46.14,-11.21 -1.29,0 -3.62,0.04 -4.93,0.04 17.8,-12.9 40.92,-20.86 64.3,-20.86 54.49,0 95.72,49.98 95.72,96.76 0,54.42 -39.86,96.66 -86.09,105.12zm-35.05 -0.2l0 0c-35.43,-6.71 -64.54,-32.63 -77.04,-63.34 12.42,11.78 30.09,19.83 52.66,19.83 36.02,0 70.27,-26.71 70.27,-66.23 0,-19.46 -7.12,-32.17 -7.12,-32.17 15.06,14.75 24.57,35.44 24.57,60.65 0,35.44 -27.45,68.5 -63.34,81.26zm-31.68 5.62l0 0c-42.3,0 -86.97,-39.54 -86.97,-88.74 0,-24.05 7.79,-48.04 27.57,-64.17 -3.52,7.08 -5.93,15.55 -6.9,25.73 -0.47,3.68 -0.74,7.48 -0.74,11.47 0,53.14 30.16,97.2 77.38,115.04 -3.41,0.44 -6.87,0.67 -10.34,0.67zm4.08 -172.06l0 0c30.75,0 54.53,29.22 54.53,55.27 0,35.26 -22.27,58.85 -53.4,58.85 -27.91,0 -52.85,-24.96 -52.85,-60.48 0,-29.31 22.58,-53.64 51.72,-53.64zm43.84 -46.58l0 0c-28.72,0 -69.53,11.95 -93.59,41.05 -38.1,16.1 -65.94,51.98 -65.94,91.27 0,60.91 53.7,97.3 118.41,97.3 10.65,0 20.83,-2.28 30.29,-4.65 6.96,1.08 14.2,1.65 21.69,1.65 61.09,0 114.88,-47.82 114.88,-110.34 0,-64.44 -53.07,-116.28 -125.74,-116.28z"/>
  <path class="fil0" d="M386.13 178.59c0,19.6 -12.89,30.67 -40.36,31.5l0 29.84c31.18,0 70.7,-16.34 70.7,-61.34l0 -146.24 -30.34 0 0 146.24z"/>
  <path class="fil0" d="M473.21 92.53c2.02,-18.17 10.03,-34.22 30.05,-34.22 20.05,0 28.05,16.05 30.09,34.22l-60.14 0zm91.88 2.79l0 0c0,-23.19 -13.18,-65.76 -61.83,-65.76 -46.08,0 -61.8,37.33 -61.8,75.97 0,38.69 16.04,76 68.96,76 14.34,0 32.61,-3.3 53.52,-17.69l-15.44 -23.19c-13.16,8.03 -25.79,12.16 -38.08,12.16 -23.47,0 -34.35,-15.47 -36.92,-31.5l63.82 0c18.88,0 27.77,-7.17 27.77,-25.99z"/>
  <path class="fil0" d="M647.55 29.56c-37.8,0 -57.18,30.14 -57.18,30.14l0 120.19 30.3 0 0 -110.53c0,0 9.44,-11.05 26.88,-11.05 19.19,0 29.76,15.19 29.76,28.73l0 92.85 30.37 0 0 -92.85c0,-27.91 -20.35,-57.48 -60.13,-57.48z"/>
  <polygon class="fil0" points="741.31,179.89 771.63,179.89 771.63,31.22 741.31,31.22 "/>
  <path class="fil0" d="M1001.06 89.8l0.27 0c-10.35,-2.77 -23.72,-7.68 -23.72,-17.92 0,-7.47 7.99,-13.57 23.16,-13.57 15.17,0 32.33,6.64 38.91,9.66l9.76 -26.27c-10.06,-4.97 -30.39,-12.14 -48.67,-12.14 -26.31,0 -53.81,12.97 -53.81,42.32 0,27.03 24.62,40.6 48.94,46.39 13.2,2.75 29.75,8.03 29.75,18.53 0,11.06 -13.39,16.04 -26.6,16.04 -12.86,0 -30.6,-8.05 -44.05,-14.97l-11.74 27.38c12.86,6.38 31.78,15.72 55.79,16.28 27.73,0 56.95,-12.69 56.95,-44.73 0,-31 -32.05,-41.49 -54.94,-47z"/>
  <path class="fil0" d="M893.11 124.06c0,13.49 -10.55,28.62 -29.61,28.74 -18.98,-0.12 -29.57,-15.25 -29.57,-28.74l0 -92.84 -30.31 0 0 92.84c0,27.85 20.22,57.28 59.75,57.47l0.35 0c39.53,-0.19 59.71,-29.62 59.71,-57.47l0 -92.84 -30.32 0 0 92.84z"/>
 </g>
</svg>
