<?xml version="1.0" encoding="UTF-8"?>
<!DOCTYPE svg PUBLIC "-//W3C//DTD SVG 1.1//EN" "http://www.w3.org/Graphics/SVG/1.1/DTD/svg11.dtd">
<!-- Creator: CorelDRAW 2019 (64-Bit) -->
<svg xmlns="http://www.w3.org/2000/svg" xml:space="preserve" width="794px" height="240px" version="1.1" style="shape-rendering:geometricPrecision; text-rendering:geometricPrecision; image-rendering:optimizeQuality; fill-rule:evenodd; clip-rule:evenodd"
viewBox="0 0 794 239.97"
 xmlns:xlink="http://www.w3.org/1999/xlink"
 xmlns:xodm="http://www.corel.com/coreldraw/odm/2003">
 <defs>
  <style type="text/css">
   <![CDATA[
    .fil3 {fill:#FEFEFE}
    .fil2 {fill:#4F68AF}
    .fil1 {fill:#00B04C}
    .fil0 {fill:#3E5CB2}
   ]]>
  </style>
   <mask id="id0">
  <linearGradient id="id1" gradientUnits="userSpaceOnUse" x1="392.97" y1="128.05" x2="393.1" y2="289.62">
   <stop offset="0" style="stop-opacity:0; stop-color:white"/>
   <stop offset="1" style="stop-opacity:1; stop-color:white"/>
  </linearGradient>
    <rect style="fill:url(#id1)" x="-1.18" y="126.87" width="788.3" height="96.96"/>
   </mask>
 </defs>
 <g id="Layer_x0020_1">
  <metadata id="CorelCorpID_0Corel-Layer"/>
  <path class="fil0" d="M24.33 132.48l0 2.99c-1.39,0.77 -2.09,2.06 -2.09,3.85l0 49.99c9.14,-10.48 15.58,-16.87 19.31,-19.19 3.73,-2.31 7.54,-3.45 11.42,-3.45 6.22,0 11.2,2.46 14.91,7.39 3.7,4.92 5.57,11.19 5.57,18.83 0,6.4 -1.37,12.62 -4.08,18.66 -2.71,6.05 -6.24,11 -10.57,14.86 -4.33,3.88 -8.41,6.32 -12.25,7.36 -3.83,1.05 -8.58,1.57 -14.28,1.57l-6.69 0c-5.1,0 -8.49,0.35 -10.1,1.07 -1.65,0.7 -2.87,1.89 -3.69,3.56l-4.92 0c1.27,-2.29 2.29,-5.28 3.03,-8.98 0.77,-3.71 1.15,-6.5 1.15,-8.34l0 -71.98c0,-4.28 -1.62,-6.42 -4.88,-6.42 -1.49,0 -3.56,0.55 -6.17,1.67l0 -3.44 24.33 -10zm-1.89 91.44c5.88,3.63 12.15,5.45 18.79,5.45 4.83,0 8.81,-1.27 11.97,-3.81 3.13,-2.56 5.47,-5.99 6.96,-10.37 1.5,-4.36 2.24,-9.33 2.24,-14.91 0,-7.21 -1.39,-12.99 -4.18,-17.29 -2.81,-4.31 -6.66,-6.47 -11.57,-6.47 -6.32,0 -12.09,3.63 -17.31,10.9 -5.23,7.26 -7.84,15.95 -7.84,26.02 0,3.11 0.32,6.6 0.94,10.48zm65.09 -46.36c11.2,-7.36 21.75,-11.04 31.63,-11.04 4.63,0 7.96,1.02 10.03,3.06 2.04,2.04 3.03,5.5 2.98,10.35l0 45.56c0,2.19 1,3.28 2.96,3.28 1.92,0 5.33,-2.24 10.18,-6.72l0 4.48c-7.39,7.27 -13.41,10.9 -18.06,10.9 -4.18,0 -6.28,-2.31 -6.28,-6.97l0 -10.75c-6.07,6.2 -11.19,10.7 -15.4,13.52 -4.18,2.81 -8.16,4.2 -11.89,4.2 -3.63,0 -6.74,-1.42 -9.31,-4.25 -2.56,-2.84 -3.85,-6.3 -3.85,-10.38 0,-10.52 13.48,-21.87 40.45,-34.04l0 -8.78c0,-2.69 -0.79,-4.9 -2.38,-6.64 -1.62,-1.77 -3.81,-2.64 -6.65,-2.64 -4.77,0 -9.05,2.31 -12.79,6.97 -3.73,4.65 -5.97,10.44 -6.69,17.36l-4.93 0 0 -17.47zm34.19 17.17c-8.96,1.84 -16.22,5 -21.79,9.48 -5.58,4.48 -8.37,9.09 -8.37,13.79 0,2.98 0.93,5.4 2.79,7.19 1.87,1.79 4.31,2.69 7.32,2.69 5.57,0 10.27,-2.94 14.13,-8.84 3.86,-5.87 5.82,-13.98 5.92,-24.31zm28.49 -20.6l18.89 -7.61 3.06 0 0 24.08c7.01,-9.38 12.79,-15.72 17.31,-19.08 4.53,-3.34 8.84,-5 12.89,-5 8.24,0 12.34,5.25 12.34,15.77l0 38.12c0,4.38 0.88,7.37 2.64,8.96 1.77,1.59 4.56,2.44 8.41,2.54l0 3.43 -25.38 0 0 -3.43c2.09,-0.1 3.14,-1.3 3.14,-3.56l0 -44.96c0,-2.52 -0.65,-4.56 -1.97,-6.07 -1.32,-1.52 -3.01,-2.29 -5.1,-2.29 -6.14,0 -11.84,4.33 -17.12,12.98 -5.27,8.66 -7.91,18.59 -7.91,29.79 0,5.67 0.87,9.4 2.61,11.25 1.77,1.81 4.88,2.76 9.33,2.86l0 3.43 -33.14 0 0 -3.43c3.93,-0.1 6.74,-0.95 8.46,-2.59 1.72,-1.62 2.59,-4.58 2.59,-8.91l0 -37.17c0,-5 -1.59,-7.49 -4.8,-7.49 -1.15,0 -3.24,0.6 -6.25,1.81l0 -3.43zm104.53 25.58l0 20.7 -0.07 1.69c0,6.4 3.7,9.66 11.12,9.81l0 3.43 -33.29 0 0 -3.43c3.78,-0.1 6.56,-0.92 8.36,-2.47 1.79,-1.54 2.68,-4.55 2.68,-9.03l0 -68.3c0,-5.2 -1.74,-7.81 -5.22,-7.81 -1.42,0 -3.36,0.4 -5.82,1.17l0 -3.44 25.23 -9.85 0 2.99c-1.99,0.62 -2.99,2.09 -2.99,4.38l0 60.16 12.76 -10.58 0.68 -0.72 3.28 -2.91c3.63,-3.18 5.45,-6.12 5.45,-8.83 0,-2.99 -2.91,-4.53 -8.73,-4.63l0 -3.43 34.16 0 0 3.43c-6.1,0.1 -13.49,3.78 -22.25,11.05l-14.88 12.34 14.36 18.19c9.53,12.14 18.07,18.24 25.65,18.29l0 3.43 -22.36 0 -28.12 -35.63z"/>
  <path class="fil1" d="M477.36 202.25l0 20.7 -0.08 1.69c0,6.4 3.71,9.66 11.12,9.8l0 3.44 -33.29 0 0 -3.44c3.78,-0.1 6.57,-0.92 8.36,-2.46 1.79,-1.54 2.69,-4.55 2.69,-9.03l0 -68.3c0,-5.2 -1.74,-7.81 -5.23,-7.81 -1.41,0 -3.36,0.39 -5.82,1.17l0 -3.44 25.23 -9.85 0 2.98c-1.99,0.63 -2.98,2.09 -2.98,4.38l0 60.17 12.76 -10.58 0.67 -0.72 3.29 -2.91c3.63,-3.19 5.45,-6.12 5.45,-8.83 0,-2.99 -2.92,-4.53 -8.74,-4.63l0 -3.43 34.16 0 0 3.43c-6.09,0.1 -13.48,3.78 -22.24,11.05l-14.88 12.34 14.36 18.19c9.53,12.14 18.06,18.23 25.65,18.28l0 3.44 -22.37 0 -28.11 -35.63zm59.86 -22.15c11.2,-7.36 21.75,-11.05 31.63,-11.05 4.62,0 7.96,1.03 10.02,3.07 2.04,2.04 3.04,5.49 2.99,10.35l0 45.56c0,2.18 0.99,3.28 2.96,3.28 1.92,0 5.32,-2.24 10.18,-6.72l0 4.48c-7.39,7.27 -13.42,10.9 -18.07,10.9 -4.18,0 -6.27,-2.32 -6.27,-6.97l0 -10.75c-6.07,6.2 -11.2,10.7 -15.4,13.51 -4.18,2.81 -8.16,4.21 -11.89,4.21 -3.64,0 -6.75,-1.42 -9.31,-4.26 -2.56,-2.83 -3.86,-6.29 -3.86,-10.37 0,-10.53 13.49,-21.87 40.46,-34.04l0 -8.78c0,-2.69 -0.79,-4.91 -2.39,-6.65 -1.61,-1.76 -3.8,-2.63 -6.64,-2.63 -4.78,0 -9.06,2.31 -12.79,6.96 -3.73,4.65 -5.97,10.45 -6.69,17.37l-4.93 0 0 -17.47zm34.19 17.17c-8.96,1.84 -16.22,5 -21.8,9.48 -5.57,4.48 -8.36,9.08 -8.36,13.78 0,2.99 0.92,5.41 2.79,7.2 1.86,1.79 4.3,2.68 7.31,2.68 5.58,0 10.28,-2.93 14.14,-8.83 3.85,-5.87 5.82,-13.98 5.92,-24.31zm54.31 -59.57c-1.99,1.02 -2.98,2.79 -2.98,5.33l0 79.92c0,4.33 0.87,7.29 2.64,8.91 1.76,1.64 4.55,2.48 8.41,2.58l0 3.44 -33.45 0 0 -3.44c3.99,-0.1 6.85,-0.97 8.59,-2.66 1.74,-1.67 2.61,-4.6 2.61,-8.83l0 -69.4c0,-4.48 -1.84,-6.71 -5.52,-6.71 -1.54,0 -3.43,0.39 -5.68,1.17l0 -3.44 25.38 -9.85 0 2.98zm21.65 77.63c0.4,6.33 2.19,11.25 5.45,14.76 3.24,3.51 7.12,5.25 11.65,5.25 3.73,0 6.79,-1.14 9.18,-3.43 2.39,-2.27 3.58,-5.15 3.58,-8.66 0,-3.11 -0.9,-5.73 -2.69,-7.87 -1.86,-2.09 -5.47,-4.82 -10.9,-8.23 -3.83,-2.44 -7.34,-4.7 -10.5,-6.82 -3.16,-2.11 -5.34,-4.25 -6.56,-6.44 -1.27,-2.19 -1.9,-4.41 -1.9,-6.7 0,-4.7 2.19,-8.9 6.55,-12.61 4.35,-3.68 10.15,-5.53 17.34,-5.53 4.46,0 9.21,0.98 14.33,2.92l0 19.03 -5.22 0c-0.05,-5.37 -1.57,-9.68 -4.56,-12.91 -2.98,-3.24 -6.42,-4.85 -10.3,-4.85 -2.73,0 -4.87,0.87 -6.42,2.58 -1.54,1.72 -2.31,3.76 -2.31,6.07 0,2.64 0.87,4.91 2.64,6.8 1.69,1.94 5.15,4.5 10.3,7.71 8.88,5.6 14.46,9.53 16.69,11.79 2.24,2.34 3.36,5.43 3.36,9.26 0,6.07 -2.68,11.35 -8.06,15.82 -5.37,4.46 -11.57,6.7 -18.56,6.7 -5.2,0 -11.2,-1.47 -18.01,-4.38l0 -20.26 4.92 0zm105.8 4.19c-10.82,13.63 -21.37,20.45 -31.68,20.45 -7.24,0 -13.61,-3.14 -19.13,-9.43 -5.55,-6.27 -8.31,-13.71 -8.31,-22.35 0,-9.95 3.28,-18.91 9.85,-26.87 6.57,-7.99 14.34,-11.97 23.24,-11.97 7.19,0 12.87,2.52 17.1,7.57 4.23,5.02 6.44,11.17 6.69,18.41l-46.88 0c-0.1,1.89 -0.15,3.28 -0.15,4.18 0,8.63 2.29,15.85 6.85,21.62 4.55,5.8 10.17,8.69 16.87,8.69 8.36,0 16.87,-5.03 25.55,-15.08l0 4.78zm-14.18 -27.62c-0.58,-5.68 -2.39,-10.08 -5.45,-13.22 -3.06,-3.13 -6.67,-4.7 -10.83,-4.7 -4.35,0 -8.26,1.69 -11.69,5.1 -3.43,3.39 -5.55,7.67 -6.32,12.82l34.29 0zm46.95 -54.2c-1.99,1.02 -2.99,2.79 -2.99,5.33l0 79.92c0,4.33 0.87,7.29 2.64,8.91 1.77,1.64 4.55,2.48 8.41,2.58l0 3.44 -33.44 0 0 -3.44c3.98,-0.1 6.84,-0.97 8.58,-2.66 1.74,-1.67 2.62,-4.6 2.62,-8.83l0 -69.4c0,-4.48 -1.85,-6.71 -5.53,-6.71 -1.54,0 -3.43,0.39 -5.67,1.17l0 -3.44 25.38 -9.85 0 2.98z"/>
  <path class="fil2" d="M409.41 131.34l-8.71 -1.65 -8.71 -1.64 -8.37 2.93 -8.37 2.93 -5.78 6.72 -5.78 6.72 -1.64 8.71 -1.65 8.71 2.93 8.37 2.93 8.37 6.72 5.78 6.72 5.78 8.71 1.65 8.72 1.64 8.36 -2.93 8.37 -2.93 5.78 -6.72 5.78 -6.72 1.65 -8.71 1.64 -8.72 -2.93 -8.36 -2.93 -8.37 -6.72 -5.78 -6.72 -5.78zm1.15 8.98l-5.87 -0.33 -5.88 -0.33 -4.39 3.93 -4.39 3.92 -0.33 5.88 -0.32 5.87 3.92 4.39 3.92 4.39 5.88 0.33 5.88 0.33 4.38 -3.93 4.39 -3.92 0.33 -5.88 0.33 -5.88 -3.92 -4.38 -3.93 -4.39z"/>
  <path class="fil2" d="M395.56 0l12.92 3.46 12.93 3.47 9.46 9.46 9.46 9.46 3.47 12.92 3.46 12.93 -3.46 12.92 -3.47 12.93 -9.46 9.46 -9.46 9.46 -12.93 3.47 -12.92 3.46 -12.93 -3.46 -12.92 -3.47 -9.46 -9.46 -9.46 -9.46 -3.47 -12.93 -3.46 -12.92 3.46 -12.93 3.47 -12.92 9.46 -9.46 9.46 -9.46 12.92 -3.47 12.93 -3.46zm-7.44 11.46l8.2 3.4 8.21 3.4 3.4 8.21 3.4 8.21 -3.4 8.2 -3.4 8.21 -8.21 3.4 -8.2 3.4 -8.21 -3.4 -8.21 -3.4 -3.4 -8.21 -3.4 -8.2 3.4 -8.21 3.4 -8.21 8.21 -3.4 8.21 -3.4z"/>
  <path class="fil2" d="M361.64 214.85l-1.85 -4.23 -1.85 -4.22 -3.71 -2.74 -3.71 -2.73 -4.59 -0.51 -4.58 -0.52 -4.23 1.85 -4.22 1.85 -2.74 3.71 -2.73 3.72 -0.52 4.58 -0.51 4.58 1.85 4.23 1.85 4.22 3.71 2.74 3.71 2.74 4.59 0.51 4.58 0.51 4.23 -1.85 4.22 -1.85 2.74 -3.71 2.73 -3.71 0.52 -4.59 0.51 -4.58zm-3.52 3.13l-1.59 -2.62 -1.58 -2.62 -2.97 -0.74 -2.97 -0.73 -2.63 1.58 -2.62 1.58 -0.73 2.98 -0.74 2.97 1.59 2.62 1.58 2.62 2.97 0.74 2.97 0.73 2.63 -1.58 2.62 -1.58 0.73 -2.98 0.74 -2.97z"/>
  <path class="fil3" style="mask:url(#id0)" d="M358.2 207l-0.26 -0.6 -3.71 -2.74 -3.71 -2.73 -4.59 -0.51 -4.58 -0.52 -4.23 1.85 -4.22 1.85 -2.74 3.72 -0.38 0.51c9.61,-0.3 19.08,-0.58 28.42,-0.83zm-333.87 -74.52l0 2.99c-1.39,0.77 -2.09,2.06 -2.09,3.85l0 49.99c9.14,-10.48 15.58,-16.87 19.31,-19.19 3.73,-2.31 7.54,-3.45 11.42,-3.45 6.22,0 11.2,2.46 14.91,7.39 3.7,4.92 5.57,11.19 5.57,18.83 0,6.4 -1.37,12.62 -4.08,18.66 -1.33,2.97 -2.86,5.67 -4.58,8.11l-6.84 0.37c0.87,-1.46 1.61,-3.07 2.21,-4.84 1.5,-4.36 2.24,-9.33 2.24,-14.91 0,-7.21 -1.39,-12.99 -4.18,-17.29 -2.81,-4.31 -6.66,-6.47 -11.57,-6.47 -6.32,0 -12.09,3.63 -17.31,10.9 -5.23,7.26 -7.84,15.95 -7.84,26.02 0,2.6 0.22,5.45 0.66,8.58l-11.11 0.63 0 -71.98c0,-4.28 -1.62,-6.42 -4.88,-6.42 -1.49,0 -3.56,0.54 -6.17,1.67l0 -3.44 24.33 -10zm252.13 77.19c-4.45,0.17 -8.93,0.34 -13.45,0.52l-8.27 -10.48 0 10.81 -11.2 0.46 0 -58.87c0,-5.2 -1.74,-7.81 -5.22,-7.81 -1.42,0 -3.36,0.4 -5.82,1.17l0 -3.44 25.23 -9.85 0 2.99c-1.99,0.62 -2.99,2.09 -2.99,4.38l0 60.16 12.76 -10.58 0.68 -0.72 3.28 -2.91c3.63,-3.18 5.45,-6.12 5.45,-8.83 0,-2.99 -2.91,-4.53 -8.73,-4.63l0 -3.43 34.16 0 0 3.43c-6.1,0.1 -13.49,3.78 -22.25,11.05l-14.88 12.34 11.25 14.24zm-61.76 2.54l-11.19 0.5 0 -29.32c0,-2.52 -0.65,-4.56 -1.97,-6.07 -1.32,-1.52 -3.01,-2.29 -5.1,-2.29 -6.14,0 -11.84,4.33 -17.12,12.98 -4.7,7.72 -7.31,16.45 -7.82,26.18l-10.24 0.5 0 -31.45c0,-5 -1.59,-7.49 -4.8,-7.49 -1.15,0 -3.24,0.6 -6.25,1.81l0 -3.43 18.89 -7.61 3.06 0 0 24.08c7.01,-9.38 12.79,-15.72 17.31,-19.08 4.53,-3.34 8.84,-5 12.89,-5 8.24,0 12.34,5.25 12.34,15.77l0 29.92zm-82.53 3.91l-15.1 0.77c3.02,-5.64 4.56,-13.04 4.65,-22.16 -8.95,1.84 -16.22,5 -21.8,9.48 -5.57,4.48 -8.36,9.09 -8.36,13.79l0.01 0.22 -10.41 0.56c2.98,-9.38 16.25,-19.39 39.81,-30.02l0 -8.78c0,-2.69 -0.79,-4.9 -2.38,-6.64 -1.62,-1.77 -3.81,-2.64 -6.65,-2.64 -4.77,0 -9.05,2.31 -12.79,6.96 -3.73,4.66 -5.97,10.45 -6.69,17.37l-4.93 0 0 -17.47c11.2,-7.36 21.75,-11.04 31.63,-11.04 4.63,0 7.96,1.02 10.03,3.06 2.04,2.04 3.03,5.5 2.98,10.35l0 36.19zm345.19 -13.87l0 2.65c-3.72,0.03 -7.46,0.06 -11.2,0.09l0 -50.34c0,-5.2 -1.74,-7.81 -5.23,-7.81 -1.41,0 -3.36,0.39 -5.82,1.17l0 -3.44 25.23 -9.85 0 2.98c-1.99,0.63 -2.98,2.09 -2.98,4.38l0 60.17 12.76 -10.58 0.67 -0.72 3.29 -2.91c3.63,-3.19 5.45,-6.12 5.45,-8.83 0,-2.99 -2.92,-4.53 -8.74,-4.63l0 -3.43 34.16 0 0 3.43c-6.09,0.1 -13.48,3.78 -22.24,11.05l-14.88 12.34 5.41 6.85c-4.58,0.02 -9.18,0.04 -13.8,0.07l-2.08 -2.64zm305.59 9.36l-11.19 -0.51 0 -57.55c0,-4.48 -1.85,-6.71 -5.53,-6.71 -1.54,0 -3.43,0.39 -5.67,1.17l0 -3.44 25.38 -9.85 0 2.98c-1.99,1.02 -2.99,2.79 -2.99,5.33l0 68.58zm-78.14 -3.23c-3.59,-0.13 -7.18,-0.26 -10.76,-0.38 0.04,-9.87 3.33,-18.77 9.85,-26.68 6.57,-7.99 14.33,-11.97 23.24,-11.97 7.19,0 12.87,2.52 17.1,7.57 4.23,5.02 6.44,11.17 6.69,18.41l-46.88 0c-0.1,1.89 -0.15,3.29 -0.15,4.18 0,3.15 0.31,6.1 0.91,8.87zm-21.67 -0.74c-6.59,-0.22 -13.15,-0.42 -19.69,-0.61 -3.75,-2.4 -7.2,-4.62 -10.31,-6.7 -3.16,-2.11 -5.34,-4.25 -6.56,-6.44 -1.27,-2.19 -1.9,-4.41 -1.9,-6.7 0,-4.7 2.19,-8.9 6.55,-12.61 4.35,-3.68 10.15,-5.53 17.34,-5.53 4.46,0 9.21,0.98 14.33,2.92l0 19.03 -5.22 0c-0.05,-5.37 -1.57,-9.68 -4.56,-12.91 -2.98,-3.24 -6.42,-4.85 -10.3,-4.85 -2.73,0 -4.87,0.87 -6.42,2.58 -1.54,1.72 -2.31,3.76 -2.31,6.07 0,2.64 0.87,4.91 2.64,6.8 1.69,1.94 5.15,4.5 10.3,7.71 8.19,5.16 13.57,8.91 16.11,11.24zm-60.4 -1.65c-3.74,-0.09 -7.47,-0.16 -11.2,-0.24l0 -52.2c0,-4.48 -1.84,-6.71 -5.52,-6.71 -1.54,0 -3.43,0.39 -5.68,1.17l0 -3.44 25.38 -9.85 0 2.98c-1.99,1.02 -2.98,2.79 -2.98,5.33l0 62.96zm-40.88 -0.73c-3.64,-0.05 -7.29,-0.1 -10.94,-0.14 0.3,-2.46 0.46,-5.07 0.49,-7.85 -7.7,1.58 -14.14,4.14 -19.34,7.66l-6.42 -0.04c6.37,-4.41 14.7,-8.94 25.01,-13.59l0 -8.78c0,-2.69 -0.79,-4.91 -2.39,-6.65 -1.61,-1.76 -3.8,-2.63 -6.64,-2.63 -4.78,0 -9.06,2.31 -12.79,6.96 -3.73,4.65 -5.97,10.45 -6.69,17.37l-4.93 0 0 -17.47c11.2,-7.36 21.75,-11.05 31.63,-11.05 4.62,0 7.96,1.03 10.02,3.07 2.04,2.04 3.04,5.49 2.99,10.35l0 22.79zm157.13 -13.36c-0.58,-5.68 -2.39,-10.08 -5.45,-13.22 -3.06,-3.13 -6.67,-4.7 -10.83,-4.7 -4.35,0 -8.26,1.69 -11.69,5.1 -3.43,3.39 -5.55,7.67 -6.32,12.82l34.29 0zm-329.58 -60.56l-8.71 -1.65 -8.71 -1.64 -8.37 2.93 -8.36 2.93 -5.79 6.72 -5.78 6.72 -1.64 8.71 -1.65 8.71 2.93 8.37 2.93 8.37 6.72 5.78 6.72 5.78 8.71 1.64 8.72 1.65 8.36 -2.93 8.37 -2.93 5.78 -6.72 5.78 -6.73 1.65 -8.7 1.64 -8.72 -2.93 -8.36 -2.93 -8.37 -6.72 -5.78 -6.72 -5.78zm1.15 8.98l-5.88 -0.33 -5.87 -0.33 -4.39 3.93 -4.39 3.92 -0.33 5.88 -0.33 5.87 3.93 4.39 3.92 4.39 5.88 0.33 5.88 0.33 4.38 -3.93 4.39 -3.92 0.33 -5.88 0.33 -5.88 -3.92 -4.38 -3.93 -4.39z"/>
 </g>
</svg>
