<?xml version="1.0" encoding="UTF-8"?>
<!DOCTYPE svg PUBLIC "-//W3C//DTD SVG 1.1//EN" "http://www.w3.org/Graphics/SVG/1.1/DTD/svg11.dtd">
<!-- Creator: CorelDRAW X7 -->
<svg xmlns="http://www.w3.org/2000/svg" xml:space="preserve" width="20cm" height="8cm" version="1.1" style="shape-rendering:geometricPrecision; text-rendering:geometricPrecision; image-rendering:optimizeQuality; fill-rule:evenodd; clip-rule:evenodd"
viewBox="0 0 20000 8000"
 xmlns:xlink="http://www.w3.org/1999/xlink">
 <defs>
  <style type="text/css">
   <![CDATA[
    .fil1 {fill:black}
    .fil0 {fill:#FFBC00}
   ]]>
  </style>
 </defs>
 <g id="Layer_x0020_1">
  <metadata id="CorelCorpID_0Corel-Layer"/>
  <rect class="fil0" width="20000" height="8000"/>
  <path class="fil1" d="M5023 5029l566 0c0,-180 164,-1179 164,-1413 27,20 122,310 137,346 22,55 44,120 63,175l320 892 374 0 184 -527c18,-56 42,-123 65,-181 34,-86 229,-667 262,-705 0,64 13,114 18,173 5,63 13,113 21,180 14,110 30,235 47,354l87 706c64,0 90,9 156,9l392 0 -35 -266c-10,-93 -24,-181 -35,-265l-222 -1602 -666 0c-33,0 -49,87 -70,149l-365 1058c-13,39 -11,58 -39,78 -4,-39 -35,-119 -49,-160l-272 -805c-17,-50 -36,-107 -52,-157 -19,-56 -43,-108 -56,-163l-684 0 -311 2124z"/>
  <path class="fil1" d="M12468 4683c-101,0 -102,5 -201,-18l0 -839c98,-23 255,-33 347,9 23,10 37,17 57,34 7,5 19,16 24,21 126,122 134,401 84,548 -19,58 -26,76 -62,120 -56,70 -151,125 -249,125zm-794 273c115,27 166,57 319,82 160,27 314,41 475,28 42,-3 72,1 113,-5 77,-12 133,-18 203,-35 94,-24 250,-81 329,-145 80,-66 112,-99 166,-189 6,-10 15,-25 20,-35 8,-15 13,-27 20,-44 112,-238 114,-490 26,-734 -25,-70 -68,-133 -112,-189 -18,-23 -24,-33 -47,-54 -252,-231 -595,-241 -919,-166l0 -748 -593 0 0 2234z"/>
  <path class="fil1" d="M17194 2777l0 2280 583 0 0 -766 442 570c52,66 106,128 152,196l629 0c-44,-83 -248,-353 -305,-425 -36,-47 -318,-399 -315,-423 19,-36 43,-61 70,-94 165,-206 359,-429 504,-645 -152,0 -304,0 -456,0 -159,0 -178,-29 -236,47 -9,12 -13,16 -24,30 -22,28 -33,37 -54,65l-195 261c-45,56 -152,205 -212,244l0 -1212c1,-31 1,-62 1,-92 1,-34 7,-63 -28,-63l-529 0c-21,0 -27,6 -27,27z"/>
  <path class="fil1" d="M10579 4546l-97 -268c-33,-99 -63,-181 -95,-278l-191 -548 -638 0c25,110 519,1151 615,1382 93,226 113,156 61,269 -55,118 -242,486 -248,555l621 0c2,-30 98,-232 118,-273 22,-44 41,-91 62,-140l122 -269c73,-181 219,-486 309,-685l365 -839c-214,0 -397,-9 -611,-9 -36,0 -44,53 -65,117l-281 841c-16,48 -36,97 -47,145z"/>
  <path class="fil1" d="M15314 3525c0,461 7,972 0,1432 -1,39 -9,72 28,72l538 0c42,0 27,-73 27,-118l0 -1076c107,-51 443,-79 465,110l10 1084 593 0 0 -757c0,-118 -10,-209 -9,-319 1,-307 -209,-464 -485,-519 -294,-58 -798,-34 -1099,68 -27,9 -38,16 -68,23z"/>
  <path class="fil1" d="M14019 4528c0,-189 298,-199 438,-201 45,0 47,-6 82,-9 0,97 -1,195 0,292 1,96 49,109 -228,109 -141,0 -292,-55 -292,-191zm-456 -1003c1,7 141,328 155,328 90,0 830,-267 830,109l0 37c-71,0 -108,9 -183,9 -119,-1 -413,47 -516,86 -114,43 -229,100 -301,191 -94,121 -86,164 -86,325 0,215 226,358 423,407 264,64 480,62 762,39 109,-9 242,-34 347,-64l110 -36 0 -857c1,-279 -19,-459 -265,-601 -276,-161 -803,-100 -1107,-23 -61,16 -114,37 -169,50z"/>
  <path class="fil1" d="M8499 4510c0,-186 402,-201 539,-201l0 401c-112,0 -277,58 -435,-31 -66,-37 -104,-70 -104,-169zm-438 -985c8,32 125,328 146,328l262 -57c198,-38 569,-111 569,176l0 36c-208,0 -499,34 -658,81 -102,30 -181,61 -258,117 -263,192 -224,556 36,727 293,192 926,141 1276,73 56,-11 113,-37 160,-41 0,-95 6,-896 -5,-970 -7,-47 0,-92 -8,-139 -55,-342 -344,-450 -671,-450 -282,0 -426,0 -703,73 -51,13 -95,34 -146,46z"/>
  <path class="fil1" d="M1155 4026c0,-357 47,-586 221,-873 28,-46 46,-72 78,-114 65,-87 130,-166 212,-235 1,-1 4,-2 5,-4l64 -54c360,-281 668,-361 1126,-361 401,0 791,204 1052,463 65,65 115,131 169,204 59,80 128,211 169,306l70 221c111,459 26,1000 -245,1370l-125 148c-20,22 12,-12 -9,10 -66,71 -192,172 -269,223 -78,52 -160,100 -253,140 -844,364 -1743,10 -2116,-790 -74,-160 -149,-425 -149,-654zm-155 -118l0 209c0,351 146,691 339,947 179,239 435,441 735,561 599,238 1255,163 1766,-219 311,-233 543,-563 645,-969 121,-480 30,-930 -182,-1323 -178,-327 -513,-619 -864,-759 -141,-56 -342,-116 -532,-116l-265 0c-239,0 -491,86 -654,167 -95,48 -178,91 -260,151 -81,60 -158,120 -229,190 -128,129 -269,319 -340,490 -78,186 -159,412 -159,671z"/>
  <path class="fil1" d="M2113 4674c40,9 38,23 82,27 -15,23 -15,28 -45,36 -31,-22 -21,-30 -37,-63zm-201 -256c15,-20 7,-8 23,-23 25,-22 2,-12 32,-22 7,15 18,95 18,118 -43,-23 -50,-29 -73,-73zm557 -27c46,0 41,8 82,9 -4,52 -19,87 -53,111l-102 62c0,-115 31,-68 63,-73 31,-5 30,-6 27,-42 -1,-8 -13,-58 -17,-67zm-912 -429c0,56 45,33 45,119 -51,-4 -77,-46 -99,-74 -13,-16 -17,-19 -29,-35 34,-50 48,-64 128,-64 -19,26 -45,22 -45,54zm2518 -82c0,142 -39,459 -110,511 0,-108 -82,-333 -82,-620 -99,66 -86,270 -97,341 -19,126 119,637 -314,926 21,-86 41,-76 68,-251 16,-99 14,-202 14,-314 60,16 14,39 73,55 60,-113 39,-348 18,-473 -8,-47 -32,-105 -36,-147 61,5 55,41 110,45 1,-51 18,-67 -11,-171 -38,-142 -200,-295 -299,-303 5,66 77,158 109,219 15,27 23,54 36,82 -72,-17 -74,-27 -173,-27 12,50 121,195 151,396 25,164 4,83 4,169 -69,-37 -79,-73 -191,-73 62,119 102,359 44,510l-26 46c0,-51 -11,-122 -64,-136 -11,23 -7,33 -33,85 -42,81 -120,150 -204,170 13,-50 106,-179 -13,-325 -62,-77 -139,-76 -215,-76 -158,0 -246,198 -291,320 -53,143 -24,126 -138,126 -195,0 -264,-244 -91,-255 236,-15 374,-255 374,-255 0,-52 -8,-101 -21,-143 -47,-142 -173,-204 -335,-204 -237,0 -298,237 -511,237 -111,0 -182,-99 -182,-228 0,-42 36,-83 54,-109 35,-48 37,-55 37,-137 -32,-7 -25,-11 -64,-18 -56,-11 -97,-14 -155,1 -32,8 -29,14 -64,17 5,-21 9,-27 9,-54 -67,5 -142,141 21,289 55,50 45,14 83,108 25,61 68,133 118,174 46,40 67,43 134,58 67,16 125,136 237,146 0,-160 -49,-231 66,-300 104,-62 286,-81 317,35 -120,81 -108,212 -189,285 -75,66 -151,-11 -185,-20 0,190 34,303 146,383 102,73 245,109 420,109 0,-181 72,-465 237,-465 46,0 76,-4 107,39 133,181 -190,387 -106,415 79,27 365,-88 382,-89 0,125 -110,272 -173,392 276,0 606,-240 778,-453 94,-117 170,-239 231,-390 113,-280 137,-601 58,-899 -12,-46 -30,-105 -49,-151 -17,-44 -50,-98 -60,-141l-18 0c1,41 15,79 23,123 24,136 41,275 41,415z"/>
  <path class="fil1" d="M2752 2786c-99,-23 -104,-116 -219,-118 -6,72 -19,33 -19,173 -57,38 -99,50 -166,79 -60,26 -111,50 -168,79 -267,132 -246,282 -289,322 -48,44 -167,76 -327,294 -24,33 -86,121 -90,165 34,-9 48,-34 71,-57 28,-29 46,-38 73,-64 51,-47 86,-86 144,-129 52,-39 105,-81 162,-112 126,-66 57,-19 125,-149 111,-213 471,-329 703,-383 -7,27 -9,28 -9,64 179,-4 95,-328 228,-328 31,0 111,86 127,109 107,149 168,450 149,491 -13,27 -11,2 -39,2 -35,0 -4,-3 -28,9 4,41 54,80 86,106 60,46 91,58 170,58 64,0 64,-54 64,-118 56,13 171,122 206,167 54,70 100,155 122,252l18 0c0,-119 38,-214 -33,-395 -41,-104 -41,-90 -94,-170 78,6 107,41 164,54 -7,-78 -138,-167 -205,-196 -375,-168 -264,-151 -463,-348 -62,-62 -137,-158 -254,-158 -78,0 -114,63 -135,120 -38,100 -17,73 -74,181z"/>
  <path class="fil1" d="M2651 3680c-156,-75 -196,134 -292,155 -167,37 -141,-183 -301,-183 -43,0 -36,18 -73,28l0 18c59,0 75,13 110,36 0,94 -6,265 146,265 90,0 146,-81 262,39 158,162 99,-39 64,-82 -27,-33 -61,-47 -80,-76 48,-11 81,-41 133,-6 85,58 113,341 113,453l19 0c33,-145 73,-89 73,-319 0,-133 -199,-264 -13,-533 65,-95 135,-109 159,-142 -128,-61 -228,-58 -285,99 -27,76 -35,143 -35,248z"/>
  <path class="fil1" d="M3062 3452c0,303 -318,464 -60,817 49,66 103,152 105,259 56,-15 101,-111 101,-183 0,-125 -51,-230 -87,-341 -11,-32 -21,-93 -32,-115 39,4 19,-1 84,53 40,34 45,27 90,48 -1,-38 -37,-138 -45,-211 -8,-78 -14,-162 -26,-230 -12,-71 -25,-147 -54,-201 -28,-52 -75,-104 -149,-106 30,57 73,123 73,210z"/>
  <path class="fil1" d="M2378 3397l0 0zm9 -9l-9 9 9 -9zm0 0l0 -55 36 0c-7,26 -18,42 -36,55zm328 -328c-17,26 -77,61 -107,84 -37,26 -73,68 -84,116 -132,0 -167,28 -247,28 -54,0 -54,-18 -91,-28 -53,111 27,64 27,137 0,35 -25,63 -36,93 -21,58 6,42 18,89l28 0c7,-33 55,-109 91,-109 45,0 36,18 87,-12 33,-20 43,-34 77,-52 -9,107 -160,227 -283,237 38,52 150,46 219,46 52,0 158,-224 192,-282 20,-35 50,-61 54,-110 -25,-12 -17,-9 -54,-9 23,-33 88,-59 131,-78 68,-31 124,-57 124,-114 0,-82 -98,-100 -182,-100 13,38 25,14 36,64z"/>
  <path class="fil1" d="M2925 3014c30,8 31,18 55,37l107 84c26,23 25,35 48,52 0,-113 -17,-335 -155,-346 -13,49 -55,63 -55,173z"/>
  <path class="fil1" d="M2031 4108c60,0 54,21 91,46 20,-42 46,-164 -45,-164 -114,0 -234,83 -264,194 -40,142 112,-76 218,-76z"/>
  <path class="fil1" d="M2213 3215c44,-4 61,-25 99,-38 31,-10 72,-19 109,-28 238,-58 207,-162 66,-162 -27,102 -201,91 -274,228z"/>
  <path class="fil1" d="M1775 4127c29,-21 104,-215 283,-219 -7,-27 -3,-23 -27,-37 -108,-64 -256,85 -256,256z"/>
  <path class="fil1" d="M1794 3899c53,-15 -2,-15 89,-75 50,-33 83,-44 93,-80 -33,-17 -97,8 -124,30 -33,27 -54,73 -58,125z"/>
 </g>
</svg>
