<?xml version="1.0" encoding="UTF-8"?>
<!DOCTYPE svg PUBLIC "-//W3C//DTD SVG 1.1//EN" "http://www.w3.org/Graphics/SVG/1.1/DTD/svg11.dtd">
<!-- Creator: CorelDRAW X5 -->
<svg xmlns="http://www.w3.org/2000/svg" xml:space="preserve" width="210mm" height="119.292mm" style="shape-rendering:geometricPrecision; text-rendering:geometricPrecision; image-rendering:optimizeQuality; fill-rule:evenodd; clip-rule:evenodd"
viewBox="0 0 21000 11929"
 xmlns:xlink="http://www.w3.org/1999/xlink">
 <defs>
  <style type="text/css">
   <![CDATA[
    .fil0 {fill:#332C2B}
    .fil3 {fill:#474443}
    .fil5 {fill:#A1A1A1}
    .fil1 {fill:#DF5A27}
    .fil4 {fill:#F3A153}
    .fil2 {fill:#FBC800}
   ]]>
  </style>
 </defs>
 <g id="Layer_x0020_1">
  <metadata id="CorelCorpID_0Corel-Layer"/>
  <path class="fil0" d="M358 11608l675 0c149,0 259,-11 330,-33 102,-32 180,-85 234,-159 53,-74 80,-166 80,-278 0,-103 -26,-190 -77,-261 -51,-71 -120,-123 -207,-156 -87,-33 -222,-49 -408,-49l-628 0 0 937zm0 -1259l587 0c154,0 263,-9 327,-26 93,-26 165,-70 216,-131 50,-61 76,-145 76,-250 0,-98 -23,-179 -69,-245 -46,-65 -107,-110 -183,-135 -76,-25 -213,-37 -410,-37l-544 0 0 824zm-358 1580l0 -2725 1018 0c206,0 369,26 490,79 120,53 219,135 296,246 77,112 115,235 115,370 0,125 -33,238 -99,338 -66,100 -159,181 -279,242 157,47 281,127 371,241 91,113 136,253 136,419 0,165 -41,310 -123,434 -82,125 -191,215 -328,272 -137,56 -325,85 -563,85l-1032 0z"/>
  <path class="fil0" d="M3018 10810l923 0 -282 -755c-87,-232 -151,-420 -192,-565 -35,175 -85,348 -148,521l-301 799zm-777 1119l1045 -2725 383 0 1110 2725 -410 0 -315 -825 -1140 0 -295 825 -378 0z"/>
  <polygon class="fil0" points="5051,11929 5051,9204 5419,9204 6843,11348 6843,9204 7186,9204 7186,11929 6818,11929 5396,9785 5396,11929 "/>
  <polygon class="fil0" points="7781,11929 7781,9204 8139,9204 8139,10555 9485,9204 9972,9204 8834,10309 10021,11929 9548,11929 8585,10551 8139,10985 8139,11929 "/>
  <polygon class="fil0" points="12282,9204 11836,10373 11389,9204 10583,9204 10583,11929 10897,11929 11084,11929 11206,11929 11206,10300 11611,11444 11822,11444 11850,11444 12060,11444 12465,10300 12465,11929 12588,11929 12775,11929 13089,11929 13089,9204 "/>
  <polygon class="fil0" points="15708,9874 15708,9204 15659,9204 13967,9204 13739,9204 13739,9514 13739,11616 13739,11929 14314,11929 15708,11929 15708,11470 15708,11300 14422,11300 14422,10881 15487,10881 15487,10252 14422,10252 14422,9874 "/>
  <path class="fil0" d="M17141 9774c182,0 334,130 369,304l744 0 0 -260c0,-402 -471,-728 -1053,-728 -581,0 -1053,326 -1053,728l0 157 0 1226c0,301 264,559 640,670 127,37 266,58 413,58 156,0 303,-24 436,-66 364,-115 616,-368 616,-663l0 -913 -1116 0 0 614c0,0 366,0 378,0 12,0 -40,146 -47,158 -28,50 -66,93 -112,126 -244,173 -593,-11 -593,-311 0,0 0,-721 0,-721 0,-210 169,-380 377,-380z"/>
  <path class="fil0" d="M19511 10977l32 -96 213 -629 6 -16 6 16 213 629 32 96 -502 0zm1380 629l-104 -306 -110 -323 -32 -96 -213 -629 -128 -378 -210 -619 -17 -52 -629 0 -17 52 -210 619 -52 152 -645 1903 454 0 210 0 110 -323 929 0 110 323 664 0 -110 -323z"/>
  <path class="fil1" d="M9020 6139c-1,-3 -2,-6 -3,-9 0,-1 -1,-2 -1,-3 -1,-5 -2,-9 -4,-14l-7 0 18 39c-1,-5 -3,-9 -4,-14z"/>
  <polygon class="fil2" points="9577,0 6203,0 6201,5 3063,7183 6299,7183 7890,3701 9579,5 "/>
  <polygon class="fil3" points="14801,29 14797,18 11417,20 13112,3725 14701,7202 17937,7202 "/>
  <path class="fil1" d="M12033 5657c-1,-8 -1,-16 -2,-24 0,-1 0,-3 0,-4 0,-3 0,-6 -1,-10 -2,-28 -6,-56 -10,-83 0,-2 -1,-3 -1,-5 -4,-30 -10,-59 -17,-88 -1,-4 -2,-7 -3,-11 -5,-20 -10,-41 -16,-61 -45,-166 -114,-326 -188,-482 -135,-285 -269,-570 -404,-855l-897 -1941 -5 0 -897 1941c-135,285 -269,570 -404,855 -74,156 -143,316 -188,482 -6,20 -11,40 -16,61 -1,4 -2,8 -3,12 -6,29 -12,57 -16,87 0,2 -1,4 -1,6 -4,27 -8,55 -10,83 0,3 0,6 -1,9 0,1 0,3 0,4 -1,9 -1,17 -2,26 0,7 -1,15 -1,22 -1,17 -1,34 -1,52 0,29 1,59 3,88 0,7 1,15 2,22 2,25 5,49 8,73 1,5 1,10 2,15 9,61 22,120 39,179 0,1 0,2 1,3 1,3 2,6 3,9 1,5 3,9 4,14l138 296 91 143c16,21 33,42 51,63 6,7 12,13 18,20 19,21 38,42 58,62 5,5 10,10 15,15 20,19 40,37 60,55 4,4 9,8 13,12 22,19 46,37 69,55 6,4 11,8 17,13 24,18 49,34 74,51 6,4 12,8 19,12 26,16 52,31 78,46 6,3 12,6 18,10 28,15 56,29 85,42 4,2 9,4 13,6 30,13 60,26 91,37 2,1 3,1 5,2 32,12 64,22 97,32 5,1 9,3 14,4 32,9 64,17 96,25 6,1 12,3 17,4 32,7 65,13 98,18 6,1 11,2 17,2 34,5 68,9 103,11 4,0 8,0 13,1 36,2 73,4 110,4l0 0c1,0 1,0 2,0l0 0c1,0 1,0 2,0 0,0 0,0 0,0 37,0 74,-2 110,-4 4,0 8,0 13,-1 35,-3 69,-7 103,-11 6,-1 11,-2 17,-2 33,-5 66,-11 98,-18 6,-1 12,-2 17,-4 33,-7 65,-15 96,-25 5,-1 9,-3 14,-4 33,-10 65,-20 97,-32 1,-1 3,-1 4,-2 31,-12 61,-24 91,-38 4,-2 9,-4 13,-6 29,-13 57,-27 85,-42 6,-3 12,-6 18,-9 27,-15 53,-30 78,-46 6,-4 12,-8 18,-12 25,-16 50,-33 74,-51 6,-4 11,-8 16,-12 24,-18 47,-36 70,-55 4,-4 9,-8 13,-11 21,-18 41,-37 60,-56 5,-5 10,-10 15,-15 20,-20 40,-41 59,-62 6,-7 12,-13 18,-20 18,-21 35,-42 52,-64 6,-8 11,-15 17,-23 16,-22 32,-44 47,-67 5,-8 10,-16 15,-23 14,-22 27,-44 39,-66 3,-6 7,-13 10,-19l72 -157c6,-15 11,-30 16,-45 0,-1 1,-3 1,-4 5,-16 10,-31 15,-47 1,-3 2,-6 3,-9 0,-1 1,-2 1,-3 17,-58 30,-118 39,-178 1,-5 1,-10 2,-16 3,-24 6,-48 8,-73 1,-8 1,-15 2,-22 2,-29 3,-58 3,-88 0,-17 -1,-34 -1,-51 0,-8 -1,-16 -1,-25z"/>
  <path class="fil4" d="M9578 5l-1689 3696 783 1703 333 709 7 0c-15,-53 -27,-108 -35,-163 -1,-5 -1,-10 -2,-15 -3,-24 -6,-48 -8,-72 -1,-7 -1,-15 -2,-22 -2,-29 -3,-59 -3,-89 0,-1 0,-2 0,-3 0,-17 0,-34 1,-51 0,-7 1,-15 1,-22 1,-9 1,-17 2,-26 0,-1 0,-3 0,-4 0,-3 0,-6 1,-9 2,-28 6,-55 10,-82 0,-2 1,-4 1,-6 4,-29 10,-58 16,-86 1,-4 2,-8 3,-12 5,-20 10,-40 15,-60 45,-165 114,-324 188,-480 135,-284 269,-567 404,-851l887 -1965 -913 -2089z"/>
  <path class="fil5" d="M11410 5l1689 3696 -783 1703 -338 741c15,-53 25,-139 33,-194 1,-5 1,-10 2,-15 3,-24 6,-48 8,-72 1,-7 1,-15 2,-22 2,-29 3,-59 3,-89 0,-1 0,-2 0,-3 0,-17 0,-34 -1,-51 0,-7 -1,-15 -1,-22 -1,-9 -1,-17 -2,-26 0,-1 0,-3 0,-4 0,-3 0,-6 -1,-9 -2,-28 -6,-55 -10,-82 0,-2 -1,-4 -1,-6 -4,-29 -10,-58 -16,-86 -1,-4 -2,-8 -3,-12 -5,-20 -10,-40 -16,-60 -45,-166 -114,-324 -188,-480 -135,-284 -269,-567 -404,-851l-887 -1965 913 -2089z"/>
  <path class="fil1" d="M9024 6153c-1,-5 -3,-9 -4,-14 -1,-3 -2,-6 -3,-9 0,-1 -1,-2 -1,-3 -1,-5 -2,-9 -4,-14l-2 0 -5 0 18 39z"/>
 </g>
</svg>
