<?xml version="1.0" encoding="UTF-8"?>
<!DOCTYPE svg PUBLIC "-//W3C//DTD SVG 1.1//EN" "http://www.w3.org/Graphics/SVG/1.1/DTD/svg11.dtd">
<!-- Creator: CorelDRAW X5 -->
<svg xmlns="http://www.w3.org/2000/svg" xml:space="preserve" width="210mm" height="63.05mm" style="shape-rendering:geometricPrecision; text-rendering:geometricPrecision; image-rendering:optimizeQuality; fill-rule:evenodd; clip-rule:evenodd"
viewBox="0 0 21000 6305"
 xmlns:xlink="http://www.w3.org/1999/xlink">
 <defs>
  <style type="text/css">
   <![CDATA[
    .fil1 {fill:#B04B87}
    .fil0 {fill:#48B145}
   ]]>
  </style>
 </defs>
 <g id="Layer_x0020_1">
  <metadata id="CorelCorpID_0Corel-Layer"/>
  <path class="fil0" d="M1484 2175l363 -363 363 363 -363 363 -363 -363zm1678 -1330c-429,388 -710,519 -777,1014 -67,494 198,1501 198,1501 -204,0 -408,0 -611,0 0,0 411,483 552,509 145,13 258,10 258,10 172,383 233,902 133,1060 -51,153 -497,611 -1070,408 -573,-204 -1172,-535 -1274,-1299 -102,-764 268,-1119 599,-1501 -739,471 -1083,954 -1159,1565 -76,611 280,1210 675,1541 395,331 1006,573 1350,458 344,-115 968,-815 1146,-1210 13,-408 23,-1025 23,-1025 0,0 957,5 1310,-66 353,-71 831,-312 865,-826 35,-514 -381,-914 -937,-1127 262,324 265,657 155,923 -110,266 -219,394 -588,491 -369,96 -858,103 -955,-13 -51,-89 -319,-1559 108,-2412zm320 -178c229,-223 458,-445 687,-668 1504,1056 1818,1986 2013,2661 195,675 222,2303 -815,3054 -1037,750 -2316,585 -2828,550 223,-216 445,-432 668,-648 637,-25 1372,-122 2023,-786 651,-664 988,-1728 575,-2553 -412,-825 -1577,-1414 -2323,-1610zm712 3815l363 -363 363 363 -363 363 -363 -363zm-835 0l363 -363 363 363 -363 363 -363 -363z"/>
  <path class="fil1" d="M7019 489l0 185 203 0 0 1796 737 0c185,0 400,-28 550,-146 133,-105 182,-253 182,-418 0,-53 -8,-104 -23,-154 -15,-49 -39,-93 -70,-134 -32,-42 -71,-77 -116,-106 -50,-32 -106,-54 -164,-68l-81 -20 75 -36c81,-39 157,-93 209,-168 49,-71 68,-154 68,-240 0,-71 -14,-140 -47,-204 -32,-61 -77,-112 -132,-153 -63,-47 -136,-78 -211,-99 -91,-25 -187,-35 -281,-35l-899 0zm414 855l0 -671 458 0c73,0 151,4 222,19 53,11 108,30 153,61 39,27 70,63 89,107 20,46 27,95 27,144 0,104 -30,203 -119,263 -95,64 -235,77 -346,77l-484 0zm0 943l0 -762 485 0c85,0 174,4 257,22 60,12 121,33 172,69 44,31 77,72 96,123 20,53 27,111 27,167 0,303 -251,381 -512,381l-524 0zm6140 184l-601 -900 527 -517 -245 0 -454 499 -184 0 0 -30c0,-394 1,-787 1,-1181l-377 0 0 185 174 0 0 1944 202 0 0 -755 233 5 484 751 240 0zm-2693 -1417l-202 0 0 1 -188 0 0 185 188 0 0 1231 202 0 0 -1040 7 -8c108,-124 253,-246 427,-246 86,0 175,20 232,90 60,74 70,189 70,280l0 924 206 0 0 -937c0,-325 -135,-516 -473,-516 -77,0 -149,17 -218,51 -77,39 -143,96 -200,161l-52 60 0 -237zm-940 1417l203 0 0 -1 142 0 0 -185 -142 0 0 -738c0,-87 -8,-184 -40,-265 -24,-62 -59,-118 -111,-160 -51,-42 -112,-67 -177,-82 -80,-17 -163,-23 -244,-23 -130,0 -345,23 -444,120 -34,34 -68,66 -38,112 27,41 68,35 105,10 100,-68 243,-95 362,-95 68,0 149,5 214,28 48,18 92,45 120,89 27,41 41,89 44,138 4,57 6,114 6,171l0 30 -159 0c-333,0 -861,47 -861,489 0,57 11,111 36,162 24,49 56,90 98,124 45,36 95,63 150,81 61,21 125,29 189,29 187,0 359,-51 499,-178l50 -45 0 186zm-6 -341c-26,36 -56,68 -90,95 -35,28 -73,52 -113,72 -41,20 -84,35 -129,45 -44,10 -90,16 -135,16 -85,0 -172,-16 -243,-66 -67,-48 -98,-116 -98,-198 0,-305 373,-341 602,-341l212 0 0 368 -6 8z"/>
  <path class="fil1" d="M8981 4035l-570 1593 -300 0 -567 -1592 0 1592 -332 0 0 -2100 484 0 565 1640 571 -1640 484 0 0 2100 -334 0 0 -1593zm10808 1289l142 0 0 304 -142 0 0 1 -322 0 0 -116c-142,107 -308,152 -489,152 -70,0 -141,-10 -208,-32 -61,-21 -118,-51 -168,-92 -48,-40 -87,-88 -114,-144 -29,-59 -42,-122 -42,-188 0,-484 548,-549 921,-549l100 0c0,-46 -2,-91 -5,-137 -3,-39 -13,-77 -35,-110 -21,-33 -55,-53 -91,-66 -57,-21 -133,-24 -193,-24 -106,0 -239,23 -328,84 -65,45 -143,43 -189,-26 -48,-74 -10,-132 46,-187 112,-110 337,-137 486,-137 86,0 173,6 256,24 74,16 143,46 202,94 60,49 101,113 129,184 35,89 44,192 44,287l0 679zm-2506 0l142 0 0 304 -142 0 0 1 -322 0 0 -116c-142,107 -308,152 -489,152 -70,0 -141,-10 -208,-32 -61,-21 -118,-51 -168,-92 -48,-40 -87,-88 -114,-144 -29,-59 -42,-122 -42,-188 0,-484 548,-549 921,-549l100 0c0,-46 -2,-91 -5,-137 -3,-39 -13,-77 -35,-110 -21,-33 -55,-53 -91,-66 -57,-21 -133,-24 -193,-24 -106,0 -239,23 -328,84 -65,45 -143,43 -189,-26 -48,-74 -10,-132 46,-187 112,-110 337,-137 486,-137 86,0 173,6 257,24 74,16 143,46 202,94 60,49 101,113 129,184 35,89 44,192 44,287l0 679zm-3631 -1170c111,-115 247,-194 414,-194 227,0 395,89 476,292 10,-13 21,-27 32,-39 123,-138 273,-252 465,-252 391,0 531,261 531,623l0 1081 -325 0 0 -1066c0,-54 -3,-111 -15,-164 -8,-36 -21,-73 -44,-104 -19,-25 -42,-43 -72,-54 -36,-14 -76,-18 -114,-18 -162,0 -285,113 -374,237l0 1168 -355 0 0 -1066c0,-54 -3,-111 -15,-164 -8,-36 -21,-73 -44,-104 -19,-25 -42,-43 -72,-54 -36,-14 -76,-18 -114,-18 -162,0 -285,113 -374,237l0 1168 -322 0 0 -1337 -226 0 0 -325 226 0 0 -4 322 0 0 155zm-909 1170l142 0 0 304 -142 0 0 1 -322 0 0 -116c-142,107 -308,152 -489,152 -70,0 -141,-10 -208,-32 -61,-21 -118,-51 -168,-92 -48,-40 -87,-88 -114,-144 -29,-59 -42,-122 -42,-188 0,-484 548,-549 921,-549l100 0c0,-46 -2,-91 -5,-137 -3,-39 -13,-77 -35,-110 -21,-33 -55,-53 -91,-66 -57,-21 -133,-24 -193,-24 -106,0 -239,23 -328,84 -65,45 -143,43 -189,-26 -48,-74 -10,-132 46,-187 112,-110 337,-137 486,-137 86,0 173,6 256,24 74,16 143,46 202,94 60,49 101,113 129,184 35,89 44,192 44,287l0 679zm7631 -1040l-253 0 0 -263 253 0 0 -439 322 0 0 439 304 0 0 263 -304 0 0 893c0,38 1,81 9,118 4,19 11,43 23,59 8,10 17,18 30,22 16,5 34,7 51,7 22,0 44,-1 65,-3 21,-2 41,-4 62,-7l34 -5 0 256 -23 5c-64,15 -130,20 -195,20 -64,0 -138,-6 -198,-31 -49,-20 -90,-52 -118,-96 -30,-46 -45,-100 -51,-154 -8,-67 -11,-135 -11,-202l0 -881zm-2656 -584l-205 0 0 -304 526 0 0 1928 255 0 0 304 -576 0 0 -1928zm-7032 1785c-114,109 -250,179 -413,179 -371,0 -531,-218 -531,-575l0 -996 325 0 0 983c0,50 3,102 15,150 8,33 21,67 43,94 19,23 43,39 72,49 37,13 76,17 115,17 158,0 281,-99 374,-217l0 -1075 322 0 0 1229 226 0 0 303 -226 0 0 3 -322 0 0 -143zm8781 -284l0 -289 -153 0c-189,0 -542,20 -542,281 0,62 22,113 73,149 60,42 136,55 208,55 41,0 82,-5 122,-14 40,-9 79,-23 116,-41 36,-17 70,-39 101,-64 28,-22 52,-48 74,-76zm-2506 0l0 -289 -153 0c-189,0 -542,20 -542,281 0,62 22,113 73,149 60,42 136,55 208,55 41,0 82,-5 122,-14 40,-9 79,-23 116,-41 36,-17 70,-39 101,-64 28,-22 52,-48 74,-76zm-4541 0l0 -289 -153 0c-189,0 -542,20 -542,281 0,62 22,113 73,149 60,42 136,55 208,55 41,0 82,-5 122,-14 40,-9 79,-23 116,-41 36,-17 70,-39 101,-64 28,-22 52,-48 74,-76z"/>
 </g>
</svg>
