<?xml version="1.0" encoding="UTF-8"?>
<!DOCTYPE svg PUBLIC "-//W3C//DTD SVG 1.1//EN" "http://www.w3.org/Graphics/SVG/1.1/DTD/svg11.dtd">
<!-- Creator: CorelDRAW 2019 (64-Bit) -->
<svg xmlns="http://www.w3.org/2000/svg" xml:space="preserve" width="708px" height="240px" version="1.1" style="shape-rendering:geometricPrecision; text-rendering:geometricPrecision; image-rendering:optimizeQuality; fill-rule:evenodd; clip-rule:evenodd"
viewBox="0 0 708 239.9"
 xmlns:xlink="http://www.w3.org/1999/xlink"
 xmlns:xodm="http://www.corel.com/coreldraw/odm/2003">
 <defs>
  <style type="text/css">
   <![CDATA[
    .fil4 {fill:#332C2B}
    .fil3 {fill:#FFF000}
    .fil2 {fill:#E62129}
    .fil0 {fill:#6579B3}
    .fil1 {fill:#332C2B;fill-rule:nonzero}
   ]]>
  </style>
 </defs>
 <g id="Layer_x0020_1">
  <metadata id="CorelCorpID_0Corel-Layer"/>
  <path class="fil0" d="M303.09 137.35l-0.38 0.29 -8.23 7.41c-7.91,6.16 -13,11.21 -22.16,17.61 -9.79,6.85 -17.48,12.81 -28.45,18.92l-16.08 8.04c-12.22,5.7 -35.02,14.03 -51.4,6.42 -13.67,-6.34 -14.82,-19.9 -14.9,-32.93 -0.03,-5.62 1.4,-9.58 1.8,-14.3 -3.46,2.35 -9.43,31.64 -9.76,34.93 -2.07,20.56 1.98,37.21 17.29,47.81 12.92,8.96 30.49,9.22 45.65,7.53 3.37,-0.37 6.34,-0.86 9.64,-1.52 16.92,-3.39 33.27,-10.02 48.01,-17.69 1.32,-0.69 1.94,-1.2 3.41,-1.95 4.92,-2.49 6.15,-3.51 10.74,-6.24 4.3,-2.56 15.16,-10 19.26,-13.37l20.42 -18.01c2.31,-2.8 5.78,-5.75 8.59,-8.86l3.17 -3.55 9.74 -12.12c1.72,-2.2 3.12,-4.32 4.66,-6.51 6.65,-9.43 7.91,-11.21 13.59,-20.82l8.07 -14.71c1.36,-2.7 2.21,-4.96 3.51,-7.67 1.21,-2.53 2.45,-5.36 3.36,-7.81 10.2,-27.47 17.37,-65.03 -6.52,-88.09 -5.33,-5.15 -15.99,-9.55 -23.82,-10.14l-0.24 -0.02 -12.82 0c-12.26,0.89 -23.83,4.26 -35.06,9.06 -5.3,2.26 -10.41,4.59 -15.34,7.46 -3.12,1.81 -12.75,6.42 -14.28,8.51 1.6,-0.49 1.6,-0.42 3,-1.02 16.93,-7.31 47.18,-16.1 63.45,-6.44 3.64,2.16 6.26,4.46 8.33,8.2 8.15,14.71 2.57,37.97 -4.47,53.03 -0.92,1.98 -1.55,3.78 -2.39,5.66 -3.52,7.98 -13.13,23.05 -19.02,30.58 -0.69,0.88 -1.02,1.42 -1.71,2.31l-9.76 11.24c-2.43,2.41 -5.84,6.3 -8.31,8.16l-0.59 0.6 0 0z"/>
  <path class="fil1" d="M0 65.43l29.16 0c5.79,0 10.09,0.23 12.92,0.71 2.85,0.49 5.38,1.49 7.62,3 2.24,1.53 4.11,3.55 5.61,6.08 1.49,2.53 2.24,5.38 2.24,8.52 0,3.4 -0.92,6.54 -2.75,9.37 -1.84,2.85 -4.33,4.98 -7.47,6.4 4.43,1.31 7.82,3.52 10.22,6.64 2.37,3.12 3.56,6.79 3.56,11.02 0,3.32 -0.76,6.55 -2.31,9.69 -1.54,3.14 -3.65,5.65 -6.33,7.54 -2.66,1.86 -5.96,3.02 -9.88,3.46 -2.44,0.25 -8.37,0.42 -17.76,0.49l-24.83 0 0 -72.92zm14.77 12.12l0 16.8 9.64 0c5.72,0 9.29,-0.08 10.68,-0.25 2.51,-0.29 4.5,-1.16 5.94,-2.6 1.44,-1.44 2.15,-3.33 2.15,-5.67 0,-2.26 -0.62,-4.07 -1.86,-5.48 -1.24,-1.41 -3.09,-2.26 -5.54,-2.55 -1.46,-0.17 -5.65,-0.25 -12.56,-0.25l-8.45 0zm0 28.92l0 19.56 13.65 0c5.29,0 8.67,-0.15 10.1,-0.44 2.19,-0.41 3.97,-1.38 5.34,-2.92 1.38,-1.57 2.08,-3.62 2.08,-6.22 0,-2.2 -0.53,-4.05 -1.6,-5.58 -1.05,-1.53 -2.6,-2.65 -4.6,-3.35 -2,-0.69 -6.37,-1.05 -13.07,-1.05l-11.9 0z"/>
  <path id="1" class="fil1" d="M83.84 101.79l-12.63 -2.24c1.43,-5.16 3.89,-8.98 7.37,-11.46 3.48,-2.48 8.66,-3.72 15.51,-3.72 6.23,0 10.89,0.73 13.94,2.21 3.04,1.47 5.2,3.34 6.43,5.62 1.24,2.27 1.87,6.43 1.87,12.51l-0.2 16.29c0,4.64 0.22,8.07 0.66,10.27 0.44,2.21 1.27,4.57 2.5,7.08l-13.86 0c-0.35,-0.91 -0.81,-2.27 -1.34,-4.07 -0.22,-0.83 -0.39,-1.38 -0.49,-1.63 -2.38,2.34 -4.92,4.09 -7.64,5.26 -2.71,1.17 -5.6,1.77 -8.67,1.77 -5.42,0 -9.7,-1.48 -12.82,-4.43 -3.12,-2.94 -4.68,-6.68 -4.68,-11.19 0,-2.97 0.71,-5.64 2.13,-7.98 1.43,-2.33 3.42,-4.12 6,-5.36 2.56,-1.24 6.26,-2.33 11.1,-3.26 6.52,-1.22 11.05,-2.38 13.56,-3.43l0 -1.41c0,-2.72 -0.66,-4.65 -1.98,-5.82 -1.35,-1.16 -3.86,-1.74 -7.54,-1.74 -2.5,0 -4.43,0.5 -5.82,1.5 -1.41,0.98 -2.53,2.73 -3.4,5.23zm18.74 11.3c-1.78,0.6 -4.62,1.31 -8.5,2.14 -3.87,0.83 -6.42,1.65 -7.61,2.43 -1.81,1.31 -2.73,2.94 -2.73,4.92 0,1.97 0.73,3.65 2.19,5.08 1.46,1.42 3.31,2.14 5.57,2.14 2.51,0 4.92,-0.84 7.21,-2.48 1.68,-1.28 2.8,-2.8 3.33,-4.64 0.35,-1.18 0.54,-3.46 0.54,-6.8l0 -2.79z"/>
  <path id="2" class="fil1" d="M178.17 138.35l-13.95 0 0 -26.94c0,-5.7 -0.31,-9.38 -0.9,-11.05 -0.61,-1.68 -1.58,-2.97 -2.94,-3.9 -1.36,-0.94 -2.99,-1.4 -4.89,-1.4 -2.44,0 -4.63,0.67 -6.56,1.99 -1.96,1.32 -3.28,3.09 -3.99,5.26 -0.73,2.19 -1.09,6.23 -1.09,12.14l0 23.9 -13.95 0 0 -52.86 12.93 0 0 7.76c4.63,-5.93 10.46,-8.88 17.5,-8.88 3.09,0 5.93,0.56 8.49,1.66 2.58,1.12 4.51,2.53 5.82,4.25 1.33,1.73 2.24,3.68 2.75,5.87 0.53,2.19 0.78,5.31 0.78,9.39l0 32.81z"/>
  <polygon id="3" class="fil1" points="191.8,138.35 191.8,65.43 205.76,65.43 205.76,104.11 222.1,85.49 239.32,85.49 221.29,104.81 240.64,138.35 225.57,138.35 212.23,114.5 205.76,121.43 205.76,138.35 "/>
  <polygon class="fil1" points="405.44,138.35 405.44,65.43 419.74,65.43 449.75,114.3 449.75,65.43 463.4,65.43 463.4,138.35 448.65,138.35 419.09,90.41 419.09,138.35 "/>
  <path id="1" class="fil1" d="M489.28 101.79l-12.62 -2.24c1.42,-5.16 3.88,-8.98 7.36,-11.46 3.48,-2.48 8.66,-3.72 15.52,-3.72 6.23,0 10.88,0.73 13.93,2.21 3.04,1.47 5.2,3.34 6.44,5.62 1.24,2.27 1.87,6.43 1.87,12.51l-0.21 16.29c0,4.64 0.22,8.07 0.66,10.27 0.45,2.21 1.28,4.57 2.5,7.08l-13.85 0c-0.36,-0.91 -0.82,-2.27 -1.34,-4.07 -0.22,-0.83 -0.39,-1.38 -0.5,-1.63 -2.37,2.34 -4.92,4.09 -7.63,5.26 -2.72,1.17 -5.61,1.77 -8.68,1.77 -5.41,0 -9.69,-1.48 -12.82,-4.43 -3.12,-2.94 -4.68,-6.68 -4.68,-11.19 0,-2.97 0.71,-5.64 2.14,-7.98 1.42,-2.33 3.41,-4.12 5.99,-5.36 2.56,-1.24 6.26,-2.33 11.1,-3.26 6.52,-1.22 11.05,-2.38 13.57,-3.43l0 -1.41c0,-2.72 -0.67,-4.65 -1.99,-5.82 -1.34,-1.16 -3.85,-1.74 -7.54,-1.74 -2.49,0 -4.43,0.5 -5.82,1.5 -1.41,0.98 -2.53,2.73 -3.4,5.23zm18.75 11.3c-1.79,0.6 -4.62,1.31 -8.51,2.14 -3.87,0.83 -6.42,1.65 -7.6,2.43 -1.82,1.31 -2.74,2.94 -2.74,4.92 0,1.97 0.73,3.65 2.19,5.08 1.46,1.42 3.31,2.14 5.57,2.14 2.51,0 4.92,-0.84 7.22,-2.48 1.68,-1.28 2.8,-2.8 3.32,-4.64 0.36,-1.18 0.55,-3.46 0.55,-6.8l0 -2.79z"/>
  <path id="2" class="fil1" d="M534.22 141.71l15.99 1.94c0.27,1.88 0.88,3.17 1.83,3.89 1.34,1 3.43,1.51 6.28,1.51 3.65,0 6.39,-0.55 8.22,-1.65 1.22,-0.73 2.16,-1.9 2.78,-3.53 0.43,-1.16 0.65,-3.31 0.65,-6.42l0.07 -7.72c-4.21,5.75 -9.51,8.62 -15.89,8.62 -7.1,0 -12.73,-3 -16.88,-9 -3.25,-4.73 -4.88,-10.64 -4.88,-17.68 0,-8.86 2.13,-15.62 6.4,-20.29 4.26,-4.67 9.57,-7.01 15.92,-7.01 6.53,0 11.93,2.87 16.18,8.61l0 -7.49 13.03 0 0 47.4c0,6.23 -0.51,10.89 -1.54,13.97 -1.02,3.09 -2.46,5.5 -4.33,7.26 -1.85,1.75 -4.33,3.14 -7.44,4.13 -3.1,1 -7.02,1.49 -11.76,1.49 -8.96,0 -15.31,-1.54 -19.06,-4.62 -3.75,-3.09 -5.62,-6.97 -5.62,-11.71 0,-0.46 0.01,-1.03 0.05,-1.7zm12.53 -30.86c0,5.6 1.08,9.69 3.24,12.29 2.17,2.6 4.85,3.91 8.03,3.91 3.39,0 6.28,-1.34 8.62,-4.01 2.36,-2.67 3.53,-6.6 3.53,-11.83 0,-5.47 -1.12,-9.52 -3.38,-12.17 -2.24,-2.65 -5.09,-3.98 -8.53,-3.98 -3.35,0 -6.1,1.31 -8.27,3.91 -2.16,2.6 -3.24,6.55 -3.24,11.88z"/>
  <path id="3" class="fil1" d="M608.15 101.79l-12.63 -2.24c1.42,-5.16 3.88,-8.98 7.36,-11.46 3.48,-2.48 8.66,-3.72 15.52,-3.72 6.23,0 10.88,0.73 13.94,2.21 3.04,1.47 5.19,3.34 6.43,5.62 1.24,2.27 1.87,6.43 1.87,12.51l-0.21 16.29c0,4.64 0.22,8.07 0.66,10.27 0.45,2.21 1.28,4.57 2.5,7.08l-13.85 0c-0.36,-0.91 -0.82,-2.27 -1.34,-4.07 -0.22,-0.83 -0.39,-1.38 -0.49,-1.63 -2.38,2.34 -4.93,4.09 -7.64,5.26 -2.72,1.17 -5.6,1.77 -8.68,1.77 -5.41,0 -9.69,-1.48 -12.81,-4.43 -3.13,-2.94 -4.69,-6.68 -4.69,-11.19 0,-2.97 0.71,-5.64 2.14,-7.98 1.43,-2.33 3.41,-4.12 5.99,-5.36 2.56,-1.24 6.27,-2.33 11.1,-3.26 6.52,-1.22 11.05,-2.38 13.57,-3.43l0 -1.41c0,-2.72 -0.66,-4.65 -1.99,-5.82 -1.34,-1.16 -3.85,-1.74 -7.54,-1.74 -2.49,0 -4.43,0.5 -5.82,1.5 -1.41,0.98 -2.53,2.73 -3.39,5.23zm18.74 11.3c-1.78,0.6 -4.62,1.31 -8.51,2.14 -3.87,0.83 -6.41,1.65 -7.6,2.43 -1.82,1.31 -2.74,2.94 -2.74,4.92 0,1.97 0.73,3.65 2.19,5.08 1.46,1.42 3.31,2.14 5.57,2.14 2.51,0 4.93,-0.84 7.22,-2.48 1.68,-1.28 2.8,-2.8 3.32,-4.64 0.36,-1.18 0.55,-3.46 0.55,-6.8l0 -2.79z"/>
  <path id="4" class="fil1" d="M667.75 138.35l-13.96 0 0 -52.86 12.94 0 0 7.5c2.22,-3.54 4.23,-5.87 6.01,-6.97 1.78,-1.11 3.8,-1.65 6.06,-1.65 3.19,0 6.26,0.88 9.22,2.63l-4.33 12.19c-2.36,-1.53 -4.55,-2.29 -6.57,-2.29 -1.97,0 -3.64,0.54 -4.99,1.61 -1.36,1.09 -2.43,3.02 -3.21,5.84 -0.78,2.82 -1.17,8.73 -1.17,17.7l0 16.3z"/>
  <path id="5" class="fil1" d="M694.04 78.36l0 -12.93 13.96 0 0 12.93 -13.96 0zm0 59.99l0 -52.86 13.96 0 0 52.86 -13.96 0z"/>
  <polygon class="fil2" points="302.38,101.56 303.22,136.9 265.66,135.99 "/>
  <polygon class="fil3" points="303.22,136.9 339,136.9 339,171.11 303.22,171.11 "/>
  <polygon class="fil4" points="376.01,172.79 339.1,171.27 339.4,208.83 "/>
 </g>
</svg>
