<?xml version="1.0" encoding="UTF-8"?>
<!DOCTYPE svg PUBLIC "-//W3C//DTD SVG 1.1//EN" "http://www.w3.org/Graphics/SVG/1.1/DTD/svg11.dtd">
<!-- Creator: CorelDRAW 2019 (64-Bit) -->
<svg xmlns="http://www.w3.org/2000/svg" xml:space="preserve" width="1153px" height="240px" version="1.1" style="shape-rendering:geometricPrecision; text-rendering:geometricPrecision; image-rendering:optimizeQuality; fill-rule:evenodd; clip-rule:evenodd"
viewBox="0 0 1153 240"
 xmlns:xlink="http://www.w3.org/1999/xlink"
 xmlns:xodm="http://www.corel.com/coreldraw/odm/2003">
 <defs>
  <style type="text/css">
   <![CDATA[
    .fil0 {fill:#1C1C1A;fill-rule:nonzero}
    .fil2 {fill:#B61818;fill-rule:nonzero}
    .fil1 {fill:#F6A500;fill-rule:nonzero}
   ]]>
  </style>
 </defs>
 <g id="Layer_x0020_1">
  <metadata id="CorelCorpID_0Corel-Layer"/>
  <path class="fil0" d="M445.44 184.46l9.8 0 0 -40.77 39.23 40.77 13.53 0 -43.42 -44.2 38.75 -35.17 -12.61 0 -35.48 32.52 0 -69.88 -9.8 0 0 116.73zm-78.37 0l0 0 9.8 0 0 -43.88c0,-3.54 0.46,-7.01 1.26,-10.44 0.76,-3.31 2.13,-6.31 3.89,-9.18 3.64,-5.95 9.64,-9.28 18.36,-9.33 6.74,-0.05 11.74,2.2 14.63,6.53 2.92,4.38 4.21,10.47 4.21,18.06l0 48.24 9.8 0 0 -50.74c0,-8.92 -1.98,-16.22 -6.08,-21.79 -4.21,-5.73 -11.25,-8.64 -21,-8.71 -4.05,-0.03 -7.52,0.47 -10.43,1.4 -2.9,0.93 -5.35,2.24 -7.31,3.89 -1.87,1.56 -3.43,3.27 -4.67,5.14 -1.25,1.87 -2.34,3.73 -3.27,5.59l-0.32 0 0 -14.15 -9.49 0c0.41,6.32 0.62,12.55 0.62,18.67l0 60.7zm-25.79 -35.17l0 0c0,2.07 -0.11,4.72 -0.31,7.93 -0.21,3.11 -1.09,6.29 -2.65,9.49 -1.45,3.01 -3.79,5.6 -7.01,7.8 -3.32,2.27 -7.83,3.41 -13.53,3.41 -4.57,0 -8.35,-1.22 -11.52,-3.41 -3.26,-2.27 -4.98,-5.82 -4.98,-10.9 0,-4.37 1.25,-7.78 3.58,-10.43 2.23,-2.55 5.11,-4.47 8.72,-5.76 3.64,-1.3 7.67,-2.33 12.14,-2.65 4.24,-0.3 8.5,-0.3 12.76,-0.3l2.8 0 0 4.82zm0.93 35.17l0 0 9.65 0c-0.62,-5.08 -0.78,-10.63 -0.78,-16.65l0 -35.02c0,-19.92 -9.07,-29.87 -27.86,-29.57 -8.2,0.12 -15.97,2.02 -23.34,5.45l0 9.49c7.37,-4.46 15.14,-6.57 23.34,-6.53 12.35,0.06 18.06,6.79 18.06,20.38l0 4.05 -1.87 0c-5.18,0 -10.59,0.05 -16.19,0.46 -5.71,0.42 -10.98,1.72 -15.88,3.43 -4.85,1.7 -8.83,4.43 -11.97,8.25 -3.19,3.86 -4.7,9.08 -4.83,15.72 -0.08,4.05 1.19,8.77 4.67,13.85 1.72,2.5 4.59,4.29 8.1,5.91 3.44,1.6 7.88,2.65 13.38,2.65 5.19,0 10.12,-1.4 14.78,-3.89 4.68,-2.49 8.14,-6.08 10.43,-10.74l0.31 0 0 12.76zm-71.63 -39.69l0 0c0,3.74 -0.26,7.52 -0.78,11.36 -0.72,3.95 -2.02,7.58 -3.88,10.9 -1.67,3.11 -4.05,5.65 -7.17,7.63 -3.11,2.17 -7,3.26 -11.67,3.26 -4.36,0 -7.99,-1.09 -10.89,-3.26 -3.01,-1.98 -5.45,-4.62 -7.33,-7.95 -3.62,-7.05 -5.39,-14.36 -5.28,-21.94 -0.11,-7.78 1.61,-15.15 5.14,-22.1 1.86,-3.32 4.3,-6.02 7.31,-8.09 3,-1.97 6.69,-2.95 11.05,-2.95 4.67,0 8.56,0.98 11.67,2.95 3.12,1.87 5.5,4.46 7.17,7.78 1.86,3.11 3.16,6.64 3.88,10.58 0.52,3.94 0.78,7.89 0.78,11.83zm-56.81 39.69l0 0 9.81 0 0 -12.61 0.31 0c5.19,9.76 13.44,14.59 24.74,14.48 10.9,-0.21 19.1,-4.2 24.6,-11.98 5.39,-7.79 8.09,-17.65 8.09,-29.58 0,-12.34 -2.49,-22.31 -7.47,-29.88 -5.19,-7.68 -13.59,-11.57 -25.22,-11.67 -3.83,0 -7.21,0.57 -10.11,1.71 -2.91,1.14 -5.4,2.59 -7.47,4.36 -1.97,1.55 -3.53,3.17 -4.66,4.83 -1.26,1.76 -2.09,3.21 -2.5,4.35l-0.31 0 0 -50.74 -9.81 0 0 116.73z"/>
  <path class="fil0" d="M1131.52 86.87l21.48 0 0 -20.52 -21.48 0 0 20.52zm0 97.59l0 0 21.48 0 0 -82.53 -21.48 0 0 82.53zm-59.61 0l0 0 21.47 0 0 -30.29c0,-3.21 0.1,-6.68 0.32,-10.41 0.21,-3.85 0.83,-7.49 1.92,-10.9 1.15,-3.64 2.96,-6.54 5.29,-8.81 2.37,-2.33 5.66,-3.53 9.94,-3.53 4.17,0 7.37,0.59 9.61,1.76l0 -21.63c-2.24,-0.43 -4.43,-0.69 -6.57,-0.64 -6.41,0.15 -11.53,2.72 -15.55,7.37 -3.99,4.64 -6.41,9.03 -7.05,13.3l-0.32 0 0 -18.75 -19.06 0 0 82.53zm-57.29 -67.79l0 0c3.52,-0.07 6.47,0.8 8.83,2.41 2.33,1.6 4.26,3.69 5.44,6.4 2.44,5.62 3.53,11.49 3.53,17.47 0,2.78 -0.13,5.74 -0.64,8.82 -0.54,3.11 -1.66,6.04 -3.05,8.81 -1.29,2.57 -3.11,4.7 -5.45,6.41 -2.47,1.82 -5.45,2.73 -8.97,2.73 -3.54,0 -6.45,-0.95 -8.82,-2.73 -2.32,-1.74 -4.34,-3.82 -5.77,-6.41 -3.05,-5.52 -4.38,-11.43 -4.32,-17.63 0.04,-6.19 1.54,-11.99 4.48,-17.47 3.04,-5.63 7.9,-8.67 14.74,-8.81zm-40.86 101.45l0 0 21.47 0 0 -43.12 0.33 0c3.84,4.38 7.76,7.36 11.69,8.98 3.86,1.58 8.03,2.46 12.5,2.4 12.82,-0.16 21.99,-4.63 27.41,-13.3 5.26,-8.42 7.68,-18.48 7.68,-30.13 0,-11.75 -2.37,-21.84 -7.68,-30.12 -5.37,-8.39 -14.43,-12.87 -26.92,-12.82 -12.51,0.04 -21.05,4.85 -25.65,13.62l-0.32 0 0 -11.7 -20.51 0 0 116.19zm-23.71 -55.77l0 0c-3.96,2.34 -8.21,4.2 -12.66,5.77 -4.63,1.62 -9.52,2.56 -14.75,2.56 -6.62,0 -12.02,-1.93 -16.35,-5.61 -4.22,-3.59 -6.67,-8.61 -7.2,-15.22l57.05 0c0.1,-14.75 -2.45,-26.79 -8.02,-35.91 -5.66,-9.25 -16.18,-13.99 -31.24,-13.93 -12.72,0.04 -22.31,4.41 -28.69,12.66 -6.44,8.31 -9.71,18.64 -9.62,30.92 0.22,28.1 14.69,42.49 43.11,42.79 11.32,0.12 20.78,-2.19 28.37,-6.57l0 -17.46zm-50.96 -27.25l0 0c0.42,-5.66 2.22,-10.33 5.44,-13.94 3.18,-3.55 7.75,-5.45 13.63,-5.45 5.98,0 10.37,2.02 13.13,5.77 2.68,3.63 4.12,8.17 4.33,13.62l-36.53 0zm-98.41 49.36l0 0 21.48 0 0 -40.06 0.33 0 27.56 40.06 27.23 0 -34.6 -45.68 30.76 -36.85 -25.32 0 -25.63 33.01 -0.33 0 0 -70.68 -21.48 0 0 120.2zm-20.83 -82.53l0 0 -21.48 0 0 40.39c0,2.66 -0.21,5.55 -0.63,8.64 -0.43,3.1 -1.48,6 -2.89,8.83 -1.37,2.73 -3.19,5.02 -5.6,6.88 -2.61,1.99 -5.82,3.05 -9.78,3.05 -3.32,0 -5.93,-0.81 -7.85,-2.41 -1.81,-1.49 -3.32,-3.37 -4.17,-5.77 -0.86,-2.42 -1.23,-5.08 -1.44,-7.85 -0.11,-1.39 -0.07,-2.73 -0.16,-4.02 -0.11,-1.27 -0.32,-2.5 -0.32,-3.67l0 -44.07 -21.48 0 0 52.09c0,9.39 2.39,17.02 6.9,23.08 4.47,6 11.42,9.34 21.15,9.28 11.33,-0.05 20.35,-4.59 27.08,-13.14l0.32 0 0 11.22 20.35 0 0 -82.53zm-146 58.65l0 0c0,-3.2 0.93,-5.72 2.57,-7.69 1.56,-1.87 3.48,-3.37 5.94,-4.32 2.45,-0.97 5.07,-1.56 7.85,-1.93 1.29,-0.17 2.56,-0.32 3.84,-0.32l3.69 0 9.29 0c0.11,6.52 -1.28,12.25 -4.48,16.99 -3.31,4.88 -8.44,7.3 -15.07,7.37 -3.95,0.04 -7.1,-0.94 -9.61,-2.56 -2.62,-1.69 -4.02,-4.12 -4.02,-7.54zm-10.89 -35.89l0 0c7.58,-5.88 16.08,-8.91 25.48,-8.98 6.41,-0.04 11.15,1.26 14.11,3.85 3.01,2.63 4.48,7.32 4.48,13.94l-11.85 0c-4.49,0 -9.2,0.21 -14.11,0.8 -4.81,0.58 -9.33,2.02 -13.62,4 -4.04,1.86 -7.31,4.7 -9.94,8.49 -2.69,3.91 -4.21,8.88 -4.15,15.07 0.05,7.9 3.2,13.87 9.12,18.1 5.71,4.11 12.24,6.36 19.71,6.42 5.13,0.04 10.04,-1.3 14.75,-3.84 4.59,-2.48 8.17,-5.94 10.74,-10.42l0.31 0c0,3.21 0.32,7.32 0.96,12.34l18.92 0c-0.43,-6.19 -0.74,-12.34 -0.96,-18.43 -0.22,-5.76 -0.32,-12.66 -0.32,-20.67l0 -10.58c0,-23.51 -11.55,-35.07 -35.59,-34.77 -9.93,0.12 -19.49,2.19 -28.68,6.25l0.64 18.43zm-45.13 -37.82l0 0 21.48 0 0 -20.52 -21.48 0 0 20.52zm0 97.59l0 0 21.48 0 0 -82.53 -21.48 0 0 82.53zm-60.22 0l0 0 21.47 0 0 -30.29c0,-3.21 0.11,-6.67 0.32,-10.41 0.22,-3.85 0.86,-7.49 1.92,-10.9 1.18,-3.63 2.94,-6.57 5.3,-8.81 2.34,-2.36 5.66,-3.53 9.93,-3.53 4.17,0 7.37,0.59 9.62,1.76l0 -21.63c-2.25,-0.43 -4.44,-0.64 -6.58,-0.64 -6.41,0.21 -11.58,2.67 -15.54,7.37 -4.06,4.59 -6.41,9.03 -7.05,13.3l-0.32 0 0 -18.75 -19.07 0 0 82.53z"/>
  <path class="fil0" d="M643.34 217.94l3.96 0 0 -7.46c0,-0.49 0.05,-1.03 0.16,-1.62 0.09,-0.57 0.26,-1.12 0.53,-1.63 0.25,-0.52 0.61,-0.94 1.06,-1.29 0.45,-0.35 1.04,-0.51 1.74,-0.51 0.64,0 1.13,0.13 1.46,0.41 0.36,0.3 0.61,0.65 0.77,1.07 0.17,0.44 0.27,0.9 0.31,1.41 0.03,0.51 0.04,1.01 0.04,1.48l0 8.14 3.96 0 0 -9.62c0,-0.85 -0.1,-1.64 -0.3,-2.36 -0.2,-0.73 -0.5,-1.37 -0.93,-1.89 -0.42,-0.54 -0.97,-0.96 -1.6,-1.27 -0.66,-0.3 -1.44,-0.46 -2.35,-0.46 -1.04,0 -1.98,0.22 -2.79,0.66 -0.81,0.43 -1.48,1.02 -2,1.77l-0.06 0 0 -9.02 -3.96 0 0 22.19zm-11.48 -15.24l0 0 -3.97 0 0 7.45c0,0.51 -0.04,1.03 -0.14,1.62 -0.1,0.58 -0.28,1.13 -0.53,1.64 -0.26,0.51 -0.62,0.94 -1.07,1.28 -0.45,0.35 -1.03,0.52 -1.75,0.52 -0.62,0 -1.12,-0.14 -1.47,-0.43 -0.36,-0.28 -0.62,-0.63 -0.77,-1.06 -0.16,-0.42 -0.25,-0.9 -0.28,-1.4 -0.04,-0.53 -0.05,-1.02 -0.05,-1.48l0 -8.14 -3.96 0 0 9.62c0,0.87 0.09,1.66 0.3,2.39 0.19,0.73 0.5,1.36 0.93,1.9 0.42,0.52 0.96,0.94 1.61,1.23 0.64,0.3 1.43,0.45 2.33,0.45 1.05,0 1.99,-0.22 2.83,-0.65 0.84,-0.44 1.57,-1.02 2.17,-1.77l0.06 0 0 2.07 3.76 0 0 -15.24zm-39.46 15.24l0 0 3.84 0 0 -1.87 0.06 0c0.57,0.82 1.29,1.38 2.13,1.72 0.84,0.33 1.69,0.5 2.54,0.5 1.17,0 2.15,-0.22 2.97,-0.67 0.82,-0.45 1.48,-1.03 1.99,-1.77 0.5,-0.74 0.87,-1.59 1.09,-2.56 0.22,-0.96 0.34,-1.97 0.34,-3.02 0,-1.04 -0.12,-2.04 -0.34,-3 -0.22,-0.95 -0.59,-1.8 -1.09,-2.53 -0.51,-0.73 -1.17,-1.31 -1.99,-1.74 -0.82,-0.44 -1.8,-0.66 -2.97,-0.66 -1.04,0 -1.92,0.21 -2.65,0.61 -0.71,0.41 -1.34,0.97 -1.9,1.71l-0.06 0 0 -8.91 -3.96 0 0 22.19zm3.99 -7.67l0 0c0,-0.53 0.07,-1.09 0.19,-1.65 0.13,-0.58 0.34,-1.1 0.62,-1.57 0.29,-0.48 0.65,-0.86 1.11,-1.17 0.46,-0.3 1,-0.45 1.63,-0.45 0.65,0 1.18,0.15 1.59,0.47 0.42,0.3 0.75,0.71 1.01,1.18 0.25,0.48 0.44,1 0.53,1.57 0.11,0.57 0.15,1.11 0.15,1.62 0,0.54 -0.05,1.09 -0.16,1.66 -0.11,0.57 -0.29,1.1 -0.53,1.59 -0.25,0.5 -0.59,0.91 -1.02,1.22 -0.44,0.32 -0.98,0.47 -1.63,0.47 -0.65,0 -1.2,-0.15 -1.66,-0.47 -0.45,-0.31 -0.81,-0.71 -1.08,-1.2 -0.26,-0.48 -0.46,-1.02 -0.58,-1.6 -0.12,-0.58 -0.17,-1.13 -0.17,-1.67zm-37.75 7.67l0 0 3.97 0 0 -7.4c0,-0.5 0.03,-1.03 0.09,-1.63 0.06,-0.59 0.19,-1.15 0.4,-1.67 0.2,-0.52 0.5,-0.95 0.89,-1.3 0.4,-0.35 0.93,-0.51 1.58,-0.51 0.57,0 1,0.11 1.31,0.33 0.31,0.23 0.53,0.51 0.68,0.85 0.15,0.34 0.23,0.7 0.25,1.11 0.02,0.4 0.03,0.78 0.03,1.13l0 9.09 3.96 0 0 -7.4c0,-0.5 0.04,-1.03 0.09,-1.63 0.06,-0.59 0.2,-1.15 0.41,-1.67 0.2,-0.52 0.5,-0.95 0.89,-1.3 0.4,-0.35 0.92,-0.51 1.57,-0.51 0.57,0 1.02,0.11 1.31,0.33 0.32,0.23 0.54,0.51 0.69,0.85 0.15,0.34 0.23,0.7 0.25,1.11 0.02,0.4 0.03,0.78 0.03,1.13l0 9.09 3.96 0 0 -9.62c0,-0.85 -0.07,-1.64 -0.22,-2.36 -0.14,-0.73 -0.4,-1.37 -0.78,-1.89 -0.37,-0.54 -0.87,-0.96 -1.48,-1.27 -0.62,-0.3 -1.39,-0.46 -2.34,-0.46 -0.92,0 -1.84,0.23 -2.74,0.67 -0.89,0.45 -1.56,1.12 -2.02,2.03 -0.43,-0.95 -1.02,-1.63 -1.77,-2.05 -0.75,-0.43 -1.66,-0.65 -2.72,-0.65 -0.76,0 -1.54,0.18 -2.36,0.54 -0.81,0.35 -1.54,1 -2.17,1.95l-0.06 0 0 -2.13 -3.7 0 0 15.24zm-11.42 -15.24l0 0 -3.96 0 0 7.45c0,0.51 -0.05,1.03 -0.14,1.62 -0.11,0.58 -0.28,1.13 -0.54,1.64 -0.26,0.51 -0.61,0.94 -1.06,1.28 -0.46,0.35 -1.05,0.52 -1.75,0.52 -0.63,0 -1.13,-0.14 -1.48,-0.43 -0.36,-0.28 -0.61,-0.63 -0.77,-1.06 -0.16,-0.42 -0.25,-0.9 -0.28,-1.4 -0.03,-0.53 -0.05,-1.02 -0.05,-1.48l0 -8.14 -3.96 0 0 9.62c0,0.87 0.1,1.66 0.29,2.39 0.21,0.73 0.51,1.36 0.94,1.9 0.43,0.52 0.96,0.94 1.62,1.23 0.64,0.3 1.42,0.45 2.33,0.45 1.04,0 1.98,-0.22 2.82,-0.65 0.84,-0.44 1.57,-1.02 2.18,-1.77l0.05 0 0 2.07 3.76 0 0 -15.24zm-31.59 10.65l0 0c0,1.51 0.41,2.72 1.24,3.61 0.83,0.88 2.02,1.33 3.58,1.33 0.59,0 1.13,-0.02 1.6,-0.09 0.47,-0.06 0.91,-0.15 1.33,-0.26l-0.12 -3.14c-0.22,0.13 -0.48,0.24 -0.8,0.31 -0.32,0.07 -0.65,0.1 -1,0.1 -0.38,0 -0.69,-0.07 -0.94,-0.2 -0.24,-0.15 -0.44,-0.33 -0.57,-0.57 -0.14,-0.23 -0.23,-0.5 -0.28,-0.8 -0.06,-0.29 -0.08,-0.61 -0.08,-0.94l0 -7.1 3.52 0 0 -2.9 -3.52 0 0 -4.31 -3.96 1.26 0 3.05 -2.93 0 0 2.9 2.93 0 0 7.75z"/>
  <path class="fil0" d="M927.59 217.94l3.96 0 0 -7.46c0,-0.49 0.04,-1.04 0.15,-1.62 0.1,-0.57 0.28,-1.12 0.53,-1.63 0.25,-0.52 0.61,-0.95 1.06,-1.29 0.46,-0.35 1.04,-0.51 1.74,-0.51 0.64,0 1.13,0.13 1.48,0.41 0.34,0.3 0.6,0.65 0.77,1.08 0.16,0.43 0.26,0.89 0.29,1.41 0.03,0.5 0.04,1 0.04,1.47l0 8.14 3.96 0 0 -9.61c0,-0.85 -0.09,-1.65 -0.29,-2.37 -0.19,-0.74 -0.5,-1.37 -0.93,-1.9 -0.42,-0.53 -0.96,-0.95 -1.61,-1.26 -0.65,-0.3 -1.43,-0.46 -2.34,-0.46 -1.04,0 -1.98,0.19 -2.81,0.56 -0.83,0.35 -1.56,0.98 -2.18,1.87l-0.07 0 0 -2.07 -3.75 0 0 15.24zm-21.04 -4.42l0 0c0,-0.58 0.15,-1.05 0.44,-1.39 0.31,-0.36 0.67,-0.61 1.1,-0.79 0.43,-0.18 0.91,-0.29 1.42,-0.35 0.52,-0.07 0.99,-0.1 1.45,-0.1l1.72 0c0,0.6 -0.06,1.16 -0.17,1.69 -0.11,0.53 -0.32,1.02 -0.66,1.45 -0.32,0.42 -0.7,0.74 -1.17,0.99 -0.46,0.25 -1,0.37 -1.61,0.37 -0.71,0 -1.31,-0.15 -1.79,-0.44 -0.48,-0.3 -0.73,-0.77 -0.73,-1.43zm-2.01 -6.61l0 0c0.67,-0.52 1.42,-0.92 2.22,-1.22 0.82,-0.3 1.64,-0.44 2.49,-0.44 1.18,0 2.05,0.23 2.6,0.71 0.55,0.47 0.83,1.32 0.83,2.57l-2.2 0c-0.82,0 -1.7,0.05 -2.61,0.16 -0.92,0.11 -1.76,0.36 -2.49,0.73 -0.75,0.37 -1.38,0.9 -1.87,1.59 -0.49,0.69 -0.75,1.61 -0.75,2.75 0,0.73 0.17,1.38 0.47,1.94 0.3,0.56 0.7,1.04 1.2,1.42 0.49,0.39 1.06,0.67 1.7,0.88 0.64,0.19 1.29,0.29 1.96,0.29 0.46,0 0.91,-0.06 1.38,-0.18 0.46,-0.11 0.89,-0.28 1.31,-0.5 0.42,-0.22 0.8,-0.49 1.14,-0.83 0.35,-0.34 0.64,-0.71 0.87,-1.12l0.07 0c0.02,0.24 0.03,0.57 0.04,1.01 0,0.45 0.06,0.87 0.13,1.27l3.5 0c-0.05,-0.6 -0.08,-1.17 -0.11,-1.72 -0.03,-0.56 -0.05,-1.12 -0.08,-1.69 -0.01,-0.57 -0.02,-1.15 -0.04,-1.76 -0.01,-0.6 -0.01,-1.28 -0.01,-2.05l0 -1.95c0,-2.25 -0.52,-3.89 -1.54,-4.9 -1.03,-1.02 -2.71,-1.53 -5.02,-1.53 -0.85,0 -1.76,0.12 -2.71,0.32 -0.96,0.2 -1.82,0.49 -2.59,0.85l0.11 3.4zm-24.55 11.03l0 0 3.96 0 0 -7.4 0.06 0 5.09 7.4 5.03 0 -6.39 -8.44 5.68 -6.8 -4.67 0 -4.74 6.09 -0.06 0 0 -13.04 -3.96 0 0 22.19zm-15.36 -15.24l0 0 0 2.07 -0.06 0c-0.55,-0.89 -1.22,-1.52 -1.99,-1.87 -0.79,-0.37 -1.67,-0.56 -2.68,-0.56 -1.15,0 -2.12,0.25 -2.93,0.73 -0.81,0.49 -1.47,1.1 -2,1.86 -0.51,0.74 -0.9,1.59 -1.15,2.53 -0.24,0.95 -0.37,1.88 -0.37,2.78 0,1.02 0.11,2 0.34,2.94 0.23,0.91 0.59,1.74 1.08,2.45 0.5,0.71 1.14,1.27 1.92,1.69 0.8,0.4 1.75,0.62 2.88,0.62 1.12,0 2.09,-0.25 2.92,-0.74 0.83,-0.48 1.43,-1.04 1.81,-1.7l0.05 0c0,0.66 -0.02,1.33 -0.1,2.04 -0.06,0.69 -0.24,1.34 -0.55,1.92 -0.29,0.57 -0.76,1.05 -1.37,1.41 -0.62,0.37 -1.47,0.56 -2.56,0.56 -0.31,0 -0.67,-0.04 -1.05,-0.13 -0.39,-0.07 -0.78,-0.18 -1.18,-0.3 -0.41,-0.13 -0.8,-0.28 -1.19,-0.44 -0.38,-0.15 -0.72,-0.31 -1.01,-0.48l-0.33 3.38c0.95,0.4 1.86,0.67 2.75,0.82 0.89,0.14 1.73,0.22 2.51,0.22 1.6,0 2.91,-0.23 3.95,-0.68 1.04,-0.45 1.86,-1.05 2.48,-1.79 0.6,-0.73 1.03,-1.59 1.26,-2.56 0.24,-0.97 0.36,-1.98 0.36,-3.02l0 -13.75 -3.79 0zm-3.66 12.16l0 0c-0.58,0 -1.07,-0.14 -1.5,-0.43 -0.43,-0.28 -0.78,-0.66 -1.05,-1.09 -0.28,-0.44 -0.48,-0.95 -0.63,-1.51 -0.13,-0.54 -0.19,-1.07 -0.19,-1.59 0,-0.59 0.05,-1.17 0.17,-1.74 0.12,-0.57 0.31,-1.09 0.59,-1.54 0.27,-0.45 0.65,-0.82 1.1,-1.12 0.45,-0.28 1.01,-0.41 1.69,-0.41 0.56,0 1.06,0.11 1.48,0.36 0.43,0.25 0.78,0.59 1.04,1.02 0.27,0.44 0.46,0.95 0.6,1.52 0.13,0.55 0.18,1.17 0.18,1.82 0,0.64 -0.05,1.23 -0.18,1.81 -0.14,0.57 -0.35,1.07 -0.63,1.51 -0.29,0.43 -0.65,0.77 -1.09,1.01 -0.45,0.26 -0.97,0.38 -1.58,0.38zm-32.02 3.08l0 0 3.98 0 0 -7.46c0,-0.49 0.04,-1.04 0.14,-1.62 0.1,-0.57 0.28,-1.12 0.52,-1.63 0.27,-0.52 0.63,-0.95 1.08,-1.29 0.45,-0.35 1.03,-0.51 1.74,-0.51 0.64,0 1.11,0.13 1.46,0.41 0.34,0.3 0.61,0.65 0.77,1.08 0.17,0.43 0.28,0.89 0.31,1.41 0.02,0.5 0.04,1 0.04,1.47l0 8.14 3.95 0 0 -9.61c0,-0.85 -0.09,-1.65 -0.29,-2.37 -0.19,-0.74 -0.5,-1.37 -0.93,-1.9 -0.42,-0.53 -0.96,-0.95 -1.62,-1.26 -0.64,-0.3 -1.42,-0.46 -2.32,-0.46 -1.05,0 -2,0.19 -2.82,0.56 -0.82,0.35 -1.56,0.98 -2.18,1.87l-0.06 0 0 -2.07 -3.77 0 0 15.24zm-21.03 -4.42l0 0c0,-0.58 0.15,-1.05 0.44,-1.39 0.3,-0.36 0.67,-0.61 1.09,-0.79 0.44,-0.18 0.92,-0.29 1.43,-0.35 0.51,-0.07 1,-0.1 1.46,-0.1l1.69 0c0,0.6 -0.03,1.16 -0.15,1.69 -0.11,0.53 -0.32,1.02 -0.66,1.45 -0.31,0.42 -0.7,0.74 -1.18,0.99 -0.45,0.25 -0.99,0.37 -1.61,0.37 -0.7,0 -1.3,-0.15 -1.79,-0.44 -0.48,-0.3 -0.72,-0.77 -0.72,-1.43zm-2.01 -6.61l0 0c0.67,-0.52 1.41,-0.92 2.22,-1.22 0.81,-0.3 1.64,-0.44 2.48,-0.44 1.19,0 2.06,0.23 2.61,0.71 0.55,0.47 0.81,1.32 0.81,2.57l-2.17 0c-0.83,0 -1.7,0.05 -2.62,0.16 -0.92,0.11 -1.75,0.36 -2.5,0.73 -0.75,0.37 -1.37,0.9 -1.86,1.59 -0.5,0.69 -0.74,1.61 -0.74,2.75 0,0.73 0.16,1.38 0.45,1.94 0.31,0.56 0.71,1.04 1.19,1.42 0.51,0.39 1.07,0.67 1.72,0.88 0.64,0.19 1.29,0.29 1.95,0.29 0.46,0 0.92,-0.06 1.38,-0.18 0.47,-0.11 0.91,-0.28 1.32,-0.5 0.41,-0.22 0.8,-0.49 1.14,-0.83 0.34,-0.34 0.64,-0.71 0.87,-1.12l0.06 0c0.03,0.24 0.04,0.57 0.04,1.01 0.02,0.45 0.05,0.87 0.14,1.27l3.49 0c-0.04,-0.6 -0.07,-1.17 -0.1,-1.72 -0.03,-0.56 -0.06,-1.12 -0.07,-1.69 -0.03,-0.57 -0.04,-1.15 -0.06,-1.76 0,-0.6 -0.01,-1.28 -0.01,-2.05l0 -1.95c0,-2.25 -0.51,-3.89 -1.54,-4.9 -1.01,-1.02 -2.7,-1.53 -5.02,-1.53 -0.85,0 -1.76,0.12 -2.71,0.32 -0.95,0.2 -1.81,0.49 -2.6,0.85l0.13 3.4zm-26.27 11.03l0 0 3.85 0 0 -1.87 0.05 0c0.58,0.82 1.28,1.38 2.13,1.72 0.85,0.33 1.7,0.5 2.54,0.5 1.17,0 2.16,-0.22 2.98,-0.67 0.82,-0.45 1.49,-1.03 1.98,-1.77 0.51,-0.74 0.87,-1.59 1.1,-2.56 0.22,-0.96 0.34,-1.97 0.34,-3.02 0,-1.04 -0.12,-2.04 -0.34,-3 -0.23,-0.95 -0.59,-1.8 -1.1,-2.53 -0.49,-0.73 -1.16,-1.31 -1.98,-1.74 -0.82,-0.44 -1.81,-0.66 -2.98,-0.66 -1.04,0 -1.92,0.21 -2.64,0.61 -0.72,0.41 -1.36,0.97 -1.9,1.7l-0.07 0 0 -8.9 -3.96 0 0 22.19zm4 -7.67l0 0c0,-0.53 0.05,-1.08 0.19,-1.65 0.13,-0.57 0.33,-1.1 0.62,-1.57 0.28,-0.48 0.65,-0.86 1.1,-1.17 0.46,-0.3 1,-0.45 1.64,-0.45 0.64,0 1.17,0.15 1.59,0.47 0.41,0.3 0.75,0.7 1,1.18 0.26,0.48 0.43,1 0.54,1.57 0.1,0.57 0.15,1.11 0.15,1.62 0,0.54 -0.05,1.09 -0.16,1.66 -0.12,0.57 -0.29,1.1 -0.54,1.59 -0.25,0.5 -0.58,0.91 -1.01,1.22 -0.44,0.32 -0.99,0.47 -1.64,0.47 -0.65,0 -1.2,-0.15 -1.65,-0.47 -0.45,-0.31 -0.82,-0.71 -1.09,-1.2 -0.26,-0.48 -0.45,-1.02 -0.57,-1.6 -0.12,-0.58 -0.17,-1.13 -0.17,-1.67zm-37.75 7.67l0 0 3.96 0 0 -7.4c0,-0.5 0.03,-1.04 0.09,-1.63 0.06,-0.58 0.19,-1.14 0.4,-1.67 0.21,-0.52 0.5,-0.96 0.9,-1.3 0.4,-0.35 0.91,-0.51 1.56,-0.51 0.58,0 1.02,0.11 1.32,0.33 0.31,0.23 0.54,0.51 0.68,0.84 0.15,0.35 0.24,0.71 0.25,1.12 0.03,0.4 0.04,0.78 0.04,1.13l0 9.09 3.96 0 0 -7.4c0,-0.5 0.02,-1.04 0.09,-1.63 0.06,-0.58 0.19,-1.14 0.4,-1.67 0.21,-0.52 0.51,-0.96 0.89,-1.3 0.41,-0.35 0.93,-0.51 1.58,-0.51 0.57,0 1.01,0.11 1.3,0.33 0.32,0.23 0.55,0.51 0.69,0.84 0.15,0.35 0.24,0.71 0.26,1.12 0.01,0.4 0.02,0.78 0.02,1.13l0 9.09 3.97 0 0 -9.61c0,-0.85 -0.07,-1.65 -0.22,-2.37 -0.14,-0.74 -0.41,-1.37 -0.78,-1.9 -0.38,-0.53 -0.88,-0.95 -1.48,-1.26 -0.62,-0.3 -1.39,-0.46 -2.34,-0.46 -0.93,0 -1.84,0.23 -2.73,0.67 -0.91,0.44 -1.58,1.12 -2.04,2.03 -0.43,-0.95 -1.02,-1.63 -1.77,-2.05 -0.75,-0.43 -1.66,-0.65 -2.72,-0.65 -0.75,0 -1.54,0.18 -2.36,0.53 -0.81,0.37 -1.54,1.01 -2.17,1.96l-0.05 0 0 -2.13 -3.7 0 0 15.24zm-11.56 -4.09l0 0c-0.76,0.42 -1.55,0.78 -2.38,1.08 -0.82,0.31 -1.72,0.46 -2.69,0.46 -1.24,0 -2.25,-0.33 -3.03,-0.99 -0.78,-0.66 -1.21,-1.62 -1.32,-2.86l10.53 0c0,-1.32 -0.11,-2.55 -0.34,-3.68 -0.23,-1.14 -0.61,-2.1 -1.17,-2.9 -0.55,-0.82 -1.29,-1.45 -2.21,-1.92 -0.93,-0.46 -2.1,-0.7 -3.52,-0.7 -1.19,0 -2.22,0.22 -3.11,0.65 -0.89,0.42 -1.62,1 -2.2,1.73 -0.59,0.72 -1.02,1.58 -1.32,2.55 -0.29,0.98 -0.44,2.02 -0.44,3.12 0,2.52 0.7,4.47 2.08,5.84 1.39,1.37 3.34,2.06 5.88,2.06 1.05,0 2.02,-0.1 2.86,-0.32 0.85,-0.2 1.64,-0.5 2.38,-0.89l0 -3.23zm-9.42 -5.02l0 0c0.11,-1.03 0.44,-1.88 0.99,-2.56 0.56,-0.69 1.41,-1.02 2.53,-1.02 0.55,0 1.03,0.09 1.42,0.29 0.39,0.2 0.72,0.46 0.98,0.78 0.26,0.33 0.44,0.71 0.57,1.14 0.14,0.43 0.22,0.9 0.26,1.37l-6.75 0zm-26.56 9.11l0 0 3.96 0 0 -7.4 0.07 0 5.07 7.4 5.04 0 -6.39 -8.44 5.68 -6.8 -4.68 0 -4.72 6.09 -0.07 0 0 -13.04 -3.96 0 0 22.19z"/>
  <path class="fil0" d="M1141.35 213.53c0,-0.59 0.15,-1.06 0.44,-1.41 0.3,-0.35 0.66,-0.6 1.1,-0.78 0.44,-0.18 0.9,-0.3 1.42,-0.35 0.51,-0.07 1,-0.1 1.45,-0.1l1.71 0c0,0.6 -0.05,1.16 -0.16,1.69 -0.11,0.53 -0.33,1.02 -0.67,1.45 -0.31,0.41 -0.7,0.74 -1.16,0.99 -0.46,0.25 -1.01,0.38 -1.61,0.38 -0.71,0 -1.31,-0.16 -1.79,-0.45 -0.49,-0.3 -0.73,-0.77 -0.73,-1.42zm-2.01 -6.62l0 0c0.67,-0.52 1.41,-0.92 2.21,-1.22 0.82,-0.3 1.64,-0.44 2.5,-0.44 1.17,0 2.04,0.24 2.59,0.71 0.56,0.47 0.83,1.32 0.83,2.57l-2.19 0c-0.82,0 -1.7,0.05 -2.62,0.16 -0.91,0.11 -1.74,0.35 -2.49,0.73 -0.75,0.37 -1.37,0.9 -1.87,1.59 -0.48,0.69 -0.74,1.61 -0.74,2.75 0,0.73 0.16,1.38 0.46,1.94 0.31,0.56 0.71,1.04 1.2,1.42 0.49,0.39 1.05,0.67 1.7,0.87 0.64,0.2 1.3,0.3 1.97,0.3 0.45,0 0.91,-0.06 1.37,-0.18 0.48,-0.12 0.91,-0.28 1.33,-0.5 0.41,-0.22 0.78,-0.5 1.14,-0.83 0.33,-0.34 0.62,-0.71 0.86,-1.12l0.05 0c0.03,0.24 0.05,0.57 0.06,1.02 0.01,0.44 0.05,0.86 0.12,1.26l3.49 0c-0.02,-0.6 -0.07,-1.16 -0.1,-1.72 -0.02,-0.56 -0.04,-1.12 -0.07,-1.69 -0.01,-0.57 -0.03,-1.15 -0.04,-1.76 -0.01,-0.6 -0.01,-1.28 -0.01,-2.05l0 -1.95c0,-2.25 -0.52,-3.88 -1.55,-4.9 -1.03,-1.02 -2.7,-1.52 -5.03,-1.52 -0.85,0 -1.74,0.09 -2.7,0.31 -0.97,0.2 -1.82,0.49 -2.59,0.85l0.12 3.4zm-26.28 11.03l0 0 3.98 0 0 -7.46c0,-0.49 0.04,-1.04 0.14,-1.61 0.1,-0.58 0.27,-1.13 0.53,-1.64 0.26,-0.52 0.62,-0.95 1.07,-1.29 0.45,-0.34 1.03,-0.52 1.74,-0.52 0.63,0 1.12,0.14 1.47,0.42 0.35,0.3 0.6,0.65 0.76,1.08 0.17,0.42 0.26,0.89 0.3,1.41 0.03,0.5 0.04,1 0.04,1.47l0 8.14 3.97 0 0 -9.61c0,-0.85 -0.1,-1.65 -0.3,-2.37 -0.2,-0.74 -0.51,-1.37 -0.93,-1.89 -0.43,-0.54 -0.96,-0.96 -1.6,-1.26 -0.66,-0.31 -1.43,-0.46 -2.34,-0.46 -1.05,0 -1.98,0.21 -2.8,0.65 -0.82,0.43 -1.48,1.02 -1.99,1.77l-0.06 0 0 -9.02 -3.98 0 0 22.19zm-21.02 -4.41l0 0c0,-0.59 0.14,-1.06 0.44,-1.41 0.3,-0.35 0.66,-0.6 1.1,-0.78 0.43,-0.18 0.9,-0.3 1.42,-0.35 0.5,-0.07 0.99,-0.1 1.45,-0.1l1.71 0c0,0.6 -0.05,1.16 -0.16,1.69 -0.12,0.53 -0.34,1.02 -0.67,1.45 -0.31,0.41 -0.71,0.74 -1.17,0.99 -0.46,0.25 -1,0.38 -1.61,0.38 -0.71,0 -1.31,-0.16 -1.78,-0.45 -0.5,-0.3 -0.73,-0.77 -0.73,-1.42zm-2.01 -6.62l0 0c0.66,-0.52 1.4,-0.92 2.21,-1.22 0.81,-0.3 1.64,-0.44 2.49,-0.44 1.18,0 2.05,0.24 2.6,0.71 0.55,0.47 0.83,1.32 0.83,2.57l-2.19 0c-0.83,0 -1.7,0.05 -2.62,0.16 -0.92,0.11 -1.75,0.35 -2.5,0.73 -0.75,0.37 -1.37,0.9 -1.87,1.59 -0.49,0.69 -0.73,1.61 -0.73,2.75 0,0.73 0.15,1.38 0.45,1.94 0.31,0.56 0.71,1.04 1.21,1.42 0.49,0.39 1.05,0.67 1.7,0.87 0.64,0.2 1.29,0.3 1.97,0.3 0.45,0 0.91,-0.06 1.36,-0.18 0.47,-0.12 0.91,-0.28 1.32,-0.5 0.42,-0.22 0.8,-0.5 1.14,-0.83 0.35,-0.34 0.64,-0.71 0.88,-1.12l0.05 0c0.03,0.24 0.04,0.57 0.05,1.02 0.01,0.44 0.06,0.86 0.13,1.26l3.49 0c-0.03,-0.6 -0.07,-1.16 -0.1,-1.72 -0.04,-0.56 -0.06,-1.12 -0.07,-1.69 -0.02,-0.57 -0.04,-1.15 -0.05,-1.76 -0.01,-0.6 -0.02,-1.28 -0.02,-2.05l0 -1.95c0,-2.25 -0.51,-3.88 -1.53,-4.9 -1.04,-1.02 -2.7,-1.52 -5.03,-1.52 -0.85,0 -1.74,0.09 -2.7,0.31 -0.97,0.2 -1.82,0.49 -2.59,0.85l0.12 3.4zm-12.02 -4l0 0c-0.63,-0.14 -1.27,-0.27 -1.92,-0.39 -0.66,-0.12 -1.45,-0.17 -2.4,-0.17 -0.76,0 -1.52,0.09 -2.22,0.28 -0.73,0.19 -1.36,0.47 -1.92,0.85 -0.55,0.39 -1,0.88 -1.32,1.48 -0.35,0.58 -0.52,1.29 -0.52,2.12 0,0.93 0.18,1.65 0.53,2.19 0.33,0.53 0.77,0.95 1.26,1.28 0.51,0.3 1.05,0.54 1.67,0.7 0.59,0.16 1.15,0.33 1.64,0.51 0.52,0.17 0.94,0.39 1.28,0.64 0.34,0.26 0.52,0.63 0.52,1.13 0,0.37 -0.1,0.68 -0.26,0.91 -0.18,0.24 -0.41,0.42 -0.68,0.57 -0.26,0.13 -0.54,0.23 -0.83,0.29 -0.31,0.06 -0.59,0.1 -0.84,0.1 -0.69,0 -1.35,-0.1 -1.99,-0.27 -0.64,-0.18 -1.28,-0.43 -1.91,-0.74l-0.24 3.25c0.73,0.2 1.48,0.35 2.24,0.47 0.76,0.12 1.52,0.18 2.26,0.18 0.81,0 1.59,-0.09 2.36,-0.29 0.77,-0.18 1.45,-0.47 2.05,-0.87 0.58,-0.39 1.06,-0.9 1.44,-1.53 0.35,-0.63 0.54,-1.39 0.54,-2.28 0,-0.91 -0.17,-1.64 -0.52,-2.2 -0.34,-0.56 -0.77,-1.02 -1.27,-1.37 -0.5,-0.33 -1.05,-0.6 -1.65,-0.78 -0.61,-0.18 -1.16,-0.35 -1.66,-0.52 -0.51,-0.16 -0.93,-0.36 -1.28,-0.59 -0.34,-0.22 -0.51,-0.53 -0.51,-0.93 0,-0.32 0.08,-0.58 0.22,-0.79 0.15,-0.22 0.33,-0.4 0.55,-0.54 0.21,-0.14 0.46,-0.23 0.74,-0.28 0.28,-0.05 0.55,-0.07 0.82,-0.07 0.73,0 1.35,0.05 1.87,0.16 0.51,0.1 1.08,0.27 1.69,0.49l0.26 -2.99zm-20.79 -0.21l0 0 -3.98 0 0 7.45c0,0.49 -0.04,1.03 -0.14,1.62 -0.1,0.58 -0.28,1.13 -0.53,1.63 -0.26,0.52 -0.61,0.95 -1.07,1.3 -0.45,0.34 -1.03,0.51 -1.74,0.51 -0.63,0 -1.13,-0.15 -1.48,-0.43 -0.36,-0.27 -0.61,-0.64 -0.76,-1.06 -0.16,-0.43 -0.26,-0.89 -0.3,-1.4 -0.02,-0.53 -0.04,-1.01 -0.04,-1.48l0 -8.14 -3.96 0 0 9.62c0,0.86 0.1,1.67 0.29,2.39 0.21,0.73 0.52,1.36 0.94,1.9 0.42,0.52 0.96,0.94 1.61,1.24 0.65,0.29 1.43,0.44 2.33,0.44 1.05,0 2,-0.22 2.83,-0.65 0.84,-0.44 1.56,-1.02 2.18,-1.78l0.06 0 0 2.08 3.76 0 0 -15.24z"/>
  <polygon class="fil1" points="171.91,119.46 118.78,66.32 118.78,119.46 "/>
  <polygon class="fil1" points="106.89,53.14 53.75,0 53.75,53.14 "/>
  <polygon class="fil1" points="105.79,186.86 52.65,133.72 52.65,186.86 "/>
  <polygon class="fil2" points="66.13,119.46 118.78,172.59 171.92,119.46 "/>
  <polygon class="fil2" points="1.1,53.14 53.75,106.27 106.89,53.14 "/>
  <polygon class="fil2" points="0,186.86 52.65,240 105.79,186.86 "/>
 </g>
</svg>
