<svg width="210" height="93" viewBox="0 0 210 93" fill="none" xmlns="http://www.w3.org/2000/svg">
<path fill-rule="evenodd" clip-rule="evenodd" d="M10.1342 14.7822H77.8468C82.3458 14.7822 86.0268 18.4632 86.0268 22.9623V70.3611C86.0268 74.8601 82.3458 78.5411 77.8468 78.5411H8.18005C3.68102 78.5411 0 74.8601 0 70.3611V11.8283C0 9.69241 1.77234 8.23818 3.8628 7.96552L66.3038 0.0126915C68.4397 0.0126915 70.1666 1.73959 70.1666 3.87549V10.5104H6.22593C6.22593 13.2825 7.04393 14.8277 10.1342 14.8277V14.7822ZM48.1259 66.6801C42.4454 67.7708 35.1288 65.8621 31.1296 61.5903C29.3118 59.6816 32.2203 56.7277 34.0381 58.6818C36.7193 61.5448 41.491 62.9082 45.3993 62.8173C50.3527 62.7264 54.8063 58.1819 51.9433 53.1376C48.0351 46.1391 38.4008 48.0932 33.4928 42.6398C29.4936 38.2317 31.4023 31.2332 36.0831 28.143C40.9911 24.9164 49.4438 25.0527 53.443 29.6426C55.1699 31.6422 52.2614 34.5507 50.5345 32.5511C47.2625 28.8246 39.5823 29.3245 36.6739 33.1873C32.493 38.6861 38.7643 41.64 43.127 42.9579C49.1257 44.7757 55.7607 48.0932 56.8513 54.9553C57.7148 60.4996 53.443 65.6349 48.1259 66.6801Z" fill="#EE4E2C"/>
<path fill-rule="evenodd" clip-rule="evenodd" d="M48.0805 66.7255C42.3999 67.8162 35.0833 65.9075 31.0842 61.6357C29.2664 59.727 32.1748 56.7731 33.9926 58.7272C36.6739 61.5903 41.4456 62.9536 45.3538 62.8627C50.3073 62.7718 54.7609 58.2274 51.8978 53.183C47.9896 46.1845 38.3553 48.1386 33.4473 42.6853C29.4482 38.2771 31.3568 31.2786 36.0376 28.1884C40.9457 24.9618 49.3984 25.0982 53.3975 29.6881C55.1244 31.6876 52.216 34.5961 50.4891 32.5965C47.217 28.8701 39.5369 29.37 36.6284 33.2328C32.4475 38.7316 38.7189 41.6855 43.0816 43.0034C49.0803 44.8212 55.7152 48.1386 56.8513 55.0008C57.7148 60.545 53.443 65.6803 48.1259 66.7255H48.0805Z" fill="#FEFEFE"/>
<path d="M164.692 11.8737C162.283 11.8737 160.102 12.919 158.602 14.5095V12.6009C158.602 10.874 155.875 10.874 155.875 12.6009V34.9597C155.875 36.6865 158.602 36.6865 158.602 34.9597V25.0073C160.102 26.6433 162.283 27.6431 164.692 27.6431C169.191 27.6431 172.826 24.0984 172.826 19.7357C172.826 15.373 169.191 11.8283 164.692 11.8283V11.8737ZM164.692 24.8255C161.829 24.8255 159.465 22.5532 159.465 19.7811C159.465 17.2817 161.374 15.1912 163.828 14.7822H163.874C164.146 14.7368 164.374 14.7368 164.646 14.7368C166.782 14.7368 168.6 15.9638 169.418 17.7361C169.691 18.3723 169.872 19.054 169.872 19.7357C169.872 22.5078 167.555 24.78 164.692 24.78V24.8255ZM144.469 27.6885C139.97 27.6885 136.334 24.1438 136.334 19.7811C136.334 15.4184 139.97 11.8737 144.469 11.8737C148.968 11.8737 152.603 15.4184 152.603 19.7811C152.603 24.1438 148.968 27.6885 144.469 27.6885ZM144.469 14.7368C141.606 14.7368 139.243 17.009 139.243 19.7811C139.243 22.5532 141.56 24.8255 144.469 24.8255C147.332 24.8255 149.695 22.5532 149.695 19.7811C149.695 17.009 147.377 14.7368 144.469 14.7368ZM210 19.6448C209.955 16.0092 208 12.7372 204.047 12.0101C200.638 11.3738 196.639 13.1462 195.185 16.2364C193.685 19.463 194.322 23.9166 197.275 26.1434C200.502 28.5974 205.546 27.8248 208.864 26.007C210.409 25.189 209.046 22.8714 207.455 23.6894C205.365 24.8255 202.593 25.3708 200.275 24.6437C198.502 24.0529 197.503 22.5987 197.23 20.9627H208.637C209.364 20.9627 210 20.3719 210 19.6448ZM197.321 18.3269C197.321 18.236 197.366 18.1451 197.412 18.0542C198.048 15.8729 200.32 14.6459 202.593 14.555C205.183 14.4641 206.683 16.2364 207.137 18.3269H197.366H197.321ZM191.731 19.6902C191.686 16.0547 189.732 12.7826 185.778 12.0555C182.37 11.4193 178.37 13.1916 176.916 16.2819C175.417 19.5084 176.053 23.962 179.007 26.1888C182.233 28.6428 187.278 27.8703 190.595 26.0525C192.14 25.2345 190.777 22.9168 189.186 23.7348C187.096 24.8709 184.324 25.4163 182.006 24.6891C180.234 24.0984 179.279 22.6441 178.961 21.0081H190.368C191.095 21.0081 191.731 20.4173 191.731 19.6902ZM179.052 18.3723C179.052 18.2814 179.098 18.1906 179.143 18.0997C179.779 15.9183 182.052 14.6913 184.324 14.6004C186.914 14.5095 188.414 16.2819 188.868 18.3723H179.098H179.052ZM133.108 17.1453V26.3706C133.108 28.0975 130.381 28.0975 130.381 26.3706V17.3271C130.29 15.5548 128.745 14.6913 128.699 14.6913C126.745 13.8279 123.201 14.2369 121.11 16.9181V26.416C121.11 28.1429 118.383 28.1429 118.383 26.416V2.69391C118.383 0.967008 121.11 0.967008 121.11 2.69391V13.3734C124.473 11.1466 128.745 11.3738 130.744 12.7372C130.744 12.7372 133.153 14.0551 133.108 17.1908V17.1453ZM113.839 3.73914C111.158 0.785229 105.523 0.69434 102.251 2.7848C99.1149 4.78436 97.8425 9.23794 100.524 12.101C103.841 15.6456 110.249 14.3732 112.839 18.8722C114.702 22.0988 111.749 25.0073 108.477 25.0981C105.886 25.1436 102.705 24.2801 100.887 22.4169C99.6602 21.1899 97.7516 23.0531 98.9331 24.2801C101.569 27.0523 106.477 28.2338 110.294 27.5522C113.839 26.9159 116.702 23.5985 116.111 20.0083C115.384 15.6002 110.931 13.4643 106.931 12.2827C104.023 11.4193 99.842 9.55606 102.614 6.01137C104.568 3.55736 109.704 3.23924 111.885 5.60237C113.066 6.87482 114.975 5.01159 113.839 3.73914Z" fill="#EE4E2C"/>
<path fill-rule="evenodd" clip-rule="evenodd" d="M185.369 92.3109H176.644L185.96 74.6784L170.645 45.7755H180.097L190.686 65.7712L201.275 45.7755H210L185.369 92.3109ZM98.5696 78.5412H105.886V65.1804H115.748C125.973 65.1804 134.244 58.0001 134.244 49.1839C134.244 40.3676 125.973 33.1873 115.748 33.1873H98.615C98.615 48.3204 98.615 63.4081 98.615 78.5412H98.5696ZM105.886 57.9093V40.5039H115.748C121.292 40.5039 125.791 44.4122 125.791 49.1839C125.791 54.001 121.292 57.8638 115.748 57.8638H105.886V57.9093ZM161.556 46.0936H167.964V78.2685H161.556V74.6329C158.693 77.0869 155.012 78.5412 150.967 78.5412C141.924 78.5412 134.607 71.2246 134.607 62.1811C134.607 53.1376 141.924 45.821 150.967 45.821C155.012 45.821 158.738 47.2752 161.556 49.7292V46.0936ZM150.967 52.7286C156.193 52.7286 160.465 56.9549 160.465 62.2265C160.465 67.4526 156.239 71.7244 150.967 71.7244C145.741 71.7244 141.469 67.4981 141.469 62.2265C141.469 57.0004 145.696 52.7286 150.967 52.7286Z" fill="#EE4E2C"/>
</svg>
