<?xml version="1.0" encoding="UTF-8"?>
<!DOCTYPE svg PUBLIC "-//W3C//DTD SVG 1.1//EN" "http://www.w3.org/Graphics/SVG/1.1/DTD/svg11.dtd">
<!-- Creator: CorelDRAW 2019 (64-Bit) -->
<svg xmlns="http://www.w3.org/2000/svg" xml:space="preserve" width="597px" height="240px" version="1.1" style="shape-rendering:geometricPrecision; text-rendering:geometricPrecision; image-rendering:optimizeQuality; fill-rule:evenodd; clip-rule:evenodd"
viewBox="0 0 597 240"
 xmlns:xlink="http://www.w3.org/1999/xlink"
 xmlns:xodm="http://www.corel.com/coreldraw/odm/2003">
 <defs>
  <style type="text/css">
   <![CDATA[
    .fil2 {fill:#FEFEFE}
    .fil1 {fill:#F08519}
    .fil0 {fill:#224192}
   ]]>
  </style>
 </defs>
 <g id="Layer_x0020_1">
  <metadata id="CorelCorpID_0Corel-Layer"/>
  <polygon class="fil0" points="0,0 597,0 597,240 0,240 "/>
  <path class="fil1" d="M25.2 179.45l0 -2.07c1.67,-1 2.93,-1.9 3.8,-2.73 0.35,-4.06 0.53,-13.01 0.53,-26.88 0,-10.05 -0.15,-17.15 -0.44,-21.32 -0.15,-2.26 -0.45,-3.58 -0.91,-3.97 -0.65,-0.58 -2.87,-0.96 -6.67,-1.14l0 -3.6 8.42 0.15 6.46 0.12c1.97,0 4.85,-0.05 8.69,-0.14 3.71,-0.09 6.39,-0.13 7.99,-0.13 6.49,0 11.15,1.08 13.95,3.24 2.81,2.18 4.22,5.13 4.22,8.89 0,3.86 -1.38,7.03 -4.16,9.46 -2.77,2.45 -6.69,4.19 -11.75,5.24l0 0.36c5.21,0.53 8.86,1.32 10.97,2.39 2.11,1.05 3.8,2.7 5.08,4.94 1.29,2.24 1.94,4.77 1.94,7.64 0,3.5 -1.07,6.81 -3.19,9.93 -2.11,3.12 -4.92,5.51 -8.42,7.15 -3.5,1.65 -8.43,2.47 -14.78,2.47 -1.26,0 -3.14,-0.04 -5.66,-0.13 -2.34,-0.09 -4.26,-0.14 -5.75,-0.14 -1.67,0 -5.11,0.09 -10.32,0.27zm16.85 -36.4l2.3 0c4.95,0 8.44,-0.9 10.45,-2.68 2.01,-1.81 3.02,-4.61 3.02,-8.43 0,-3.35 -0.81,-5.83 -2.45,-7.4 -1.64,-1.59 -4.32,-2.39 -8.06,-2.39 -1.38,0 -3.08,0.12 -5.08,0.36 -0.15,9.03 -0.22,14.55 -0.22,16.58l0.04 3.96zm0.09 31.45c1.7,0.42 3.3,0.63 4.81,0.63 4.16,0 7.37,-1.2 9.59,-3.59 2.24,-2.4 3.35,-5.92 3.35,-10.57 0,-3.02 -0.51,-5.5 -1.52,-7.43 -1.02,-1.93 -2.41,-3.35 -4.19,-4.3 -1.77,-0.95 -4.31,-1.41 -7.59,-1.41l-4.45 0.04 0 1.14 -0.09 11.45 0.09 11.56 0 2.48zm79.38 1.35l0 3.6 -3.41 -0.13c-1.8,-0.09 -3.59,-0.14 -5.39,-0.14 -2.78,0 -5.41,0.09 -7.88,0.27l-0.44 -0.48 0.45 -6.06 -9.16 6.88c-1.64,0.37 -3.09,0.57 -4.35,0.57 -3.1,0 -5.5,-0.94 -7.2,-2.78 -1.69,-1.85 -2.53,-4.54 -2.53,-8.1 0,-4.37 1.15,-7.45 3.46,-9.23 2.98,-2.34 9.57,-4.45 19.78,-6.29 -0.06,-3.46 -0.66,-5.97 -1.79,-7.51 -1.6,-2.15 -4.08,-3.22 -7.43,-3.22 -0.79,0 -1.59,0.09 -2.43,0.29 -0.83,0.19 -1.67,0.48 -2.51,0.9l-1.97 4.67 -3.06 -0.75 0.09 -1.97 -0.04 -1.93 -0.05 -1.76c4.49,-2.78 7.72,-4.54 9.69,-5.23 1.42,-0.52 3.42,-0.79 5.97,-0.79 3.47,0 6.28,0.52 8.46,1.56 2.16,1.05 3.75,2.46 4.74,4.26 1.01,1.79 1.5,4.4 1.5,7.84 0,1.44 -0.06,4.01 -0.18,7.72 -0.12,3.81 -0.18,6.89 -0.18,9.21 0,3.67 0.11,5.91 0.32,6.71 0.1,0.46 0.39,0.82 0.86,1.09 0.45,0.27 2.01,0.53 4.68,0.8zm-16.67 -18.11c-5.16,1.11 -8.54,2.33 -10.09,3.63 -1.56,1.31 -2.34,3.07 -2.34,5.28 0,1.8 0.49,3.21 1.5,4.23 0.99,1.04 2.27,1.55 3.78,1.55 2.33,0 4.72,-1.31 7.15,-3.92l0 -10.77zm21.27 21.71l0 -3.6c3.13,-0.18 4.89,-0.43 5.3,-0.77 0.4,-0.34 0.64,-1.09 0.73,-2.26 0.18,-2.96 0.27,-8.19 0.27,-15.67 0,-3.69 -0.06,-6.87 -0.18,-9.55 -0.06,-1.63 -0.16,-2.61 -0.34,-2.89 -0.14,-0.24 -0.38,-0.43 -0.68,-0.53 -0.31,-0.12 -2.03,-0.22 -5.1,-0.32l0 -3.42c1.57,0 4.05,-0.34 7.4,-1.02 3.35,-0.69 6.17,-1.47 8.45,-2.36l1.19 -0.4c0.41,0 0.62,0.33 0.62,1l-0.05 0.41c-0.09,0.82 -0.14,2.93 -0.14,6.34l6.81 -5.73c0.85,-0.73 1.72,-1.23 2.64,-1.5 1.28,-0.34 2.85,-0.52 4.69,-0.52 3.1,0 5.64,0.54 7.62,1.6 1.97,1.08 3.43,2.56 4.34,4.46 0.92,1.9 1.39,4.84 1.39,8.83 0,1.77 -0.05,3.82 -0.14,6.13 -0.15,4.76 -0.22,8.87 -0.22,12.34 0,1.99 0.16,3.35 0.48,4.12 0.24,0.52 0.57,0.87 0.99,1.05 0.43,0.18 2.04,0.39 4.83,0.66l0 3.6 -5.42 -0.18 -3.48 -0.09 -9.09 0.27 -0.48 -0.57c0.78,-5.57 1.17,-11.3 1.17,-17.18 0,-7.44 -0.45,-12.04 -1.36,-13.77 -1.18,-2.23 -3.31,-3.34 -6.42,-3.34 -1.99,0 -3.72,0.51 -5.18,1.51 -1.47,1.02 -2.41,2.1 -2.85,3.25 -0.21,0.46 -0.32,1.95 -0.32,4.46 0,10.63 0.05,16.72 0.14,18.27 0.09,1.55 0.35,2.49 0.75,2.84 0.54,0.45 2.52,0.75 5.96,0.93l0 3.6c-5.1,-0.18 -9.41,-0.27 -12.93,-0.27 -2.08,0 -5.88,0.09 -11.39,0.27zm54.58 0l0 -3.6c3.15,-0.12 4.99,-0.33 5.53,-0.62 0.25,-0.18 0.46,-0.43 0.61,-0.79 0.24,-0.65 0.39,-3.59 0.48,-8.83 0.09,-5.26 0.14,-10.71 0.14,-16.38 0,-4.59 -0.08,-10.47 -0.23,-17.66 -0.12,-5.25 -0.25,-8.14 -0.42,-8.71 -0.15,-0.57 -0.46,-1.01 -0.94,-1.28 -0.47,-0.29 -2.2,-0.45 -5.17,-0.51l0 -3.15c3.94,-0.38 7.12,-0.85 9.57,-1.37 2.44,-0.54 4.67,-1.26 6.69,-2.16 0.56,-0.23 0.97,-0.35 1.19,-0.35 0.44,0 0.66,0.39 0.66,1.19l-0.07 1.89c-0.11,2.18 -0.21,10.44 -0.29,24.78l-0.09 12.31 0.09 2.42c6.19,-5.24 12.59,-11.56 19.18,-18.98 2.09,0.18 3.95,0.27 5.58,0.27 1.96,0 4.04,-0.09 6.24,-0.27l0 3.6c-3.26,0.18 -5.21,0.38 -5.89,0.59 -0.68,0.22 -1.68,0.84 -3,1.86 -1.31,1.02 -4.99,4.22 -11.01,9.6l6.35 7.17c7.3,8.29 11.59,12.98 12.9,14.06 0.84,0.74 2.01,1.17 3.53,1.32l0 3.6c-3.29,-0.18 -6.31,-0.27 -9.07,-0.27 -2.13,0 -4.25,0.09 -6.32,0.27 -2.92,-3.84 -5.82,-7.4 -8.73,-10.69 -3.95,-4.47 -7.21,-7.94 -9.76,-10.37l0 7.1c0,4.11 0.18,6.91 0.54,8.38 0.14,0.64 0.44,1.09 0.89,1.33 0.43,0.26 2.25,0.47 5.42,0.65l0 3.6c-5.68,-0.18 -9.48,-0.27 -11.4,-0.27 -1.85,0 -6.25,0.09 -13.2,0.27z"/>
  <path class="fil2" d="M239.09 160.95l3.77 0c0.03,4.33 0.17,6.87 0.42,7.62 0.26,0.74 1.09,1.72 2.53,2.93 1.44,1.21 3.29,2.2 5.58,2.96 2.28,0.76 4.62,1.14 7.03,1.14 4.13,0 7.42,-1.09 9.91,-3.29 2.47,-2.19 3.71,-4.93 3.71,-8.19 0,-3.02 -0.82,-5.32 -2.46,-6.92 -1.66,-1.62 -4.81,-2.76 -9.47,-3.43 -6.89,-0.99 -11.55,-2.06 -13.95,-3.25 -2.41,-1.16 -4.31,-2.91 -5.7,-5.25 -1.4,-2.35 -2.08,-5.14 -2.08,-8.42 0,-5.49 1.93,-10.16 5.79,-13.97 3.87,-3.82 10.03,-5.72 18.53,-5.72 3.32,0 6.27,0.25 8.86,0.75 2.57,0.49 5.16,1.31 7.76,2.45l0.44 1.05c-0.48,1.85 -0.81,3.52 -1,5.01 -0.2,1.48 -0.38,4.06 -0.53,7.72l-3.77 0c-0.15,-4.5 -0.36,-7.03 -0.66,-7.58 -0.55,-0.96 -1.96,-1.98 -4.22,-3.04 -2.25,-1.06 -4.84,-1.6 -7.75,-1.6 -3.99,0 -7.09,0.97 -9.29,2.92 -2.2,1.94 -3.3,4.44 -3.3,7.51 0,1.87 0.45,3.5 1.36,4.89 0.9,1.37 2.17,2.41 3.78,3.07 1.63,0.65 5.12,1.4 10.46,2.25 4.86,0.72 8.14,1.44 9.88,2.14 2.82,1.14 4.98,2.88 6.43,5.21 1.47,2.35 2.2,5.3 2.2,8.86 0,6.18 -2.37,11.32 -7.09,15.44 -4.75,4.1 -11.21,6.15 -19.41,6.15 -3.65,0 -6.97,-0.35 -9.95,-1.05 -2.97,-0.7 -6.06,-1.86 -9.24,-3.47 0.52,-2.04 0.87,-3.89 1.05,-5.55 0.22,-2.31 0.35,-5.42 0.38,-9.34zm51.07 -39.39l0 -3.59c5.95,0.18 11.19,0.27 15.69,0.27 2.86,0 6.9,-0.09 12.13,-0.27l0 3.59c-2.69,0 -4.59,0.24 -5.7,0.7 -0.39,0.15 -0.69,0.39 -0.92,0.75 -0.32,0.4 -0.54,1.09 -0.66,2.07 -0.17,1.63 -0.32,6.35 -0.44,14.13 -0.06,5.42 -0.09,10.92 -0.09,16.52 0,4.59 0.53,7.97 1.57,10.13 1.05,2.15 2.58,3.75 4.6,4.8 2.9,1.5 6.09,2.25 9.51,2.25 4.7,0 8.28,-0.78 10.74,-2.34 2.49,-1.54 4.15,-3.68 4.99,-6.4 0.85,-2.73 1.27,-8.69 1.27,-17.88l-0.05 -16.25c-0.03,-3.66 -0.21,-5.86 -0.52,-6.6 -0.18,-0.4 -0.48,-0.71 -0.93,-0.91 -0.7,-0.42 -2.83,-0.73 -6.4,-0.97l0 -3.59c3.78,0.18 7.29,0.27 10.47,0.27 2.77,0 6.15,-0.09 10.17,-0.27l0 3.59c-2.9,0 -4.71,0.33 -5.43,0.97 -0.71,0.64 -1.15,2.31 -1.3,5 -0.33,6.55 -0.51,13.97 -0.54,22.26 0,5.3 -0.06,8.77 -0.18,10.41 -0.31,4.04 -1.3,7.48 -2.93,10.34 -1.64,2.86 -4.35,5.21 -8.15,7.05 -3.8,1.84 -8.53,2.77 -14.17,2.77 -5.86,0 -10.74,-0.89 -14.63,-2.64 -3.89,-1.76 -6.66,-3.98 -8.29,-6.65 -1.63,-2.68 -2.45,-6.6 -2.45,-11.79l0.18 -19.77c0,-1.57 -0.06,-5.59 -0.18,-12.07 -0.06,-2.02 -0.29,-3.4 -0.66,-4.13 -0.24,-0.4 -0.59,-0.73 -1.08,-0.96 -0.48,-0.24 -2.35,-0.49 -5.62,-0.79zm70.18 57.9l0 -3.59 2.62 -0.18c2.12,-0.12 3.44,-0.5 3.98,-1.12 0.53,-0.62 0.85,-2.73 0.94,-6.33 0.18,-7.21 0.27,-15.04 0.27,-23.45 0,-4.47 -0.02,-9.56 -0.05,-15.26 -0.03,-3.44 -0.22,-5.55 -0.57,-6.31 -0.18,-0.37 -0.49,-0.69 -0.97,-0.91 -0.46,-0.24 -2.54,-0.48 -6.22,-0.75l0 -3.59c3.53,0.06 6.98,0.09 10.37,0.09 3.93,0 7.72,-0.03 11.37,-0.09 1.57,3.71 3.2,7.39 4.89,11.04 1.2,2.59 6.49,13.61 15.87,33.06 9.98,-19.97 16.97,-34.68 20.95,-44.1 3.51,0.18 6.85,0.27 10.01,0.27 3.71,0 7.28,-0.09 10.74,-0.27l0 3.59c-3.88,0.24 -6.06,0.58 -6.57,1.02 -0.49,0.44 -0.82,1.81 -0.97,4.1 -0.18,3.68 -0.27,10.68 -0.27,20.99 0,5.19 0.04,10.69 0.13,16.47 0.09,5.79 0.29,9.06 0.59,9.84 0.21,0.45 0.49,0.8 0.88,1.03 0.39,0.24 2.45,0.53 6.21,0.86l0 3.59c-4.73,-0.18 -8.96,-0.27 -12.67,-0.27 -3.74,0 -8.82,0.09 -15.25,0.27l0 -3.59 2.56 -0.09c2.02,-0.09 3.29,-0.38 3.78,-0.85 0.51,-0.5 0.84,-1.77 0.99,-3.85 0.14,-2.08 0.21,-6.94 0.21,-14.6l0 -26.47c-4.52,9.05 -10.28,20.92 -17.29,35.58 -2.88,6.04 -5.12,10.95 -6.74,14.77l-2.84 0c-2.2,-5.05 -5.13,-11.4 -8.8,-19.11l-15.14 -31.24 0 5.96c0,16.48 0.06,27.84 0.18,34.06 0.09,2.53 0.42,4.1 1.01,4.69 0.58,0.59 2.76,0.97 6.53,1.15l0 3.59c-2.96,-0.18 -5.94,-0.27 -8.9,-0.27 -4.43,0 -8.36,0.09 -11.83,0.27zm89.4 -57.9l0 -3.59c5.96,0.18 11.2,0.27 15.7,0.27 2.86,0 6.9,-0.09 12.13,-0.27l0 3.59c-2.69,0 -4.59,0.24 -5.7,0.7 -0.39,0.15 -0.69,0.39 -0.93,0.75 -0.31,0.4 -0.53,1.09 -0.65,2.07 -0.17,1.63 -0.32,6.35 -0.44,14.13 -0.06,5.42 -0.09,10.92 -0.09,16.52 0,4.59 0.53,7.97 1.57,10.13 1.05,2.15 2.58,3.75 4.6,4.8 2.9,1.5 6.09,2.25 9.51,2.25 4.7,0 8.28,-0.78 10.74,-2.34 2.49,-1.54 4.15,-3.68 4.99,-6.4 0.85,-2.73 1.27,-8.69 1.27,-17.88l-0.05 -16.25c-0.03,-3.66 -0.21,-5.86 -0.52,-6.6 -0.18,-0.4 -0.48,-0.71 -0.93,-0.91 -0.7,-0.42 -2.83,-0.73 -6.4,-0.97l0 -3.59c3.78,0.18 7.28,0.27 10.47,0.27 2.77,0 6.15,-0.09 10.17,-0.27l0 3.59c-2.9,0 -4.71,0.33 -5.43,0.97 -0.71,0.64 -1.15,2.31 -1.3,5 -0.33,6.55 -0.51,13.97 -0.54,22.26 0,5.3 -0.06,8.77 -0.18,10.41 -0.31,4.04 -1.3,7.48 -2.93,10.34 -1.64,2.86 -4.35,5.21 -8.15,7.05 -3.8,1.84 -8.53,2.77 -14.17,2.77 -5.86,0 -10.74,-0.89 -14.63,-2.64 -3.89,-1.76 -6.66,-3.98 -8.29,-6.65 -1.63,-2.68 -2.45,-6.6 -2.45,-11.79l0.18 -19.77c0,-1.57 -0.07,-5.59 -0.18,-12.07 -0.06,-2.02 -0.29,-3.4 -0.66,-4.13 -0.24,-0.4 -0.59,-0.73 -1.08,-0.96 -0.48,-0.24 -2.35,-0.49 -5.63,-0.79zm82.48 57.9l0 -3.59c1.65,0 3.37,-0.15 5.15,-0.44 0.84,-0.15 1.42,-0.39 1.78,-0.73 0.35,-0.33 0.6,-0.94 0.78,-1.85 0.19,-1.26 0.37,-5.87 0.51,-13.84 0.09,-5.67 0.13,-11.45 0.13,-17.34 0,-11.6 -0.03,-17.49 -0.1,-17.72 -0.08,-0.22 -1.11,-0.33 -3.11,-0.33 -4.07,0 -7.57,0.12 -10.52,0.36 -1.69,0.14 -2.65,0.29 -2.87,0.44 -0.23,0.15 -0.39,0.4 -0.51,0.77 -0.12,0.38 -0.36,2.97 -0.75,7.77l-3.77 0c0.06,-5.67 -0.09,-10.55 -0.45,-14.63l0.48 -0.36c9.21,0.42 18.18,0.63 26.88,0.63 8.68,0 18.41,-0.21 29.16,-0.63l0.48 0.72c-0.55,4.05 -0.94,8.81 -1.16,14.27l-3.69 0c-0.26,-4.97 -0.52,-7.68 -0.79,-8.08 -0.19,-0.33 -0.66,-0.55 -1.39,-0.67 -2.33,-0.39 -6.97,-0.59 -13.93,-0.59 -0.58,0 -0.93,0.09 -1.05,0.27 -0.11,0.2 -0.16,0.98 -0.16,2.32l-0.27 29.47c0,8.55 0.08,13.78 0.23,15.73 0.13,1.94 0.49,3.13 1.04,3.53 0.39,0.27 2.68,0.58 6.9,0.93l0 3.59c-4.28,-0.18 -8.83,-0.27 -13.63,-0.27 -6.31,0 -11.43,0.09 -15.37,0.27z"/>
  <path class="fil2" d="M197.52 212.07l0 -0.99 0.73 -0.05c0.59,-0.04 0.95,-0.14 1.1,-0.31 0.15,-0.18 0.24,-0.76 0.26,-1.76 0.05,-2 0.08,-4.17 0.08,-6.5 0,-1.24 -0.01,-2.65 -0.02,-4.23 0,-0.96 -0.06,-1.54 -0.15,-1.76 -0.05,-0.1 -0.14,-0.19 -0.27,-0.25 -0.13,-0.06 -0.71,-0.13 -1.73,-0.21l0 -0.99c0.98,0.02 1.94,0.02 2.88,0.02 1.09,0 2.14,0 3.15,-0.02 0.44,1.03 0.89,2.05 1.36,3.06 0.33,0.72 1.8,3.78 4.4,9.17 2.77,-5.54 4.7,-9.62 5.81,-12.23 0.97,0.05 1.9,0.07 2.77,0.07 1.03,0 2.02,-0.02 2.98,-0.07l0 0.99c-1.07,0.07 -1.68,0.17 -1.82,0.29 -0.14,0.12 -0.23,0.5 -0.27,1.13 -0.05,1.02 -0.07,2.97 -0.07,5.82 0,1.44 0.01,2.97 0.03,4.57 0.03,1.61 0.08,2.52 0.16,2.73 0.06,0.13 0.14,0.22 0.25,0.29 0.11,0.07 0.68,0.14 1.72,0.24l0 0.99c-1.31,-0.05 -2.48,-0.07 -3.51,-0.07 -1.04,0 -2.45,0.02 -4.23,0.07l0 -0.99 0.71 -0.03c0.56,-0.02 0.91,-0.1 1.05,-0.24 0.14,-0.13 0.23,-0.49 0.27,-1.06 0.04,-0.58 0.06,-1.93 0.06,-4.05l0 -7.34c-1.25,2.51 -2.85,5.8 -4.8,9.87 -0.79,1.67 -1.42,3.03 -1.86,4.09l-0.79 0c-0.61,-1.4 -1.42,-3.16 -2.44,-5.3l-4.2 -8.66 0 1.65c0,4.57 0.02,7.72 0.05,9.45 0.02,0.7 0.12,1.13 0.28,1.3 0.16,0.16 0.77,0.27 1.81,0.32l0 0.99c-0.82,-0.05 -1.65,-0.07 -2.47,-0.07 -1.23,0 -2.32,0.02 -3.28,0.07zm34.95 -2.36l0.35 0.36 -0.54 1.16c-0.59,0.36 -1.21,0.63 -1.88,0.82 -0.67,0.18 -1.38,0.27 -2.13,0.27 -1.77,0 -3.16,-0.51 -4.18,-1.54 -1.02,-1.02 -1.53,-2.46 -1.53,-4.32 0,-1.18 0.15,-2.15 0.45,-2.92 0.25,-0.62 0.65,-1.14 1.2,-1.55 0.56,-0.42 1.2,-0.81 1.92,-1.18 0.73,-0.38 1.53,-0.56 2.39,-0.56 1.33,0 2.43,0.37 3.3,1.11 0.86,0.74 1.3,1.94 1.3,3.59 0,0.2 -0.02,0.51 -0.05,0.92l-1.99 0.36c-0.62,0.05 -1.5,0.07 -2.67,0.07l-2.63 0c0.12,1.39 0.54,2.44 1.25,3.15 0.71,0.7 1.62,1.05 2.72,1.05 0.46,0 0.92,-0.06 1.37,-0.2 0.46,-0.13 0.9,-0.33 1.35,-0.59zm-6.77 -4.71c0.73,0.07 1.46,0.1 2.19,0.1 0.64,0 1.31,-0.03 2.02,-0.1l0.01 -0.57c0,-0.99 -0.18,-1.72 -0.55,-2.18 -0.36,-0.46 -0.86,-0.68 -1.48,-0.68 -0.44,0 -0.82,0.1 -1.13,0.32 -0.32,0.21 -0.55,0.51 -0.71,0.9 -0.15,0.39 -0.27,1.13 -0.35,2.21zm9.14 7.07l0 -0.99c0.83,-0.04 1.3,-0.09 1.42,-0.17 0.12,-0.08 0.19,-0.22 0.22,-0.42 0.07,-0.39 0.1,-1.34 0.1,-2.82 0,-3.12 -0.04,-4.81 -0.12,-5.07 -0.06,-0.22 -0.35,-0.33 -0.84,-0.34l-0.78 -0.02 0 -0.95c0.99,-0.11 1.83,-0.24 2.53,-0.4 0.7,-0.16 1.33,-0.35 1.9,-0.58 0.11,-0.04 0.2,-0.06 0.25,-0.06 0.11,0 0.17,0.1 0.17,0.3 0,0.16 -0.01,0.36 -0.03,0.63 -0.01,0.11 -0.02,0.32 -0.02,0.61l0 0.44 1.99 -1.51c0.42,-0.32 1.06,-0.47 1.92,-0.47 0.86,0 1.55,0.17 2.06,0.5 0.51,0.34 0.9,0.88 1.16,1.63l2.07 -1.66c0.39,-0.32 0.95,-0.47 1.66,-0.47 1.27,0 2.21,0.31 2.81,0.93 0.6,0.63 0.89,1.64 0.89,3.05l-0.02 1.01c-0.03,1.12 -0.05,2.12 -0.05,3 0,1.16 0.04,1.91 0.11,2.25 0.05,0.19 0.13,0.32 0.25,0.4 0.11,0.07 0.57,0.14 1.36,0.19l0 0.99c-1.01,-0.05 -1.89,-0.07 -2.64,-0.07 -0.73,0 -1.49,0.02 -2.27,0.07l-0.15 -0.23c0.22,-1.74 0.33,-3.44 0.33,-5.1 0,-1.97 -0.16,-3.2 -0.46,-3.69 -0.3,-0.49 -0.84,-0.74 -1.6,-0.74 -0.51,0 -0.95,0.13 -1.33,0.38 -0.37,0.25 -0.63,0.54 -0.75,0.86 -0.08,0.23 -0.12,0.94 -0.12,2.14 0,2.14 0.03,3.62 0.09,4.44 0.02,0.36 0.1,0.59 0.22,0.7 0.13,0.1 0.65,0.18 1.56,0.25l0 0.99c-1.06,-0.05 -2.1,-0.07 -3.12,-0.07 -1.28,0 -2.42,0.02 -3.43,0.07l0 -0.99c0.79,0 1.25,-0.12 1.39,-0.35 0.14,-0.23 0.2,-1.25 0.2,-3.05 0,-2.05 -0.04,-3.33 -0.12,-3.83 -0.08,-0.51 -0.27,-0.89 -0.59,-1.15 -0.31,-0.26 -0.73,-0.39 -1.29,-0.39 -0.4,0 -0.77,0.09 -1.09,0.28 -0.34,0.19 -0.61,0.45 -0.84,0.79 -0.13,0.19 -0.2,0.48 -0.2,0.87l0.01 0.46c0.03,0.23 0.04,0.86 0.04,1.91l-0.01 1.44c0,1.38 0.02,2.19 0.07,2.44 0.03,0.16 0.09,0.28 0.2,0.36 0.11,0.07 0.56,0.14 1.33,0.22l0 0.99c-0.96,-0.05 -2.02,-0.07 -3.18,-0.07 -0.4,0 -1.49,0.02 -3.26,0.07zm24.28 0.25l-0.58 -0.23c0.15,-1.96 0.23,-4.67 0.23,-8.13 0,-1.57 -0.02,-2.78 -0.04,-3.63l-0.07 -3.12c0,-0.48 -0.04,-0.8 -0.13,-0.96 -0.05,-0.1 -0.15,-0.17 -0.3,-0.21 -0.1,-0.03 -0.58,-0.07 -1.43,-0.1l0 -0.87c0.44,0 1.15,-0.1 2.12,-0.28 0.98,-0.19 1.7,-0.38 2.19,-0.59l0.53 -0.2c0.16,0 0.24,0.09 0.24,0.29l-0.04 1.27c-0.02,0.44 -0.05,2.74 -0.09,6.88l1.47 -1.22c0.47,-0.39 0.88,-0.65 1.25,-0.78 0.37,-0.13 0.81,-0.19 1.33,-0.19 1.37,0 2.46,0.43 3.28,1.3 0.83,0.87 1.24,2 1.24,3.4 0,0.69 -0.12,1.4 -0.34,2.13 -0.23,0.74 -0.51,1.34 -0.85,1.8 -0.34,0.47 -0.77,0.88 -1.31,1.24 -0.67,0.43 -1.24,0.82 -1.71,1.18 -0.56,0.42 -1.03,0.7 -1.41,0.83 -0.38,0.12 -0.85,0.19 -1.4,0.19 -0.54,0 -1.05,-0.07 -1.52,-0.21 -0.47,-0.13 -1,-0.38 -1.6,-0.74 -0.19,0.14 -0.54,0.46 -1.06,0.95zm2.63 -8.6l0 5.58c0.3,0.45 0.66,0.78 1.09,1.01 0.42,0.23 0.9,0.34 1.43,0.34 0.87,0 1.57,-0.34 2.1,-1.03 0.54,-0.7 0.81,-1.75 0.81,-3.16 0,-1.33 -0.27,-2.33 -0.82,-3.01 -0.55,-0.67 -1.26,-1.01 -2.15,-1.01 -0.47,0 -0.91,0.11 -1.32,0.32 -0.41,0.21 -0.79,0.54 -1.14,0.96zm20.51 5.99l0.35 0.36 -0.54 1.16c-0.59,0.36 -1.22,0.63 -1.88,0.82 -0.67,0.18 -1.38,0.27 -2.14,0.27 -1.76,0 -3.15,-0.51 -4.17,-1.54 -1.02,-1.02 -1.53,-2.46 -1.53,-4.32 0,-1.18 0.15,-2.15 0.45,-2.92 0.25,-0.62 0.64,-1.14 1.2,-1.55 0.56,-0.42 1.2,-0.81 1.92,-1.18 0.73,-0.38 1.52,-0.56 2.39,-0.56 1.33,0 2.43,0.37 3.3,1.11 0.86,0.74 1.3,1.94 1.3,3.59 0,0.2 -0.02,0.51 -0.05,0.92l-1.99 0.36c-0.62,0.05 -1.51,0.07 -2.67,0.07l-2.64 0c0.12,1.39 0.54,2.44 1.26,3.15 0.71,0.7 1.62,1.05 2.72,1.05 0.46,0 0.92,-0.06 1.37,-0.2 0.45,-0.13 0.9,-0.33 1.35,-0.59zm-6.77 -4.71c0.73,0.07 1.46,0.1 2.19,0.1 0.64,0 1.31,-0.03 2.02,-0.1l0.01 -0.57c0,-0.99 -0.18,-1.72 -0.55,-2.18 -0.36,-0.46 -0.86,-0.68 -1.48,-0.68 -0.44,0 -0.82,0.1 -1.13,0.32 -0.32,0.21 -0.55,0.51 -0.71,0.9 -0.15,0.39 -0.27,1.13 -0.35,2.21zm8.61 7.07l0 -0.99c0.82,-0.05 1.29,-0.09 1.41,-0.15 0.09,-0.05 0.17,-0.12 0.23,-0.23 0.09,-0.2 0.14,-0.62 0.16,-1.29 0.03,-1.18 0.05,-2.26 0.05,-3.23 0,-1.88 -0.03,-2.99 -0.08,-3.33 -0.02,-0.21 -0.1,-0.35 -0.21,-0.44 -0.13,-0.08 -0.64,-0.14 -1.56,-0.17l0 -0.95c1.64,-0.16 2.81,-0.35 3.51,-0.57l1.25 -0.47c0.11,0 0.17,0.07 0.17,0.23l-0.01 0.17c-0.03,0.51 -0.04,1.24 -0.04,2.2 0.41,-0.4 0.87,-0.9 1.36,-1.51 0.37,-0.45 0.7,-0.75 0.97,-0.89 0.27,-0.13 0.64,-0.2 1.1,-0.2 0.25,0 0.51,0.04 0.78,0.13 -0.07,0.81 -0.13,1.92 -0.15,3.31l-0.54 0.19c-0.19,-0.31 -0.39,-0.53 -0.61,-0.65 -0.22,-0.13 -0.51,-0.2 -0.86,-0.2 -0.48,0 -0.89,0.13 -1.24,0.38 -0.34,0.25 -0.57,0.54 -0.66,0.87 -0.06,0.24 -0.1,1.07 -0.1,2.48 0,2.06 0.03,3.26 0.08,3.6 0.04,0.23 0.11,0.38 0.23,0.46 0.19,0.12 0.79,0.21 1.81,0.26l0 0.99 -1.36 -0.04c-0.86,-0.02 -1.61,-0.03 -2.24,-0.03 -0.59,0 -1.29,0.01 -2.08,0.03l-1.37 0.04zm13.58 -17.65c0.52,0 0.97,0.18 1.33,0.55 0.37,0.37 0.56,0.82 0.56,1.35 0,0.52 -0.19,0.96 -0.56,1.33 -0.36,0.37 -0.81,0.55 -1.34,0.55 -0.52,0 -0.97,-0.18 -1.33,-0.55 -0.37,-0.37 -0.56,-0.81 -0.56,-1.33 0,-0.53 0.19,-0.98 0.56,-1.35 0.36,-0.37 0.81,-0.55 1.34,-0.55zm-3.39 17.65l0 -0.99c0.92,-0.04 1.45,-0.09 1.59,-0.17 0.15,-0.09 0.24,-0.31 0.28,-0.69 0.06,-0.51 0.1,-1.63 0.1,-3.38 0,-0.75 -0.02,-1.44 -0.04,-2.09l-0.04 -1.42c0,-0.47 -0.05,-0.76 -0.15,-0.87 -0.1,-0.11 -0.38,-0.17 -0.82,-0.18l-0.92 -0.04 0 -0.95c1.95,-0.15 3.56,-0.5 4.82,-1.04l0.31 0.24c-0.12,1.55 -0.18,3.81 -0.18,6.77 0,1.72 0.03,2.75 0.09,3.11 0.04,0.25 0.11,0.41 0.22,0.49 0.11,0.07 0.64,0.14 1.59,0.22l0 0.99c-1.46,-0.05 -2.6,-0.07 -3.4,-0.07 -0.43,0 -1.58,0.02 -3.45,0.07zm8.14 0l0 -0.99c0.87,-0.04 1.38,-0.1 1.53,-0.17 0.07,-0.05 0.13,-0.13 0.17,-0.22 0.06,-0.18 0.1,-1 0.13,-2.44 0.02,-1.46 0.04,-2.96 0.04,-4.53 0,-1.27 -0.02,-2.89 -0.07,-4.88 -0.03,-1.45 -0.07,-2.25 -0.11,-2.41 -0.04,-0.15 -0.13,-0.27 -0.26,-0.35 -0.13,-0.08 -0.61,-0.12 -1.43,-0.14l0 -0.87c1.09,-0.11 1.97,-0.23 2.64,-0.38 0.68,-0.15 1.29,-0.35 1.85,-0.6 0.16,-0.06 0.27,-0.09 0.33,-0.09 0.12,0 0.18,0.11 0.18,0.33l-0.02 0.52c-0.03,0.6 -0.06,2.88 -0.08,6.84l-0.02 3.41 0.02 0.67c1.71,-1.45 3.48,-3.2 5.3,-5.25 0.58,0.05 1.09,0.08 1.55,0.08 0.53,0 1.11,-0.03 1.72,-0.08l0 1c-0.9,0.05 -1.44,0.1 -1.63,0.16 -0.19,0.06 -0.46,0.23 -0.83,0.51 -0.36,0.28 -1.38,1.17 -3.04,2.65l1.75 1.99c2.02,2.29 3.21,3.58 3.57,3.88 0.23,0.2 0.55,0.32 0.97,0.37l0 0.99c-0.9,-0.05 -1.74,-0.07 -2.5,-0.07 -0.59,0 -1.18,0.02 -1.75,0.07 -0.8,-1.06 -1.6,-2.04 -2.41,-2.95 -1.09,-1.24 -1.99,-2.2 -2.7,-2.87l0 1.96c0,1.14 0.05,1.91 0.15,2.32 0.04,0.18 0.12,0.3 0.25,0.37 0.12,0.07 0.62,0.13 1.5,0.18l0 0.99c-1.57,-0.05 -2.62,-0.07 -3.15,-0.07 -0.51,0 -1.73,0.02 -3.65,0.07zm26.51 -0.99l0 0.99 -0.94 -0.04c-0.5,-0.02 -1,-0.03 -1.49,-0.03 -0.77,0 -1.5,0.02 -2.18,0.07l-0.12 -0.13 0.12 -1.68 -2.53 1.9c-0.45,0.11 -0.85,0.16 -1.2,0.16 -0.86,0 -1.52,-0.26 -1.99,-0.77 -0.47,-0.51 -0.7,-1.25 -0.7,-2.23 0,-1.21 0.32,-2.06 0.96,-2.56 0.82,-0.64 2.64,-1.22 5.46,-1.73 -0.01,-0.96 -0.18,-1.65 -0.49,-2.08 -0.45,-0.59 -1.13,-0.89 -2.06,-0.89 -0.22,0 -0.43,0.03 -0.67,0.08 -0.23,0.06 -0.46,0.14 -0.69,0.25l-0.54 1.29 -0.85 -0.21 0.02 -0.54 -0.01 -0.53 -0.01 -0.49c1.24,-0.77 2.13,-1.25 2.68,-1.44 0.39,-0.15 0.94,-0.22 1.65,-0.22 0.96,0 1.73,0.14 2.33,0.43 0.6,0.29 1.04,0.68 1.31,1.18 0.28,0.49 0.42,1.21 0.42,2.16 0,0.4 -0.02,1.11 -0.05,2.13 -0.03,1.06 -0.05,1.91 -0.05,2.55 0,1.01 0.03,1.63 0.09,1.85 0.03,0.13 0.11,0.23 0.23,0.31 0.13,0.07 0.56,0.14 1.3,0.22zm-4.61 -5.01c-1.42,0.31 -2.36,0.64 -2.79,1.01 -0.43,0.36 -0.64,0.84 -0.64,1.45 0,0.5 0.13,0.89 0.41,1.17 0.28,0.29 0.63,0.43 1.05,0.43 0.64,0 1.3,-0.36 1.97,-1.08l0 -2.98zm5.88 6l0 -0.99c0.87,-0.05 1.35,-0.13 1.46,-0.22 0.11,-0.09 0.18,-0.3 0.21,-0.62 0.05,-0.82 0.07,-2.26 0.07,-4.33 0,-1.02 -0.02,-1.9 -0.05,-2.64 -0.02,-0.45 -0.05,-0.72 -0.1,-0.8 -0.03,-0.07 -0.1,-0.12 -0.18,-0.14 -0.09,-0.04 -0.56,-0.07 -1.41,-0.09l0 -0.95c0.43,0 1.12,-0.09 2.04,-0.28 0.93,-0.19 1.71,-0.41 2.34,-0.65l0.33 -0.11c0.11,0 0.17,0.09 0.17,0.27l-0.02 0.12c-0.02,0.22 -0.03,0.81 -0.03,1.75l1.88 -1.58c0.23,-0.21 0.47,-0.34 0.73,-0.42 0.35,-0.09 0.78,-0.14 1.29,-0.14 0.86,0 1.56,0.15 2.11,0.44 0.54,0.3 0.94,0.71 1.2,1.23 0.25,0.52 0.38,1.34 0.38,2.44 0,0.49 -0.01,1.06 -0.04,1.7 -0.04,1.31 -0.06,2.45 -0.06,3.41 0,0.54 0.05,0.92 0.13,1.13 0.07,0.15 0.16,0.24 0.28,0.29 0.12,0.05 0.56,0.11 1.33,0.19l0 0.99 -1.49 -0.05 -0.97 -0.02 -2.51 0.07 -0.13 -0.16c0.22,-1.54 0.32,-3.12 0.32,-4.74 0,-2.06 -0.12,-3.33 -0.38,-3.81 -0.32,-0.62 -0.91,-0.92 -1.77,-0.92 -0.55,0 -1.03,0.14 -1.43,0.42 -0.4,0.28 -0.67,0.58 -0.79,0.89 -0.05,0.13 -0.08,0.54 -0.08,1.23 0,2.94 0.01,4.63 0.03,5.05 0.03,0.43 0.1,0.69 0.21,0.79 0.15,0.12 0.7,0.21 1.65,0.26l0 0.99c-1.41,-0.05 -2.6,-0.07 -3.57,-0.07 -0.58,0 -1.63,0.02 -3.15,0.07zm21.65 0l0 -0.99c0.96,-0.08 1.51,-0.15 1.64,-0.24 0.1,-0.05 0.17,-0.13 0.22,-0.25 0.08,-0.21 0.14,-1.05 0.18,-2.53 0.04,-1.48 0.05,-2.91 0.05,-4.3 0,-2.6 -0.02,-4.45 -0.08,-5.56 -0.05,-1.11 -0.13,-1.74 -0.25,-1.87 -0.12,-0.13 -0.47,-0.21 -1.05,-0.25l-0.71 -0.07 0 -0.99 1.37 0.04c0.86,0.02 1.53,0.03 2.03,0.03 0.69,0 1.8,-0.01 3.33,-0.04 0.83,-0.02 1.44,-0.03 1.83,-0.03 1.45,0 2.52,0.14 3.21,0.41 0.69,0.27 1.22,0.69 1.58,1.25 0.36,0.55 0.54,1.25 0.54,2.08 0,1.5 -0.53,2.76 -1.6,3.78 -1.06,1.01 -2.41,1.52 -4.06,1.52 -0.21,0 -0.43,-0.02 -0.66,-0.05 -0.24,-0.03 -0.49,-0.08 -0.76,-0.13 -0.14,-0.29 -0.28,-0.57 -0.44,-0.85l0.28 -0.29c0.18,0.03 0.35,0.06 0.5,0.09 0.14,0.02 0.28,0.03 0.4,0.03 0.82,0 1.49,-0.28 2.01,-0.85 0.52,-0.57 0.77,-1.37 0.77,-2.39 0,-1.13 -0.27,-1.98 -0.8,-2.54 -0.54,-0.56 -1.33,-0.84 -2.37,-0.84 -0.42,0 -0.91,0.06 -1.48,0.17 -0.09,2.51 -0.13,4.63 -0.13,6.38 0,0.58 0.04,2.45 0.1,5.6 0.02,1.25 0.06,1.96 0.12,2.15 0.04,0.14 0.12,0.23 0.23,0.29 0.18,0.09 0.87,0.17 2.07,0.25l0 0.99c-1.43,-0.05 -2.64,-0.07 -3.62,-0.07 -0.44,0 -1.92,0.02 -4.45,0.07zm25.12 -2.36l0.34 0.36 -0.54 1.16c-0.59,0.36 -1.21,0.63 -1.88,0.82 -0.67,0.18 -1.38,0.27 -2.13,0.27 -1.77,0 -3.16,-0.51 -4.18,-1.54 -1.01,-1.02 -1.52,-2.46 -1.52,-4.32 0,-1.18 0.15,-2.15 0.45,-2.92 0.24,-0.62 0.64,-1.14 1.19,-1.55 0.56,-0.42 1.2,-0.81 1.93,-1.18 0.72,-0.38 1.52,-0.56 2.39,-0.56 1.33,0 2.42,0.37 3.29,1.11 0.87,0.74 1.3,1.94 1.3,3.59 0,0.2 -0.01,0.51 -0.05,0.92l-1.99 0.36c-0.61,0.05 -1.5,0.07 -2.67,0.07l-2.63 0c0.12,1.39 0.54,2.44 1.25,3.15 0.71,0.7 1.62,1.05 2.72,1.05 0.46,0 0.92,-0.06 1.38,-0.2 0.45,-0.13 0.9,-0.33 1.35,-0.59zm-6.78 -4.71c0.73,0.07 1.46,0.1 2.2,0.1 0.63,0 1.31,-0.03 2.01,-0.1l0.01 -0.57c0,-0.99 -0.18,-1.72 -0.54,-2.18 -0.37,-0.46 -0.86,-0.68 -1.48,-0.68 -0.45,0 -0.82,0.1 -1.14,0.32 -0.31,0.21 -0.55,0.51 -0.7,0.9 -0.16,0.39 -0.27,1.13 -0.36,2.21zm9.04 -9.23l0 -0.7c1.16,-0.15 2.07,-0.31 2.74,-0.48 0.67,-0.16 1.39,-0.39 2.17,-0.69l0.32 0.27c-0.12,2.89 -0.18,6.94 -0.18,12.13 0,1.05 0.02,2.11 0.05,3.18 0.02,0.68 0.06,1.08 0.12,1.19 0.06,0.11 0.15,0.19 0.29,0.26 0.13,0.06 0.61,0.11 1.44,0.15l0 0.99 -1.29 -0.04c-0.79,-0.02 -1.47,-0.03 -2.01,-0.03l-3.65 0.07 0 -0.99 0.91 -0.05c0.4,-0.02 0.66,-0.1 0.78,-0.23 0.12,-0.13 0.19,-0.64 0.21,-1.52 0.05,-1.23 0.07,-2.98 0.07,-5.23l-0.02 -5.2c0,-1.59 -0.05,-2.48 -0.13,-2.68 -0.03,-0.1 -0.09,-0.17 -0.18,-0.22 -0.15,-0.09 -0.69,-0.15 -1.64,-0.18zm19.52 15.31l0 0.99 -0.94 -0.04c-0.5,-0.02 -1,-0.03 -1.49,-0.03 -0.77,0 -1.5,0.02 -2.18,0.07l-0.12 -0.13 0.12 -1.68 -2.53 1.9c-0.45,0.11 -0.85,0.16 -1.2,0.16 -0.86,0 -1.52,-0.26 -1.99,-0.77 -0.47,-0.51 -0.7,-1.25 -0.7,-2.23 0,-1.21 0.32,-2.06 0.96,-2.56 0.82,-0.64 2.64,-1.22 5.46,-1.73 -0.01,-0.96 -0.18,-1.65 -0.49,-2.08 -0.45,-0.59 -1.13,-0.89 -2.06,-0.89 -0.22,0 -0.43,0.03 -0.67,0.08 -0.23,0.06 -0.46,0.14 -0.69,0.25l-0.54 1.29 -0.85 -0.21 0.03 -0.54 -0.02 -0.53 -0.01 -0.49c1.24,-0.77 2.13,-1.25 2.68,-1.44 0.39,-0.15 0.94,-0.22 1.65,-0.22 0.96,0 1.73,0.14 2.33,0.43 0.6,0.29 1.04,0.68 1.31,1.18 0.28,0.49 0.42,1.21 0.42,2.16 0,0.4 -0.02,1.11 -0.05,2.13 -0.03,1.06 -0.05,1.91 -0.05,2.55 0,1.01 0.03,1.63 0.09,1.85 0.03,0.13 0.1,0.23 0.23,0.31 0.13,0.07 0.56,0.14 1.3,0.22zm-4.61 -5.01c-1.42,0.31 -2.36,0.64 -2.79,1.01 -0.43,0.36 -0.64,0.84 -0.64,1.45 0,0.5 0.13,0.89 0.41,1.17 0.28,0.29 0.63,0.43 1.05,0.43 0.64,0 1.3,-0.36 1.97,-1.08l0 -2.98zm5.21 -4.55l0 -1c1.86,0.05 3.05,0.08 3.57,0.08 0.72,0 1.74,-0.03 3.05,-0.08l0 1c-0.75,0.03 -1.2,0.08 -1.34,0.16 -0.14,0.08 -0.22,0.21 -0.22,0.38 0,0.24 0.4,1.37 1.2,3.37l1.32 3.35 1.13 -2.65c1.01,-2.37 1.52,-3.74 1.52,-4.1 0,-0.17 -0.07,-0.29 -0.22,-0.36 -0.14,-0.07 -0.57,-0.12 -1.3,-0.15l0 -1 0.77 0.03c0.81,0.03 1.36,0.05 1.62,0.05 0.3,0 1.06,-0.03 2.29,-0.08l0 1c-0.4,0 -0.72,0.06 -0.97,0.18 -0.11,0.06 -0.2,0.14 -0.28,0.26 -0.13,0.18 -0.64,1.3 -1.54,3.36l-2.26 5.17 -2.1 4.78c-0.47,0.98 -0.9,1.67 -1.28,2.06 -0.37,0.4 -0.78,0.69 -1.23,0.88 -0.44,0.19 -0.94,0.28 -1.49,0.28 -0.55,0 -1.13,-0.13 -1.75,-0.41 0.2,-0.8 0.34,-1.58 0.43,-2.34l0.32 -0.11c0.48,0.53 1.03,0.8 1.66,0.8 0.54,0 0.98,-0.18 1.33,-0.53 0.35,-0.34 0.89,-1.35 1.62,-3.02l-2.71 -6.87 -1.49 -3.69c-0.13,-0.3 -0.27,-0.5 -0.42,-0.59 -0.15,-0.09 -0.56,-0.16 -1.23,-0.21zm25.69 9.56l0 0.99 -0.94 -0.04c-0.5,-0.02 -0.99,-0.03 -1.49,-0.03 -0.77,0 -1.49,0.02 -2.18,0.07l-0.12 -0.13 0.13 -1.68 -2.54 1.9c-0.45,0.11 -0.85,0.16 -1.2,0.16 -0.85,0 -1.52,-0.26 -1.99,-0.77 -0.47,-0.51 -0.7,-1.25 -0.7,-2.23 0,-1.21 0.32,-2.06 0.96,-2.56 0.82,-0.64 2.64,-1.22 5.47,-1.73 -0.02,-0.96 -0.19,-1.65 -0.5,-2.08 -0.44,-0.59 -1.13,-0.89 -2.05,-0.89 -0.22,0 -0.44,0.03 -0.67,0.08 -0.23,0.06 -0.47,0.14 -0.7,0.25l-0.54 1.29 -0.85 -0.21 0.03 -0.54 -0.02 -0.53 -0.01 -0.49c1.24,-0.77 2.13,-1.25 2.68,-1.44 0.39,-0.15 0.94,-0.22 1.65,-0.22 0.96,0 1.73,0.14 2.34,0.43 0.59,0.29 1.03,0.68 1.31,1.18 0.27,0.49 0.41,1.21 0.41,2.16 0,0.4 -0.02,1.11 -0.05,2.13 -0.03,1.06 -0.05,1.91 -0.05,2.55 0,1.01 0.03,1.63 0.09,1.85 0.03,0.13 0.11,0.23 0.24,0.31 0.12,0.07 0.55,0.14 1.29,0.22zm-4.6 -5.01c-1.43,0.31 -2.37,0.64 -2.79,1.01 -0.43,0.36 -0.65,0.84 -0.65,1.45 0,0.5 0.14,0.89 0.41,1.17 0.28,0.29 0.63,0.43 1.05,0.43 0.64,0 1.3,-0.36 1.98,-1.08l0 -2.98zm5.87 6l0 -0.99c0.87,-0.05 1.35,-0.13 1.46,-0.22 0.12,-0.09 0.18,-0.3 0.21,-0.62 0.05,-0.82 0.07,-2.26 0.07,-4.33 0,-1.02 -0.01,-1.9 -0.05,-2.64 -0.01,-0.45 -0.04,-0.72 -0.09,-0.8 -0.04,-0.07 -0.11,-0.12 -0.19,-0.14 -0.09,-0.04 -0.56,-0.07 -1.41,-0.09l0 -0.95c0.44,0 1.12,-0.09 2.05,-0.28 0.92,-0.19 1.7,-0.41 2.33,-0.65l0.33 -0.11c0.11,0 0.17,0.09 0.17,0.27l-0.01 0.12c-0.03,0.22 -0.04,0.81 -0.04,1.75l1.88 -1.58c0.23,-0.21 0.48,-0.34 0.73,-0.42 0.35,-0.09 0.79,-0.14 1.29,-0.14 0.86,0 1.56,0.15 2.11,0.44 0.54,0.3 0.95,0.71 1.2,1.23 0.25,0.52 0.38,1.34 0.38,2.44 0,0.49 -0.01,1.06 -0.03,1.7 -0.05,1.31 -0.07,2.45 -0.07,3.41 0,0.54 0.05,0.92 0.13,1.13 0.07,0.15 0.16,0.24 0.28,0.29 0.12,0.05 0.56,0.11 1.33,0.19l0 0.99 -1.49 -0.05 -0.97 -0.02 -2.51 0.07 -0.13 -0.16c0.22,-1.54 0.33,-3.12 0.33,-4.74 0,-2.06 -0.13,-3.33 -0.38,-3.81 -0.33,-0.62 -0.92,-0.92 -1.77,-0.92 -0.56,0 -1.03,0.14 -1.44,0.42 -0.4,0.28 -0.66,0.58 -0.78,0.89 -0.06,0.13 -0.09,0.54 -0.09,1.23 0,2.94 0.01,4.63 0.04,5.05 0.02,0.43 0.09,0.69 0.2,0.79 0.15,0.12 0.7,0.21 1.65,0.26l0 0.99c-1.41,-0.05 -2.6,-0.07 -3.57,-0.07 -0.58,0 -1.63,0.02 -3.15,0.07zm26.38 -0.99l0 0.99 -0.94 -0.04c-0.5,-0.02 -0.99,-0.03 -1.49,-0.03 -0.77,0 -1.49,0.02 -2.18,0.07l-0.12 -0.13 0.13 -1.68 -2.53 1.9c-0.46,0.11 -0.86,0.16 -1.21,0.16 -0.85,0 -1.52,-0.26 -1.98,-0.77 -0.47,-0.51 -0.7,-1.25 -0.7,-2.23 0,-1.21 0.31,-2.06 0.95,-2.56 0.83,-0.64 2.65,-1.22 5.47,-1.73 -0.02,-0.96 -0.18,-1.65 -0.5,-2.08 -0.44,-0.59 -1.12,-0.89 -2.05,-0.89 -0.22,0 -0.44,0.03 -0.67,0.08 -0.23,0.06 -0.46,0.14 -0.69,0.25l-0.55 1.29 -0.84 -0.21 0.02 -0.54 -0.01 -0.53 -0.01 -0.49c1.24,-0.77 2.13,-1.25 2.67,-1.44 0.4,-0.15 0.95,-0.22 1.65,-0.22 0.96,0 1.74,0.14 2.34,0.43 0.6,0.29 1.04,0.68 1.31,1.18 0.28,0.49 0.41,1.21 0.41,2.16 0,0.4 -0.01,1.11 -0.04,2.13 -0.04,1.06 -0.05,1.91 -0.05,2.55 0,1.01 0.02,1.63 0.08,1.85 0.03,0.13 0.11,0.23 0.24,0.31 0.12,0.07 0.56,0.14 1.29,0.22zm-4.6 -5.01c-1.43,0.31 -2.36,0.64 -2.79,1.01 -0.43,0.36 -0.65,0.84 -0.65,1.45 0,0.5 0.14,0.89 0.42,1.17 0.27,0.29 0.62,0.43 1.04,0.43 0.65,0 1.31,-0.36 1.98,-1.08l0 -2.98z"/>
  <path class="fil2" d="M453.97 212.07l0 -0.99c0.87,-0.05 1.36,-0.13 1.47,-0.22 0.11,-0.09 0.18,-0.3 0.2,-0.62 0.05,-0.82 0.08,-2.26 0.08,-4.33 0,-1.02 -0.02,-1.9 -0.05,-2.64 -0.02,-0.45 -0.05,-0.72 -0.1,-0.8 -0.04,-0.07 -0.1,-0.12 -0.19,-0.14 -0.08,-0.04 -0.56,-0.07 -1.41,-0.09l0 -0.95c0.44,0 1.12,-0.09 2.05,-0.28 0.92,-0.19 1.7,-0.41 2.33,-0.65l0.33 -0.11c0.11,0 0.17,0.09 0.17,0.27l-0.01 0.12c-0.03,0.22 -0.04,0.81 -0.04,1.75l1.88 -1.58c0.24,-0.21 0.48,-0.34 0.73,-0.42 0.36,-0.09 0.79,-0.14 1.3,-0.14 0.86,0 1.56,0.15 2.1,0.44 0.55,0.3 0.95,0.71 1.2,1.23 0.26,0.52 0.39,1.34 0.39,2.44 0,0.49 -0.02,1.06 -0.04,1.7 -0.04,1.31 -0.06,2.45 -0.06,3.41 0,0.54 0.04,0.92 0.13,1.13 0.07,0.15 0.16,0.24 0.27,0.29 0.12,0.05 0.57,0.11 1.34,0.19l0 0.99 -1.5 -0.05 -0.96 -0.02 -2.51 0.07 -0.13 -0.16c0.21,-1.54 0.32,-3.12 0.32,-4.74 0,-2.06 -0.13,-3.33 -0.38,-3.81 -0.32,-0.62 -0.91,-0.92 -1.77,-0.92 -0.55,0 -1.03,0.14 -1.43,0.42 -0.41,0.28 -0.67,0.58 -0.79,0.89 -0.06,0.13 -0.09,0.54 -0.09,1.23 0,2.94 0.01,4.63 0.04,5.05 0.03,0.43 0.1,0.69 0.21,0.79 0.15,0.12 0.69,0.21 1.64,0.26l0 0.99c-1.41,-0.05 -2.6,-0.07 -3.57,-0.07 -0.57,0 -1.62,0.02 -3.15,0.07zm24.92 0l0 -0.99c0.45,0 0.93,-0.05 1.43,-0.13 0.23,-0.04 0.39,-0.1 0.49,-0.2 0.09,-0.09 0.16,-0.26 0.21,-0.51 0.06,-0.35 0.11,-1.63 0.15,-3.84 0.02,-1.57 0.03,-3.17 0.03,-4.81 0,-3.22 0,-4.85 -0.03,-4.91 -0.02,-0.06 -0.3,-0.09 -0.86,-0.09 -1.13,0 -2.1,0.03 -2.92,0.1 -0.46,0.03 -0.73,0.07 -0.79,0.12 -0.06,0.04 -0.11,0.11 -0.14,0.21 -0.04,0.11 -0.1,0.82 -0.21,2.16l-1.05 0c0.02,-1.58 -0.02,-2.93 -0.12,-4.06l0.13 -0.1c2.56,0.12 5.04,0.17 7.46,0.17 2.4,0 5.1,-0.05 8.08,-0.17l0.14 0.2c-0.16,1.12 -0.26,2.44 -0.33,3.96l-1.02 0c-0.07,-1.38 -0.14,-2.13 -0.22,-2.24 -0.05,-0.1 -0.18,-0.16 -0.38,-0.19 -0.65,-0.11 -1.94,-0.16 -3.87,-0.16 -0.16,0 -0.25,0.02 -0.29,0.07 -0.03,0.06 -0.04,0.27 -0.04,0.64l-0.08 8.18c0,2.37 0.02,3.82 0.07,4.36 0.03,0.54 0.13,0.87 0.29,0.98 0.1,0.07 0.74,0.16 1.91,0.26l0 0.99c-1.19,-0.05 -2.45,-0.07 -3.78,-0.07 -1.75,0 -3.17,0.02 -4.26,0.07zm23.25 -2.36l0.35 0.36 -0.55 1.16c-0.58,0.36 -1.21,0.63 -1.88,0.82 -0.66,0.18 -1.37,0.27 -2.13,0.27 -1.77,0 -3.16,-0.51 -4.17,-1.54 -1.02,-1.02 -1.53,-2.46 -1.53,-4.32 0,-1.18 0.15,-2.15 0.45,-2.92 0.24,-0.62 0.64,-1.14 1.2,-1.55 0.55,-0.42 1.19,-0.81 1.92,-1.18 0.73,-0.38 1.52,-0.56 2.39,-0.56 1.33,0 2.43,0.37 3.29,1.11 0.87,0.74 1.31,1.94 1.31,3.59 0,0.2 -0.02,0.51 -0.05,0.92l-1.99 0.36c-0.62,0.05 -1.51,0.07 -2.67,0.07l-2.64 0c0.12,1.39 0.54,2.44 1.26,3.15 0.71,0.7 1.61,1.05 2.72,1.05 0.46,0 0.91,-0.06 1.37,-0.2 0.45,-0.13 0.9,-0.33 1.35,-0.59zm-6.77 -4.71c0.73,0.07 1.46,0.1 2.19,0.1 0.64,0 1.31,-0.03 2.01,-0.1l0.02 -0.57c0,-0.99 -0.19,-1.72 -0.55,-2.18 -0.37,-0.46 -0.86,-0.68 -1.48,-0.68 -0.44,0 -0.82,0.1 -1.13,0.32 -0.32,0.21 -0.56,0.51 -0.71,0.9 -0.15,0.39 -0.27,1.13 -0.35,2.21zm8.61 7.07l0 -0.99c0.82,-0.05 1.29,-0.09 1.41,-0.15 0.09,-0.05 0.17,-0.12 0.23,-0.23 0.09,-0.2 0.14,-0.62 0.15,-1.29 0.04,-1.18 0.05,-2.26 0.05,-3.23 0,-1.88 -0.02,-2.99 -0.07,-3.33 -0.02,-0.21 -0.1,-0.35 -0.22,-0.44 -0.12,-0.08 -0.64,-0.14 -1.55,-0.17l0 -0.95c1.64,-0.16 2.81,-0.35 3.51,-0.57l1.25 -0.47c0.11,0 0.17,0.07 0.17,0.23l-0.01 0.17c-0.03,0.51 -0.04,1.24 -0.04,2.2 0.41,-0.4 0.86,-0.9 1.36,-1.51 0.37,-0.45 0.69,-0.75 0.97,-0.89 0.27,-0.13 0.64,-0.2 1.09,-0.2 0.26,0 0.52,0.04 0.79,0.13 -0.08,0.81 -0.13,1.92 -0.15,3.31l-0.54 0.19c-0.19,-0.31 -0.39,-0.53 -0.61,-0.65 -0.22,-0.13 -0.51,-0.2 -0.86,-0.2 -0.48,0 -0.9,0.13 -1.24,0.38 -0.34,0.25 -0.57,0.54 -0.66,0.87 -0.07,0.24 -0.1,1.07 -0.1,2.48 0,2.06 0.03,3.26 0.08,3.6 0.04,0.23 0.11,0.38 0.23,0.46 0.18,0.12 0.79,0.21 1.81,0.26l0 0.99 -1.36 -0.04c-0.86,-0.02 -1.61,-0.03 -2.24,-0.03 -0.59,0 -1.29,0.01 -2.08,0.03l-1.37 0.04zm12.36 0.25l-0.58 -0.23c0.15,-1.96 0.23,-4.67 0.23,-8.13 0,-1.57 -0.02,-2.78 -0.04,-3.63l-0.07 -3.12c0,-0.48 -0.04,-0.8 -0.13,-0.96 -0.05,-0.1 -0.15,-0.17 -0.3,-0.21 -0.1,-0.03 -0.58,-0.07 -1.43,-0.1l0 -0.87c0.44,0 1.15,-0.1 2.12,-0.28 0.98,-0.19 1.7,-0.38 2.19,-0.59l0.53 -0.2c0.16,0 0.24,0.09 0.24,0.29l-0.04 1.27c-0.02,0.44 -0.05,2.74 -0.09,6.88l1.48 -1.22c0.46,-0.39 0.87,-0.65 1.24,-0.78 0.37,-0.13 0.81,-0.19 1.33,-0.19 1.37,0 2.46,0.43 3.28,1.3 0.83,0.87 1.24,2 1.24,3.4 0,0.69 -0.12,1.4 -0.34,2.13 -0.23,0.74 -0.52,1.34 -0.85,1.8 -0.34,0.47 -0.77,0.88 -1.31,1.24 -0.67,0.43 -1.24,0.82 -1.71,1.18 -0.56,0.42 -1.03,0.7 -1.41,0.83 -0.38,0.12 -0.85,0.19 -1.4,0.19 -0.54,0 -1.05,-0.07 -1.52,-0.21 -0.47,-0.13 -1,-0.38 -1.6,-0.74 -0.19,0.14 -0.54,0.46 -1.06,0.95zm2.63 -8.6l0 5.58c0.3,0.45 0.66,0.78 1.09,1.01 0.42,0.23 0.9,0.34 1.43,0.34 0.87,0 1.57,-0.34 2.1,-1.03 0.54,-0.7 0.81,-1.75 0.81,-3.16 0,-1.33 -0.27,-2.33 -0.82,-3.01 -0.55,-0.67 -1.26,-1.01 -2.15,-1.01 -0.47,0 -0.91,0.11 -1.32,0.32 -0.41,0.21 -0.79,0.54 -1.14,0.96zm21.56 7.36l0 0.99 -0.95 -0.04c-0.49,-0.02 -0.99,-0.03 -1.49,-0.03 -0.76,0 -1.49,0.02 -2.17,0.07l-0.12 -0.13 0.12 -1.68 -2.53 1.9c-0.45,0.11 -0.86,0.16 -1.2,0.16 -0.86,0 -1.52,-0.26 -1.99,-0.77 -0.47,-0.51 -0.7,-1.25 -0.7,-2.23 0,-1.21 0.32,-2.06 0.96,-2.56 0.82,-0.64 2.64,-1.22 5.46,-1.73 -0.02,-0.96 -0.18,-1.65 -0.49,-2.08 -0.45,-0.59 -1.13,-0.89 -2.06,-0.89 -0.22,0 -0.44,0.03 -0.67,0.08 -0.23,0.06 -0.46,0.14 -0.69,0.25l-0.55 1.29 -0.84 -0.21 0.02 -0.54 -0.01 -0.53 -0.01 -0.49c1.24,-0.77 2.13,-1.25 2.67,-1.44 0.4,-0.15 0.95,-0.22 1.66,-0.22 0.95,0 1.73,0.14 2.33,0.43 0.6,0.29 1.04,0.68 1.31,1.18 0.28,0.49 0.42,1.21 0.42,2.16 0,0.4 -0.02,1.11 -0.05,2.13 -0.04,1.06 -0.05,1.91 -0.05,2.55 0,1.01 0.03,1.63 0.09,1.85 0.02,0.13 0.1,0.23 0.23,0.31 0.13,0.07 0.56,0.14 1.3,0.22zm-4.61 -5.01c-1.43,0.31 -2.36,0.64 -2.79,1.01 -0.43,0.36 -0.64,0.84 -0.64,1.45 0,0.5 0.13,0.89 0.41,1.17 0.27,0.29 0.63,0.43 1.05,0.43 0.64,0 1.3,-0.36 1.97,-1.08l0 -2.98zm9.29 -11.65c0.52,0 0.97,0.18 1.34,0.55 0.37,0.37 0.55,0.82 0.55,1.35 0,0.52 -0.18,0.96 -0.55,1.33 -0.37,0.37 -0.82,0.55 -1.35,0.55 -0.52,0 -0.96,-0.18 -1.33,-0.55 -0.37,-0.37 -0.56,-0.81 -0.56,-1.33 0,-0.53 0.19,-0.98 0.56,-1.35 0.37,-0.37 0.81,-0.55 1.34,-0.55zm-3.39 17.65l0 -0.99c0.92,-0.04 1.45,-0.09 1.59,-0.17 0.15,-0.09 0.24,-0.31 0.28,-0.69 0.06,-0.51 0.1,-1.63 0.1,-3.38 0,-0.75 -0.01,-1.44 -0.04,-2.09l-0.04 -1.42c0,-0.47 -0.05,-0.76 -0.15,-0.87 -0.1,-0.11 -0.37,-0.17 -0.82,-0.18l-0.92 -0.04 0 -0.95c1.96,-0.15 3.56,-0.5 4.83,-1.04l0.3 0.24c-0.12,1.55 -0.18,3.81 -0.18,6.77 0,1.72 0.03,2.75 0.09,3.11 0.04,0.25 0.11,0.41 0.22,0.49 0.11,0.07 0.64,0.14 1.59,0.22l0 0.99c-1.46,-0.05 -2.6,-0.07 -3.4,-0.07 -0.42,0 -1.57,0.02 -3.45,0.07zm8.14 0l0 -0.99c0.87,-0.04 1.38,-0.1 1.53,-0.17 0.07,-0.05 0.13,-0.13 0.17,-0.22 0.06,-0.18 0.11,-1 0.13,-2.44 0.03,-1.46 0.04,-2.96 0.04,-4.53 0,-1.27 -0.02,-2.89 -0.06,-4.88 -0.04,-1.45 -0.08,-2.25 -0.12,-2.41 -0.04,-0.15 -0.13,-0.27 -0.26,-0.35 -0.13,-0.08 -0.61,-0.12 -1.43,-0.14l0 -0.87c1.09,-0.11 1.97,-0.23 2.64,-0.38 0.68,-0.15 1.29,-0.35 1.86,-0.6 0.15,-0.06 0.26,-0.09 0.32,-0.09 0.12,0 0.19,0.11 0.19,0.33l-0.03 0.52c-0.02,0.6 -0.05,2.88 -0.07,6.84l-0.03 3.41 0.03 0.67c1.71,-1.45 3.47,-3.2 5.29,-5.25 0.58,0.05 1.09,0.08 1.55,0.08 0.54,0 1.11,-0.03 1.72,-0.08l0 1c-0.9,0.05 -1.44,0.1 -1.63,0.16 -0.18,0.06 -0.46,0.23 -0.83,0.51 -0.36,0.28 -1.37,1.17 -3.04,2.65l1.76 1.99c2.01,2.29 3.2,3.58 3.56,3.88 0.23,0.2 0.56,0.32 0.98,0.37l0 0.99c-0.91,-0.05 -1.75,-0.07 -2.51,-0.07 -0.59,0 -1.17,0.02 -1.75,0.07 -0.8,-1.06 -1.6,-2.04 -2.41,-2.95 -1.09,-1.24 -1.99,-2.2 -2.69,-2.87l0 1.96c0,1.14 0.05,1.91 0.15,2.32 0.03,0.18 0.12,0.3 0.24,0.37 0.12,0.07 0.62,0.13 1.5,0.18l0 0.99c-1.57,-0.05 -2.62,-0.07 -3.15,-0.07 -0.51,0 -1.73,0.02 -3.65,0.07z"/>
  <path class="fil2" d="M163.07 38.25c-13.83,0.17 -23.59,4.69 -29.56,9.26 24.36,-8.99 40.36,-7.27 46.65,6.05 6.86,14.52 -1.32,35.82 -25.99,52.35 -32.23,21.59 -57.52,22.55 -73.36,6.77 7.61,16.74 26.65,21.1 50.57,13.53 32.46,-10.28 53.25,-27.82 61.6,-50.21 8.88,-23.81 -4.52,-38.06 -29.91,-37.75z"/>
  <path class="fil1" d="M102.17 113.06c13.84,-0.17 23.6,-4.7 29.56,-9.26 -24.35,8.98 -40.35,7.27 -46.65,-6.06 -6.86,-14.51 1.32,-35.82 26,-52.34 32.23,-21.6 57.52,-22.55 73.36,-6.77 -7.61,-16.74 -26.66,-21.1 -50.57,-13.53 -32.47,10.28 -53.26,27.82 -61.61,50.21 -8.88,23.81 4.53,38.06 29.91,37.75z"/>
 </g>
</svg>
